<svg width="25" height="25" viewBox="0 0 25 25" fill="none" xmlns="http://www.w3.org/2000/svg">
<g clip-path="url(#clip0_75_2)">
<path d="M21.6604 11.1533C21.7067 12.2225 21.2095 13.7277 19.8982 13.4096C18.9432 13.2029 18.3429 12.3587 17.5674 11.8395C16.6606 11.3095 14.9949 13.7193 13.5563 12.2081C11.8648 10.1431 15.175 6.83991 17.0877 6.18131C20.1056 5.36516 21.6248 8.65022 21.6605 11.1533L21.6604 11.1533ZM18.0299 7.3869C18.0166 7.41765 18.0281 7.43576 18.0643 7.44124C18.0232 7.40365 18.0297 7.31512 17.9678 7.38621C17.9888 7.38621 18.0098 7.38621 18.0299 7.38684V7.3869ZM20.4466 11.1433C20.3848 11.1375 20.4074 11.2008 20.4044 11.2407C20.4049 11.2466 20.4317 11.2499 20.4625 11.2595C20.4279 11.215 20.4226 11.1762 20.4466 11.1431C20.4465 11.113 20.4697 11.0793 20.4359 11.0472C20.3955 11.0909 20.4471 11.113 20.4466 11.1432V11.1433ZM20.4614 9.97032C20.4806 9.94534 20.4999 9.92044 20.5185 9.89622C20.4326 9.80894 20.4132 9.80537 20.3423 9.8602C20.352 9.91209 20.3818 9.92709 20.4303 9.90193C20.4435 9.92922 20.4542 9.95131 20.4645 9.97308C20.4341 9.98307 20.4239 10.0074 20.434 10.0461C20.4785 10.0337 20.4626 9.99937 20.4614 9.97032ZM20.4918 11.4039C20.3683 11.3233 20.2343 11.3844 20.1069 11.371C20.0988 11.3964 20.0922 11.4172 20.0858 11.4371C20.1531 11.4991 20.1674 11.4228 20.1887 11.403C20.3261 11.3692 20.3882 11.3958 20.4903 11.4889C20.4903 11.4532 20.4903 11.4275 20.4906 11.4022C20.545 11.4235 20.5899 11.412 20.6283 11.3688C20.5926 11.2969 20.5452 11.3326 20.5071 11.3404C20.5012 11.3648 20.4965 11.3843 20.4919 11.4039H20.4918ZM19.3112 12.5744C19.3693 12.6491 19.4239 12.7192 19.4787 12.7897C19.5209 12.7854 19.5667 12.7807 19.6122 12.776V12.6651C19.5942 12.8122 19.4766 12.7326 19.4286 12.6468C19.4024 12.6071 19.4561 12.6035 19.4696 12.5916C19.439 12.5698 19.4087 12.5482 19.3901 12.5349C19.3308 12.547 19.2823 12.5569 19.2338 12.5668C19.2352 12.5744 19.2367 12.5819 19.2382 12.5895C19.2596 12.5851 19.281 12.5806 19.3112 12.5744V12.5744ZM17.9233 7.15212C17.9607 7.17163 18.0207 7.12338 18.0377 7.1902C18.021 7.20056 18.0041 7.21097 17.9853 7.22264C18.031 7.25397 18.0723 7.24757 18.1093 7.20344C18.0481 7.16473 18.0249 7.12464 18.0949 7.07463C18.0937 7.10544 18.0619 7.14334 18.1207 7.14145C18.144 7.08097 18.1348 7.03764 18.0931 7.01145C18.0353 7.05939 17.9816 7.10387 17.9233 7.15212ZM15.212 11.0495C15.1353 11.1385 15.0678 11.2167 14.986 11.3116C15.0699 11.307 15.1387 11.3034 15.2288 11.2986C15.1908 11.2682 15.1715 11.2527 15.1549 11.2394C15.1682 11.1732 15.234 11.1322 15.2121 11.0495H15.212ZM20.3991 11.8659C20.4025 11.9485 20.4415 12.002 20.4685 11.98C20.5129 11.9438 20.5473 11.9711 20.5864 11.9695C20.6284 11.9654 20.6815 11.9099 20.6329 11.8725C20.5319 11.8314 20.5165 11.9481 20.399 11.8659H20.3991ZM18.3364 10.8496C18.2918 10.8921 18.2521 10.9299 18.1962 10.9831C18.2242 11.0102 18.2457 11.031 18.266 11.0507C18.3086 11.0137 18.335 10.9906 18.3556 10.9728C18.3596 10.9132 18.4197 10.7921 18.3126 10.8192C18.3221 10.8313 18.3315 10.8434 18.3364 10.8496H18.3364ZM19.8983 8.20105C19.919 8.27935 19.9355 8.34146 19.9517 8.40251C19.9877 8.40772 20.0181 8.41205 20.0495 8.41657C20.0672 8.39235 20.0829 8.37076 20.0981 8.35006C20.0273 8.29485 19.911 8.4049 19.9842 8.22777C19.9572 8.21937 19.9382 8.21347 19.8983 8.20105ZM17.4637 9.386C17.459 9.43199 17.4554 9.46863 17.452 9.50264C17.4821 9.51311 17.5071 9.52183 17.5195 9.52616C17.553 9.47459 17.5819 9.43023 17.6107 9.386H17.4637ZM17.9745 8.98376C17.972 8.89052 17.8695 8.91562 17.853 8.84867C17.7903 8.85946 17.833 8.94109 17.8359 8.98376H17.9745ZM20.7316 9.56663C20.7477 9.58853 20.7639 9.61043 20.7786 9.63038C20.7624 9.65918 20.7481 9.68478 20.7298 9.71721C20.7979 9.72807 20.8286 9.69193 20.868 9.64933C20.7713 9.65767 20.8313 9.45834 20.7317 9.56663H20.7316ZM19.8308 11.7396C19.8643 11.8004 19.896 11.8577 19.9294 11.9183C19.9601 11.9011 19.9805 11.8897 19.997 11.8804C19.9654 11.8311 19.9355 11.7844 19.9044 11.7356C19.8808 11.7369 19.8562 11.7382 19.8308 11.7396H19.8308ZM15.9889 8.0467C15.9324 8.05247 15.8911 8.05668 15.8425 8.0617C15.8363 8.08152 15.8283 8.10762 15.8162 8.1469C15.9049 8.10273 15.9229 8.09784 15.9889 8.16754V8.04676L15.9889 8.0467ZM21.2167 9.99108C21.1954 9.91837 21.1137 9.95124 21.0563 9.94647C21.0593 9.97389 21.0621 10.0013 21.0652 10.0293C21.1224 10.0149 21.1657 10.0039 21.2167 9.99108ZM20.3875 13.0301C20.2806 12.9062 20.2333 13.0491 20.1546 13.1135C20.1866 13.1192 20.2153 13.1242 20.2474 13.1299C20.2554 13.0426 20.3099 13.022 20.3875 13.0301ZM20.5472 10.8205C20.578 10.8313 20.609 10.8377 20.6322 10.8616C20.6743 10.7898 20.5859 10.7225 20.5633 10.6543L20.5472 10.6597V10.8205ZM18.0768 11.3005C18.1672 11.3634 17.9902 11.3796 18.0642 11.4563C18.0989 11.3946 18.1843 11.369 18.1638 11.2728C18.1372 11.2813 18.1143 11.2885 18.0769 11.3005H18.0768ZM15.5874 10.1238C15.6742 10.2011 15.6972 10.204 15.7909 10.1498C15.7808 10.0654 15.7086 10.172 15.6652 10.13C15.6622 10.1162 15.6588 10.1003 15.6548 10.0812C15.6236 10.0924 15.6099 10.1038 15.5874 10.1238ZM19.2606 12.7596C19.2896 12.8324 19.3405 12.861 19.4138 12.8455C19.396 12.7952 19.345 12.7666 19.2606 12.7596ZM18.8763 8.2545C18.9312 8.1959 18.9768 8.18818 19.0415 8.23857C19.0464 8.23047 19.0513 8.22244 19.0562 8.21435C18.9967 8.13498 18.8849 8.13755 18.8763 8.2545ZM17.8534 11.4126C17.8187 11.4615 17.8133 11.5426 17.7115 11.5181C17.7386 11.5534 17.7568 11.5771 17.7762 11.6026C17.8382 11.5193 17.8639 11.4559 17.8534 11.4126ZM16.2543 11.549C16.2497 11.5422 16.2452 11.5354 16.2407 11.5285C16.1743 11.5336 16.0679 11.5611 16.1125 11.6551C16.1607 11.6191 16.2075 11.584 16.2543 11.549ZM15.4617 10.7839C15.4852 10.7427 15.5026 10.7122 15.5218 10.6786C15.4198 10.6043 15.3626 10.7238 15.4617 10.7839ZM20.7356 10.9994C20.7565 10.9729 20.831 10.9958 20.7983 10.9301C20.759 10.9392 20.7205 10.9483 20.6844 10.9567C20.6913 11.02 20.6784 11.0608 20.7559 11.0813C20.7468 11.0445 20.7411 11.0215 20.7356 10.9994ZM21.1211 9.6029C21.0835 9.63283 21.0515 9.65836 21.0089 9.69224C21.0586 9.71257 21.0886 9.75649 21.1457 9.71947C21.1381 9.68371 21.1304 9.64694 21.1211 9.6029ZM14.239 9.28661C14.242 9.28003 14.245 9.27337 14.248 9.26679C14.2002 9.23247 14.1524 9.19815 14.1021 9.16207C14.0734 9.2415 14.1538 9.24119 14.1742 9.28178C14.1792 9.29176 14.2165 9.28542 14.239 9.28661ZM17.9141 9.26823C17.8882 9.23065 17.8716 9.20404 17.8322 9.22362C17.8007 9.23924 17.7505 9.23805 17.7663 9.30926C17.8119 9.29659 17.8561 9.28429 17.9141 9.26817V9.26823ZM16.0588 11.0514C16.0352 11.0239 16.0173 11.0031 16.0008 10.984C15.9787 11.0385 15.9601 11.0844 15.9362 11.1438C16.0051 11.1365 16.0079 11.0683 16.0588 11.0514ZM19.3976 8.50139C19.4293 8.55855 19.4436 8.66308 19.5028 8.61057C19.4875 8.54243 19.489 8.49518 19.3976 8.50139ZM18.4587 10.9072C18.4926 10.8769 18.5253 10.8476 18.5594 10.8171C18.4887 10.7567 18.4657 10.8466 18.4184 10.8502C18.4161 10.8504 18.4145 10.8616 18.4115 10.8716C18.4265 10.8828 18.4425 10.895 18.4587 10.9071V10.9072ZM16.8003 6.99595C16.8607 6.96232 16.9069 6.9366 16.9658 6.90372C16.89 6.85378 16.8188 6.90523 16.8003 6.99595ZM18.0235 9.34879C18.0806 9.32767 18.104 9.29462 18.0936 9.24966C18.0665 9.26277 18.0389 9.27607 18.0118 9.28912C18.0151 9.30619 18.0184 9.32294 18.0235 9.34879ZM20.6915 10.6061C20.7036 10.5509 20.7125 10.51 20.724 10.4574C20.6878 10.4748 20.6559 10.4901 20.6157 10.5093C20.6443 10.5459 20.6632 10.57 20.6915 10.6061ZM15.6485 10.9225C15.6077 10.8468 15.5352 10.8834 15.5267 10.9579C15.5787 10.9505 15.6188 10.9579 15.6485 10.9225ZM20.9333 12.5936C20.9197 12.5395 20.912 12.5093 20.9044 12.4791C20.834 12.5347 20.8426 12.5588 20.9333 12.5936ZM15.1899 8.09978C15.1856 8.11239 15.1814 8.12507 15.1772 8.13768C15.2496 8.08849 15.2676 8.14332 15.3089 8.18825C15.3121 8.13824 15.3139 8.10944 15.316 8.07638C15.2666 8.08554 15.2282 8.09263 15.1899 8.09972V8.09978ZM17.5316 7.27233C17.4801 7.30345 17.4438 7.32541 17.402 7.3507C17.4601 7.37341 17.5033 7.34729 17.5316 7.27233ZM13.7426 10.8138C13.8017 10.847 13.8192 10.8113 13.8303 10.7725C13.8275 10.6791 13.7474 10.7542 13.7426 10.8138ZM13.54 10.5005C13.5738 10.442 13.6124 10.4176 13.6181 10.3718C13.5882 10.3823 13.559 10.3925 13.5229 10.4052C13.5284 10.4358 13.5333 10.4633 13.54 10.5006V10.5005ZM17.6103 10.7393C17.6482 10.7982 17.6515 10.7978 17.7386 10.7309C17.6908 10.6918 17.6528 10.7446 17.6103 10.7393ZM15.7069 10.3231C15.6852 10.3566 15.6825 10.3918 15.6986 10.4289C15.7156 10.413 15.7326 10.3971 15.751 10.38C15.7373 10.3623 15.7248 10.3462 15.7069 10.3231ZM17.1448 9.37953C17.2169 9.34823 17.2061 9.25712 17.1258 9.28009C17.1328 9.31698 17.138 9.34365 17.1448 9.37953ZM17.1988 7.20457C17.234 7.26041 17.2551 7.29392 17.2762 7.32748C17.2848 7.3241 17.2934 7.32071 17.3019 7.31738C17.2832 7.24623 17.2977 7.21505 17.1988 7.20464V7.20457ZM21.0976 11.8012C21.0752 11.8289 21.057 11.8513 21.0388 11.8737C21.0428 11.8794 21.0468 11.8851 21.0508 11.8907C21.0781 11.8841 21.1056 11.8775 21.143 11.8684C21.1248 11.8413 21.1137 11.825 21.0977 11.8011L21.0976 11.8012ZM16.0632 7.88162C16.0539 7.883 16.0446 7.88439 16.0352 7.88577C16.0109 7.94493 16.0691 7.96702 16.1028 8.00121C16.0896 7.96137 16.0763 7.92153 16.0632 7.88162ZM15.9731 9.6497C15.947 9.6194 15.9311 9.60076 15.9143 9.58125C15.8907 9.61231 15.8727 9.63577 15.849 9.66696C15.891 9.66112 15.9215 9.65686 15.9731 9.6497ZM20.0176 12.5719C20.0556 12.5659 20.08 12.5621 20.1144 12.5567C20.0891 12.5261 20.0721 12.5055 20.0521 12.4812C20.0414 12.5093 20.032 12.5338 20.0176 12.5719H20.0176ZM20.2518 12.0063C20.1657 12.0348 20.1632 12.0411 20.2018 12.1051C20.2166 12.0758 20.2301 12.0493 20.2518 12.0063ZM20.6167 9.47145C20.678 9.52698 20.703 9.52227 20.7306 9.46179C20.697 9.46461 20.6647 9.46737 20.6167 9.47145ZM21.201 11.4295C21.2692 11.3932 21.2521 11.3621 21.201 11.3195V11.4295ZM15.3038 10.5203C15.2584 10.5608 15.2341 10.5824 15.1938 10.6183C15.2446 10.6117 15.2693 10.6084 15.2968 10.6048C15.2983 10.586 15.3 10.5657 15.3038 10.5204V10.5203ZM20.2993 11.5297C20.2526 11.517 20.2212 11.5325 20.1961 11.5749C20.2457 11.5902 20.2868 11.5974 20.2993 11.5297ZM21.2512 11.3072C21.257 11.3168 21.2627 11.3264 21.2685 11.336C21.3247 11.3511 21.3541 11.3034 21.3108 11.2458C21.2866 11.2708 21.2689 11.289 21.2513 11.3072H21.2512ZM20.1883 8.81598C20.1797 8.82163 20.1713 8.82728 20.1627 8.83292C20.1785 8.85507 20.1943 8.87722 20.21 8.89937C20.2262 8.88745 20.2424 8.87559 20.2642 8.85953C20.2302 8.84008 20.2092 8.82803 20.1882 8.81598H20.1883ZM14.9108 11.6048C14.903 11.5721 14.9072 11.5352 14.8522 11.534C14.8507 11.5776 14.8481 11.6133 14.9108 11.6048ZM18.1888 10.4969C18.1231 10.5519 18.1503 10.5777 18.2201 10.6104C18.2067 10.5619 18.1982 10.531 18.1888 10.4969ZM17.2048 10.996C17.216 10.9398 17.223 10.9049 17.2318 10.8609C17.1629 10.9094 17.1625 10.9094 17.2048 10.996ZM19.8548 12.6177C19.8183 12.6305 19.7879 12.6413 19.7548 12.6529C19.7764 12.6712 19.7917 12.6842 19.8092 12.699C19.8249 12.6711 19.8377 12.6482 19.8549 12.6176L19.8548 12.6177ZM16.4704 7.51759C16.4866 7.56917 16.5275 7.52895 16.5565 7.53598C16.5605 7.51816 16.5645 7.50034 16.5686 7.48183C16.532 7.49519 16.5014 7.5063 16.4704 7.51759H16.4704ZM19.5321 12.3685C19.5171 12.4532 19.5604 12.4697 19.6174 12.4761C19.593 12.4454 19.5687 12.4147 19.5321 12.3685ZM17.3632 9.29094C17.4597 9.29326 17.4636 9.28944 17.4473 9.2144C17.4222 9.23736 17.4001 9.25738 17.3632 9.29094ZM18.6166 11.8559C18.6789 11.8035 18.6428 11.7713 18.5664 11.763C18.5873 11.8016 18.5991 11.8235 18.6166 11.8559ZM16.6824 6.92248C16.6788 6.91044 16.6751 6.89845 16.6714 6.88641C16.6403 6.88904 16.6068 6.88559 16.5841 6.94626C16.6249 6.93641 16.6537 6.92945 16.6825 6.92255L16.6824 6.92248ZM16.9336 11.262C16.9843 11.338 16.9964 11.309 17.0271 11.262H16.9336ZM15.3397 7.73286C15.2988 7.74723 15.2749 7.75558 15.2484 7.7648C15.281 7.80738 15.3114 7.79673 15.3397 7.73286ZM16.5264 8.12343C16.5273 8.1139 16.5281 8.1043 16.5289 8.09476C16.4995 8.09344 16.4701 8.09213 16.4236 8.09006C16.4639 8.14351 16.4949 8.13498 16.5264 8.12343ZM17.2299 9.72355C17.2605 9.7383 17.2541 9.82563 17.3279 9.78692C17.2901 9.76251 17.26 9.743 17.2299 9.72355ZM20.0679 8.32013C20.1056 8.29993 20.1314 8.28606 20.1728 8.26385C20.1155 8.25578 20.0805 8.27454 20.0679 8.32013ZM16.0172 11.4122C16.0519 11.4044 16.0704 11.4002 16.0958 11.3944C16.0831 11.3703 16.0746 11.3542 16.0633 11.3328C16.0472 11.3605 16.0353 11.3811 16.0172 11.4122ZM14.8292 10.5852C14.8673 10.5506 14.8695 10.5388 14.8366 10.5059C14.7934 10.5313 14.7934 10.5421 14.8292 10.5852ZM20.3118 9.54009C20.2787 9.55333 20.2508 9.56456 20.2058 9.58251C20.2714 9.59476 20.3068 9.58062 20.3118 9.54009ZM19.1144 12.4444C19.0622 12.4815 19.0666 12.506 19.1144 12.5535V12.4444ZM18.3165 7.72433C18.2608 7.69083 18.224 7.74792 18.2786 7.78412C18.2905 7.76536 18.3019 7.74748 18.3165 7.72433ZM19.0999 6.87549C19.0972 6.86319 19.0946 6.85083 19.092 6.83853C19.0642 6.845 19.0364 6.85146 19.0087 6.85792C19.0101 6.86671 19.0116 6.87549 19.0131 6.88427C19.042 6.88132 19.071 6.87844 19.0999 6.87549ZM20.0895 10.2485C20.0863 10.2566 20.083 10.2648 20.0797 10.273C20.1099 10.2874 20.1402 10.3017 20.1703 10.316C20.1741 10.3082 20.1779 10.3003 20.1816 10.2924C20.1509 10.2778 20.1202 10.2631 20.0895 10.2485ZM20.9141 11.7423C20.9057 11.7481 20.8972 11.754 20.8888 11.7598C20.9059 11.7906 20.9229 11.8213 20.9399 11.8521C20.9468 11.8484 20.9538 11.8448 20.9607 11.8412C20.9451 11.8082 20.9296 11.7753 20.914 11.7423H20.9141ZM16.831 7.19315C16.7998 7.12922 16.7593 7.17006 16.7647 7.23168C16.7939 7.21474 16.8114 7.20457 16.831 7.19315ZM18.5076 9.03972C18.5261 9.06787 18.5532 9.0703 18.5889 9.047C18.5621 9.04462 18.5351 9.04217 18.5076 9.03972ZM14.0715 10.3284C14.0622 10.3205 14.0528 10.3128 14.0435 10.3049C14.03 10.3271 14.0165 10.3494 14.003 10.3716C14.0102 10.3768 14.0173 10.382 14.0244 10.3873C14.0401 10.3677 14.0558 10.348 14.0715 10.3284ZM17.1574 10.9751C17.1515 10.9677 17.1457 10.9604 17.1399 10.953C17.1148 10.9759 17.0897 10.9987 17.0647 11.0216C17.0693 11.0268 17.0739 11.032 17.0785 11.0372C17.1048 11.0165 17.1311 10.9958 17.1574 10.9751H17.1574ZM16.0361 8.75261C15.9972 8.72099 15.9906 8.72607 15.9621 8.75437C15.9906 8.78122 15.9985 8.77683 16.0361 8.75261ZM17.2159 7.13142C17.2206 7.13612 17.2253 7.14076 17.2299 7.14547C17.2441 7.13443 17.2583 7.12338 17.2725 7.1124C17.2605 7.10011 17.2485 7.08775 17.232 7.07081C17.2248 7.09835 17.2203 7.11491 17.2159 7.13148V7.13142ZM19.1493 8.60931C19.1533 8.55805 19.1562 8.52342 19.1604 8.47084C19.1187 8.52116 19.1116 8.55617 19.1493 8.60931ZM15.5719 8.48772C15.5614 8.47404 15.5517 8.46162 15.5356 8.44072C15.5264 8.47103 15.5199 8.49242 15.5115 8.52009C15.5371 8.50635 15.5544 8.49706 15.5719 8.48772H15.5719ZM15.7483 8.42673C15.8049 8.46808 15.8472 8.42849 15.8241 8.38438C15.8016 8.39693 15.7801 8.40897 15.7483 8.42673ZM16.8825 8.28594C16.8756 8.28832 16.8687 8.29064 16.8618 8.29303C16.8727 8.32044 16.8463 8.37459 16.9217 8.3596C16.9077 8.33318 16.8951 8.30959 16.8825 8.28594ZM17.4491 9.5736C17.361 9.5943 17.4228 9.64035 17.4265 9.67493C17.4338 9.6423 17.441 9.60974 17.4491 9.5736ZM19.1321 8.35194C19.1412 8.3478 19.1502 8.34366 19.1593 8.33952C19.1367 8.32402 19.1762 8.26624 19.0999 8.28117C19.1117 8.30727 19.1219 8.32961 19.1321 8.35188V8.35194ZM17.4595 8.24804C17.4504 8.24691 17.4413 8.24584 17.4322 8.24471C17.4305 8.27784 17.4288 8.31097 17.427 8.3441C17.4353 8.34466 17.4435 8.34523 17.4517 8.34585C17.4543 8.31323 17.4569 8.28067 17.4595 8.24804ZM14.405 9.71677C14.4713 9.74902 14.4561 9.69099 14.4728 9.66476C14.4502 9.68208 14.4276 9.69946 14.405 9.71677ZM20.2905 9.89772C20.2848 9.90168 20.2791 9.90569 20.2733 9.90965C20.2765 9.92784 20.2797 9.94604 20.2829 9.96423C20.3243 9.94353 20.3205 9.92715 20.2905 9.89772ZM21.1935 9.90281C21.1849 9.84822 21.1913 9.81214 21.1316 9.8267C21.1512 9.85085 21.1649 9.86767 21.1935 9.90281ZM19.6393 12.4443C19.6487 12.4534 19.658 12.4625 19.6674 12.4715C19.6796 12.4576 19.6917 12.4437 19.7038 12.4298C19.6976 12.4239 19.6914 12.4181 19.6851 12.4123C19.6698 12.423 19.6545 12.4336 19.6393 12.4443ZM18.0366 8.96763L18.0375 8.9911C18.0563 8.98865 18.0751 8.9862 18.0939 8.98382C18.0933 8.97842 18.0927 8.97303 18.0922 8.96763H18.0367H18.0366ZM18.7344 11.8627C18.7554 11.8261 18.7451 11.7995 18.7034 11.7828C18.7152 11.8133 18.7242 11.8364 18.7344 11.8627ZM15.0045 11.8262C14.9761 11.8044 14.9517 11.8024 14.9312 11.8203C14.9597 11.8226 14.9821 11.8244 15.0045 11.8262ZM16.6263 11.5719C16.6243 11.5645 16.6223 11.5571 16.6202 11.5497C16.598 11.5559 16.5758 11.5621 16.5537 11.5682C16.5557 11.5755 16.5576 11.5827 16.5596 11.5898C16.5818 11.5838 16.6041 11.5778 16.6263 11.5718V11.5719ZM19.3558 8.30187C19.3567 8.36876 19.3768 8.38457 19.4076 8.35922C19.3903 8.34002 19.3731 8.32095 19.3558 8.30187ZM16.2729 8.34899C16.2839 8.34711 16.2949 8.34529 16.3059 8.34341C16.2961 8.26686 16.2643 8.27565 16.2729 8.34899ZM18.6441 8.24729C18.6448 8.25431 18.6454 8.26134 18.6461 8.26837C18.6821 8.28292 18.6966 8.25745 18.7161 8.23267C18.713 8.22878 18.7098 8.22483 18.7067 8.22094C18.6858 8.22972 18.6649 8.2385 18.644 8.24729H18.6441ZM15.6662 10.6998C15.6848 10.6875 15.7014 10.6765 15.7227 10.6625C15.6828 10.6577 15.6639 10.6702 15.6662 10.6998ZM17.2478 11.4256C17.2122 11.4036 17.1873 11.406 17.1729 11.433C17.1928 11.431 17.2093 11.4294 17.2478 11.4256ZM15.7973 8.02361C15.8555 8.0211 15.8781 8.00755 15.8671 7.94594C15.8403 7.97568 15.8234 7.9945 15.7973 8.02361ZM19.5811 11.0574C19.5513 11.0322 19.5326 11.0165 19.5034 10.9918C19.5054 11.0466 19.5096 11.0783 19.5811 11.0574ZM19.705 7.24021C19.71 7.24153 19.7149 7.24291 19.7198 7.24423C19.7255 7.21825 19.7541 7.19259 19.7119 7.18625C19.7096 7.20426 19.7073 7.2222 19.705 7.24021H19.705ZM17.4874 7.13261C17.4515 7.15651 17.4641 7.16429 17.4816 7.19039C17.5158 7.17565 17.4995 7.16153 17.4874 7.13261ZM19.6202 7.11579C19.6138 7.14032 19.6087 7.16034 19.5979 7.20169C19.6343 7.17715 19.6516 7.16548 19.673 7.15105C19.6528 7.13763 19.6388 7.12828 19.6202 7.11573V7.11579ZM17.4498 10.9339C17.4571 10.9395 17.4644 10.945 17.4717 10.9506C17.4814 10.9359 17.491 10.9211 17.5006 10.9063C17.4775 10.8861 17.4668 10.9211 17.4498 10.9339H17.4498ZM17.955 6.92694C17.9465 6.93164 17.938 6.93641 17.9294 6.94112C17.9408 6.95956 17.9523 6.97801 17.9637 6.99646C17.9684 6.99445 17.973 6.99244 17.9776 6.99043C17.9701 6.96929 17.9626 6.94814 17.955 6.927V6.92694ZM18.2464 6.89281C18.2386 6.88785 18.2308 6.88296 18.223 6.878C18.181 6.93629 18.21 6.95379 18.2464 6.89281ZM17.7565 11.2363C17.7541 11.2318 17.7517 11.2272 17.7492 11.2227C17.7294 11.2329 17.7096 11.2432 17.6897 11.2534C17.6926 11.2585 17.6954 11.2637 17.6982 11.269C17.7177 11.2581 17.7371 11.2472 17.7566 11.2364L17.7565 11.2363ZM17.0367 7.5425C17.0429 7.54853 17.0492 7.55455 17.0555 7.56057C17.0694 7.54602 17.0833 7.5314 17.0973 7.51684C17.0922 7.51182 17.0872 7.5068 17.0821 7.50178C17.067 7.51534 17.0518 7.52895 17.0367 7.5425ZM17.9215 7.62978C17.9188 7.63568 17.9162 7.64164 17.9136 7.64753C17.9301 7.65575 17.9466 7.66397 17.9631 7.67219C17.9658 7.66284 17.9685 7.65343 17.9711 7.64408C17.9546 7.63931 17.938 7.63455 17.9215 7.62978ZM15.3809 8.04783C15.3761 8.04915 15.3712 8.05046 15.3663 8.05178V8.10449C15.3789 8.10216 15.3914 8.09984 15.4039 8.09758C15.3963 8.08102 15.3885 8.06446 15.3809 8.04783ZM19.7012 8.37026C19.6796 8.34993 19.6703 8.35037 19.6528 8.37164C19.6629 8.37949 19.6731 8.38733 19.6832 8.39523C19.6883 8.38808 19.6935 8.38093 19.7011 8.37026H19.7012ZM15.6705 8.39536C15.6702 8.38739 15.6699 8.37936 15.6697 8.37139C15.6518 8.37472 15.6339 8.37804 15.616 8.3813C15.6155 8.41456 15.6492 8.39335 15.6705 8.39536ZM16.9346 8.48859C16.9407 8.52235 16.9439 8.53998 16.9484 8.56489C16.9926 8.53333 16.9718 8.51626 16.9346 8.48859ZM18.1736 11.6694C18.165 11.642 18.161 11.6291 18.1556 11.612C18.1423 11.6201 18.131 11.6269 18.1151 11.6365C18.1344 11.6474 18.1488 11.6554 18.1736 11.6694H18.1736ZM20.7044 8.85601C20.706 8.82671 20.7071 8.80594 20.7086 8.77702C20.679 8.80095 20.6776 8.82728 20.7044 8.85601ZM18.3886 8.80732C18.3869 8.81178 18.3852 8.81617 18.3834 8.82063C18.4029 8.84277 18.4241 8.84026 18.4499 8.83161C18.4494 8.82514 18.4489 8.81862 18.4483 8.81216C18.4284 8.81059 18.4085 8.80896 18.3886 8.80739L18.3886 8.80732ZM16.9029 8.91072C16.9121 8.91537 16.9213 8.92001 16.9304 8.92465C16.9382 8.90796 16.9459 8.89134 16.9536 8.87465C16.9459 8.87063 16.9381 8.86662 16.9304 8.8626C16.9212 8.87866 16.9121 8.89472 16.9029 8.91072ZM19.069 12.2255C19.0703 12.2312 19.0717 12.237 19.073 12.2427C19.0897 12.2385 19.1063 12.2342 19.1229 12.23C19.1217 12.225 19.1206 12.22 19.1194 12.215C19.1026 12.2185 19.0858 12.222 19.069 12.2255ZM19.507 9.72763C19.4977 9.71991 19.4881 9.71201 19.4785 9.7041C19.4631 9.72311 19.4812 9.73271 19.4932 9.74664C19.4967 9.74175 19.5003 9.73685 19.5069 9.72763H19.507ZM20.375 10.0652C20.3813 10.0584 20.3877 10.0517 20.394 10.0449C20.3712 10.0297 20.3583 10.0002 20.3387 10.038C20.3508 10.0471 20.3629 10.0561 20.375 10.0652ZM20.5861 9.68208C20.582 9.67373 20.5778 9.66539 20.5738 9.65704C20.5494 9.67292 20.5134 9.6743 20.5394 9.71019C20.5549 9.70084 20.5705 9.69149 20.5861 9.68208ZM20.4072 12.6339C20.3657 12.6548 20.3457 12.6649 20.3212 12.6772C20.3679 12.7109 20.3852 12.6923 20.4072 12.6339ZM15.8087 9.87087C15.7691 9.841 15.7469 9.8432 15.7222 9.89176C15.7557 9.88367 15.7772 9.87846 15.8087 9.87087ZM18.212 7.33501C18.2074 7.33282 18.2028 7.33062 18.1982 7.32843C18.1902 7.34461 18.1822 7.36086 18.1742 7.37705C18.1786 7.37912 18.183 7.38126 18.1874 7.38333C18.1956 7.3672 18.2038 7.35108 18.212 7.33495V7.33501Z" fill="white"/>
<path d="M18.6419 2.33235C18.6068 3.22222 18.516 4.33232 17.9471 5.10361C17.573 5.63673 16.943 5.74747 16.3564 5.51639C15.6302 5.25482 15.5132 4.3566 15.5844 3.68275C15.5965 2.71715 17.1596 -0.0622757 18.2944 0.903454C18.7123 1.29622 18.6432 1.77808 18.642 2.33235H18.6419ZM16.3984 5.0969C16.4193 5.0622 16.4353 5.03566 16.4516 5.00875C16.361 4.97267 16.2702 4.92229 16.3917 4.86237C16.3467 4.81023 16.3098 4.7675 16.2742 4.72609C16.2349 4.80119 16.1947 4.73506 16.1268 4.76186C16.1457 4.81544 16.1543 4.85277 16.2199 4.81663C16.227 4.85923 16.2331 4.89619 16.2384 4.9285C16.2 4.92392 16.1671 4.92003 16.1342 4.91614C16.134 4.92084 16.1339 4.92555 16.1338 4.93019C16.2214 4.98541 16.309 5.04062 16.3984 5.09696L16.3984 5.0969ZM17.298 4.73569C17.3165 4.77817 17.3297 4.80854 17.3478 4.85007C17.4074 4.7643 17.5127 4.70815 17.4436 4.58938C17.4213 4.59402 17.3866 4.61203 17.3735 4.60199C17.3071 4.56321 17.3373 4.70445 17.2679 4.58749C17.2536 4.62746 17.2004 4.64409 17.2529 4.69121C17.2775 4.7606 17.1328 4.76788 17.0811 4.80709C17.1263 4.84166 17.1566 4.86482 17.1825 4.88458C17.217 4.8401 17.2515 4.79567 17.298 4.73569H17.298ZM17.6132 4.25126H17.493C17.5303 4.35227 17.3803 4.3615 17.4076 4.47104C17.476 4.44419 17.5388 4.49802 17.5928 4.46295C17.6447 4.43679 17.6759 4.37568 17.6432 4.33408C17.5757 4.32598 17.6149 4.28326 17.6132 4.25132L17.6132 4.25126ZM18.0535 2.77261C18.0176 2.72348 17.9797 2.6716 17.9445 2.62335C17.9073 2.65321 17.8749 2.67925 17.8441 2.70391C17.9194 2.71188 17.8685 2.7691 17.8697 2.80643C17.9073 2.83203 17.9416 2.85543 17.9736 2.87726C17.9996 2.84332 18.022 2.81389 18.0535 2.77267V2.77261ZM17.4115 1.33537C17.4339 1.25914 17.4182 1.20085 17.3578 1.14884C17.3172 1.18423 17.2801 1.21648 17.2345 1.25613C17.2986 1.2848 17.3517 1.30864 17.4115 1.33537ZM17.0458 4.69315C17.0506 4.67659 17.0565 4.65632 17.0622 4.63662C17.0258 4.62213 16.978 4.61686 16.9724 4.59854C16.9503 4.52764 16.9005 4.56942 16.863 4.55305C16.8162 4.67207 16.9674 4.65563 17.0458 4.69315ZM17.4013 5.16968C17.4789 5.11064 17.5441 5.06101 17.6246 4.99971H17.4979C17.4583 5.03522 17.4267 5.06365 17.388 5.09828C17.3903 5.11058 17.3951 5.13643 17.4012 5.16968H17.4013ZM17.7624 2.60772C17.707 2.58338 17.6614 2.56336 17.6136 2.54228C17.5603 2.59442 17.5838 2.63997 17.6146 2.68785C17.6671 2.65936 17.7119 2.63502 17.7624 2.60766V2.60772ZM17.8488 2.33799C17.7988 2.36949 17.7616 2.39296 17.7148 2.42238C17.7224 2.44666 17.731 2.47452 17.7461 2.52359C17.7785 2.47377 17.7773 2.41937 17.8327 2.4173C17.8384 2.41711 17.8424 2.37131 17.8488 2.33793L17.8488 2.33799ZM17.829 3.16048C17.8296 3.15597 17.8303 3.15139 17.8309 3.14687C17.7643 3.13281 17.6947 3.07032 17.6456 3.14756C17.6933 3.21814 17.7631 3.16971 17.8291 3.16048H17.829ZM16.5291 4.50662C16.5462 4.42347 16.5272 4.39059 16.472 4.40799C16.4914 4.44156 16.5103 4.47406 16.5291 4.50662ZM17.0014 4.07037C16.9369 4.01096 16.9014 4.0247 16.8723 4.12747C16.9206 4.10614 16.9594 4.08894 17.0014 4.07037ZM17.8852 2.96786C17.8766 3.00425 17.8705 3.02992 17.8594 3.07653C17.9051 3.04748 17.933 3.02973 17.9758 3.00244C17.9359 2.98719 17.9171 2.98004 17.8852 2.9678V2.96786ZM17.169 3.92406C17.1552 3.8775 17.0755 3.84287 17.075 3.9132C17.0943 3.96785 17.1362 3.92155 17.169 3.92406ZM17.4706 1.51067C17.5098 1.58239 17.5425 1.58107 17.5908 1.53684C17.5516 1.5283 17.5216 1.52178 17.4706 1.51067ZM16.5194 2.3582C16.5149 2.35914 16.5104 2.36002 16.5059 2.36096C16.5139 2.39697 16.5218 2.43299 16.5332 2.48469C16.5528 2.45394 16.5623 2.4392 16.5698 2.42746C16.5519 2.40287 16.5356 2.38053 16.5194 2.35826V2.3582ZM17.9869 2.47979C17.9785 2.47753 17.9701 2.47527 17.9617 2.47302C17.9547 2.49341 17.9477 2.51374 17.9407 2.53413C17.9647 2.54021 17.9888 2.5463 18.0218 2.55471C18.0066 2.52208 17.9968 2.50094 17.9869 2.47979ZM16.0695 3.94382C16.1224 3.92638 16.1468 3.89273 16.1426 3.84287C16.1183 3.87637 16.0982 3.90417 16.0695 3.94382ZM18.1568 2.95852C18.1563 2.96743 18.1558 2.97627 18.1554 2.98518C18.2058 2.99553 18.2269 3.00413 18.2256 2.93561C18.1962 2.9454 18.1765 2.95199 18.1568 2.95852ZM16.9312 4.26506C16.8949 4.23331 16.8908 4.21474 16.8532 4.23934C16.8689 4.28677 16.8775 4.28445 16.9312 4.26506ZM16.7152 4.66166C16.7549 4.68606 16.7781 4.70031 16.8068 4.71794C16.8147 4.64152 16.7727 4.65432 16.7152 4.66166ZM17.6269 3.23948C17.6298 3.28609 17.6314 3.3115 17.6346 3.36207C17.659 3.31144 17.6894 3.28716 17.6269 3.23948ZM17.5132 3.35894C17.5532 3.38309 17.5627 3.38617 17.61 3.37876C17.578 3.35337 17.5457 3.34677 17.5132 3.35894ZM16.6082 5.25934C16.6436 5.24008 16.6699 5.22577 16.6963 5.2114C16.654 5.19503 16.6177 5.18988 16.6082 5.25934ZM17.636 3.86665C17.6018 3.80265 17.5716 3.81256 17.5411 3.82361C17.5395 3.83201 17.5379 3.84042 17.5363 3.84883C17.5636 3.85372 17.591 3.85862 17.636 3.86665H17.636ZM17.737 1.55892C17.7438 1.56137 17.7505 1.56382 17.7573 1.56626C17.7668 1.53972 17.7762 1.51325 17.7857 1.48671C17.7431 1.49775 17.7361 1.52366 17.737 1.55899V1.55892ZM17.7102 1.83035C17.699 1.79916 17.6929 1.78222 17.6844 1.75888C17.6471 1.79471 17.6292 1.81824 17.7102 1.83035ZM17.734 2.85932C17.7646 2.85643 17.7859 2.85449 17.8193 2.85135C17.7779 2.80172 17.755 2.79457 17.734 2.85932ZM16.431 4.0609C16.4105 4.04402 16.4001 4.02363 16.3779 4.05048C16.3872 4.06171 16.3965 4.07294 16.4058 4.08418C16.4132 4.07734 16.4206 4.0705 16.431 4.06084V4.0609ZM17.8008 4.39795C17.7931 4.40159 17.7854 4.40523 17.7777 4.40887C17.7838 4.43578 17.7627 4.47594 17.8336 4.48667C17.8197 4.44915 17.8103 4.42355 17.8008 4.39795ZM16.5845 4.71022C16.5936 4.71248 16.6028 4.71474 16.6119 4.71699C16.6174 4.69598 16.623 4.67496 16.6285 4.65394C16.616 4.65187 16.6035 4.64986 16.591 4.64779C16.5888 4.66862 16.5867 4.68939 16.5845 4.71022H16.5845ZM17.7485 4.69968C17.7212 4.67052 17.6965 4.66737 17.6743 4.6902C17.7019 4.69372 17.7252 4.69673 17.7485 4.69968ZM17.5352 4.96326C17.5374 4.95548 17.5396 4.9477 17.5417 4.93998C17.5102 4.91695 17.4962 4.90955 17.4516 4.91827C17.4795 4.95661 17.4944 4.96131 17.5352 4.96326ZM16.917 5.21799C16.9149 5.26379 16.9306 5.28337 16.9721 5.27703C16.9536 5.25721 16.9368 5.23914 16.917 5.21799ZM17.8956 2.94553C17.8566 2.92144 17.8288 2.92144 17.8123 2.94553H17.8956ZM18.2222 2.61387C18.2338 2.59699 18.2439 2.5825 18.2604 2.55853C18.2134 2.56111 18.1915 2.56732 18.2222 2.61387ZM17.1624 1.60372C17.163 1.61213 17.1636 1.62047 17.1642 1.62888C17.1815 1.62687 17.1986 1.6248 17.2159 1.62279C17.217 1.59086 17.1834 1.60742 17.1624 1.60372Z" fill="white"/>
<path d="M22.028 3.74754C22.0348 4.36624 21.7513 5.21564 21.2405 5.69374C20.6845 6.30912 19.4415 6.37525 19.2501 5.40895C18.9427 4.37025 19.1894 3.3005 19.5373 2.30515C19.828 1.34338 20.7206 0.781644 21.4786 1.68162C21.9219 2.29072 21.9984 2.91883 22.028 3.7476V3.74754ZM20.1021 4.08371C20.0433 4.12299 20.0595 4.19319 20.1418 4.18247C20.125 4.14074 20.1135 4.11207 20.1021 4.08346C20.1297 4.09256 20.1573 4.10159 20.1962 4.11433C20.1648 4.07936 20.1334 4.06915 20.1021 4.08371ZM20.0091 3.76818C20.0008 3.8158 19.997 3.83745 19.9938 3.85595C20.0424 3.89134 20.0896 3.89285 20.1358 3.8594C20.1237 3.83782 20.1029 3.81705 20.1071 3.80526C20.1258 3.75318 20.0669 3.75212 20.0638 3.75707C20.003 3.8461 19.9429 3.64778 19.8366 3.69245C19.8164 3.6964 19.7923 3.68078 19.7666 3.67306C19.7545 3.71215 19.7442 3.74572 19.7325 3.78393C19.7797 3.78004 19.7956 3.85275 19.8504 3.8345C19.8961 3.81925 19.9398 3.79754 20.0091 3.76818H20.0091ZM20.5309 4.10711C20.5438 4.15894 20.4681 4.16929 20.5165 4.22657C20.5277 4.23981 20.4929 4.29189 20.4762 4.33361C20.5718 4.33687 20.5971 4.27118 20.6293 4.21936C20.599 4.18485 20.5724 4.15442 20.5309 4.10711ZM19.8771 4.46462C19.8798 4.34955 19.8295 4.27739 19.7421 4.2203C19.7378 4.26848 19.7342 4.31015 19.7316 4.33989C19.7798 4.38117 19.8227 4.41794 19.8771 4.46462ZM21.035 2.30616C21.0536 2.17132 20.9391 2.20069 20.8552 2.15564C20.8514 2.16298 20.8476 2.17032 20.8437 2.17766C20.8997 2.21524 20.9556 2.25283 21.035 2.30616H21.035ZM19.8163 3.32045C19.8618 3.30439 19.8939 3.29303 19.9259 3.28161C19.9478 3.29598 19.9696 3.31035 19.9923 3.32522C20.0613 3.18856 19.8003 3.23092 19.8163 3.32045ZM21.1409 2.14522C21.1704 2.15714 21.1967 2.16781 21.216 2.17565C21.2794 2.14171 21.291 2.11918 21.3138 2.04509C21.245 2.08493 21.1947 2.11404 21.1408 2.14522H21.1409ZM20.5913 5.20435C20.535 5.21997 20.4778 5.30091 20.535 5.37181C20.5834 5.32036 20.6029 5.26948 20.5913 5.20435ZM21.2137 1.98077C21.1885 1.93648 21.1671 1.89896 21.1324 1.83829C21.1098 1.8898 21.0965 1.91998 21.0882 1.9388C21.1351 1.95449 21.1693 1.9659 21.2137 1.98077ZM20.8927 5.52672C20.9925 5.53425 21.0103 5.51825 21.0156 5.41924C20.9722 5.4572 20.9379 5.48719 20.8927 5.52672ZM20.8141 1.82028C20.8159 1.76452 20.7985 1.73457 20.7617 1.73043C20.7598 1.77448 20.7772 1.80443 20.8141 1.82028ZM21.2277 2.52513V2.43842C21.1567 2.44457 21.1409 2.50147 21.2277 2.52513ZM20.0166 4.06871C19.9943 4.03226 19.9724 3.99625 19.9475 3.95521C19.9204 4.05353 19.9308 4.06871 20.0166 4.06871ZM21.5692 4.2762C21.5731 4.31422 21.5783 4.34572 21.6233 4.35237C21.6557 4.31084 21.6324 4.24979 21.5692 4.2762ZM20.2235 5.26929C20.2497 5.28955 20.2685 5.30405 20.2874 5.3186C20.2924 5.31478 20.2975 5.31095 20.3025 5.30718C20.2967 5.28409 20.2909 5.26107 20.283 5.2302C20.2596 5.24557 20.2459 5.25461 20.2235 5.26935V5.26929ZM20.6373 1.54183C20.6719 1.57508 20.7097 1.58642 20.7507 1.57584C20.7065 1.54679 20.6989 1.53568 20.6373 1.54183ZM19.9995 3.59476H20.1198C20.0833 3.58886 20.0509 3.52831 19.9995 3.59476ZM21.0847 2.36463C21.0765 2.35742 21.0682 2.3502 21.06 2.34305C21.0405 2.38007 21.0102 2.39029 21.0406 2.43754C21.0593 2.40661 21.0719 2.38565 21.0846 2.36463H21.0847ZM20.5835 5.52628C20.5971 5.55577 20.607 5.57723 20.6208 5.60722C20.6342 5.57459 20.643 5.55313 20.6541 5.52628H20.5835ZM21.0675 2.08141C21.0738 2.07727 21.0799 2.07319 21.0861 2.06905C21.0804 2.0523 21.0746 2.03549 21.0689 2.01873C21.0523 2.02482 21.0357 2.03091 21.0064 2.04163C21.0354 2.06046 21.0515 2.07094 21.0676 2.08141H21.0675ZM20.529 4.95997C20.5322 4.99607 20.5517 5.01246 20.5876 5.00916C20.5655 4.99059 20.5484 4.97622 20.529 4.95997ZM19.7601 5.56976C19.7625 5.50394 19.7577 5.47232 19.6885 5.48719C19.7123 5.51461 19.7288 5.53362 19.7601 5.56976ZM19.8123 2.77057C19.7854 2.79383 19.7854 2.81795 19.8123 2.84292V2.77057ZM19.6579 3.9015C19.6216 3.91652 19.6195 3.93716 19.6515 3.96343C19.6539 3.94059 19.6558 3.92215 19.6579 3.9015ZM20.3507 3.90935C20.3227 3.94699 20.3276 3.96306 20.3633 3.97849C20.4049 3.95998 20.3808 3.93733 20.3507 3.90935ZM20.7846 2.01509C20.7828 2.02193 20.7808 2.02871 20.7789 2.03555C20.797 2.04 20.8151 2.04452 20.8332 2.04898C20.8472 2.01748 20.804 2.02538 20.7846 2.01509Z" fill="white"/>
<path d="M24.5823 5.64823C24.5679 6.5253 24.3748 7.43877 23.8097 8.13414C23.4148 8.64103 22.7703 8.66425 22.2425 8.36409C21.7033 8.03099 21.6621 7.25983 21.7741 6.69245C21.9551 5.71505 22.5465 4.46196 23.5433 4.11154C24.3733 3.94647 24.6161 5.01829 24.5822 5.64823H24.5823ZM22.1018 7.22607C22.061 7.30531 22.0635 7.3136 22.14 7.34145C22.1262 7.30155 22.1129 7.2629 22.0996 7.22425C22.1326 7.20618 22.161 7.18485 22.1647 7.13346C22.1046 7.14658 22.0915 7.17857 22.1018 7.22601V7.22607ZM22.2533 7.46568C22.2155 7.45552 22.1777 7.44529 22.1317 7.43293C22.1336 7.52554 22.1893 7.52843 22.247 7.54449C22.2485 7.51142 22.2496 7.48727 22.2506 7.46305C22.282 7.44818 22.3253 7.46085 22.3328 7.418C22.3076 7.41298 22.2837 7.40821 22.2533 7.40213V7.46562V7.46568ZM22.3177 6.52342C22.436 6.57957 22.4751 6.48571 22.531 6.43677C22.5478 6.44668 22.5635 6.45591 22.5828 6.46733C22.5969 6.4187 22.6085 6.37905 22.6201 6.33914C22.6551 6.34278 22.6815 6.34548 22.7084 6.34824C22.7062 6.30037 22.7043 6.25865 22.7025 6.21692C22.6733 6.31009 22.5762 6.30746 22.5224 6.38181C22.4728 6.40791 22.4448 6.32829 22.4145 6.3015C22.4472 6.28632 22.466 6.27753 22.4994 6.26203C22.4107 6.25112 22.3424 6.24271 22.2764 6.23455C22.2855 6.26097 22.2963 6.29259 22.3071 6.32409C22.3674 6.3033 22.4027 6.35661 22.4128 6.48402C22.3834 6.49619 22.3539 6.50842 22.3176 6.52342H22.3177ZM23.874 4.65012C24.0151 4.60589 24.0534 4.50788 23.8907 4.44276C23.899 4.47168 23.9051 4.49308 23.9132 4.52119C23.8534 4.52043 23.7907 4.44244 23.7497 4.53587C23.7876 4.57069 23.8258 4.60583 23.874 4.65012ZM23.4924 5.53843C23.44 5.51038 23.3947 5.47995 23.3665 5.55505C23.4 5.57921 23.4337 5.60355 23.4675 5.6279C23.4677 5.62156 23.468 5.61522 23.4682 5.60895C23.4993 5.60355 23.5303 5.59822 23.5515 5.59458C23.5735 5.55631 23.5948 5.51929 23.6143 5.4851C23.5771 5.47468 23.5352 5.46301 23.487 5.44946C23.4887 5.47794 23.4899 5.49783 23.4924 5.53849V5.53843ZM22.0231 6.82458C22.0756 6.81661 22.1127 6.81103 22.1522 6.80507C22.1685 6.7624 22.1636 6.72589 22.1196 6.68975C22.0867 6.73574 22.0585 6.77527 22.0231 6.82464V6.82458ZM23.9783 4.86903C24.008 4.90247 24.0342 4.93196 24.065 4.96672C24.0833 4.9558 24.1084 4.94087 24.141 4.92148C24.0995 4.88904 24.0666 4.86345 24.0345 4.83841C24.0118 4.85083 23.9912 4.862 23.9783 4.86903ZM24.1669 5.28382C24.2272 5.31601 24.2746 5.34129 24.3232 5.3672C24.3186 5.32931 24.2752 5.28599 24.1932 5.23726C24.1852 5.25144 24.1772 5.2655 24.1668 5.28382H24.1669ZM23.6605 6.06138C23.6448 6.14307 23.7073 6.12883 23.7432 6.14496C23.7786 6.16096 23.7908 6.14339 23.7953 6.11164C23.7535 6.09602 23.7116 6.0804 23.6605 6.06138ZM23.3804 5.80929C23.4401 5.84015 23.4574 5.8219 23.4749 5.68888C23.4355 5.73914 23.4101 5.77151 23.3804 5.80929ZM22.7799 5.6599C22.8387 5.67012 22.8519 5.62062 22.897 5.5831C22.8138 5.56472 22.8003 5.61742 22.7799 5.6599ZM22.6999 6.77583C22.6492 6.75977 22.6149 6.71761 22.576 6.78085C22.6142 6.81141 22.6488 6.81724 22.6999 6.77583ZM23.6426 4.94702C23.5942 4.90134 23.5634 4.85974 23.52 4.9398C23.5613 4.94225 23.5929 4.94407 23.6426 4.94702ZM22.2249 6.90891C22.238 6.94335 22.2511 6.97786 22.2708 7.02944C22.3175 6.95126 22.2754 6.92842 22.2249 6.90891ZM23.2289 5.74774C23.2528 5.70892 23.2442 5.67439 23.2032 5.64415C23.2133 5.6848 23.2199 5.71153 23.2289 5.74774ZM23.8531 6.22546C23.881 6.19195 23.874 6.15991 23.8321 6.12933C23.8385 6.15845 23.8444 6.18574 23.8531 6.22546ZM23.973 5.37912C23.9748 5.36909 23.9766 5.35905 23.9784 5.34901C23.937 5.34656 23.8957 5.34405 23.8544 5.3416C23.8536 5.3497 23.8528 5.35773 23.852 5.36582C23.8923 5.37028 23.9327 5.37467 23.973 5.37912ZM23.1135 4.76877C23.153 4.77473 23.1723 4.77768 23.1952 4.78113C23.1936 4.75478 23.1927 4.73853 23.1909 4.70828C23.1636 4.72962 23.1469 4.74273 23.1135 4.76877ZM24.2366 4.90636C24.2248 4.87888 24.2158 4.85805 24.2035 4.82956C24.1856 4.86834 24.1966 4.89394 24.2366 4.90636ZM22.5948 6.61841C22.6422 6.59273 22.6537 6.56642 22.6292 6.53948C22.6204 6.55956 22.6127 6.57738 22.5948 6.61841ZM22.9576 5.95742C22.9577 5.94945 22.9578 5.94148 22.9579 5.93345H22.8845C22.8843 5.94017 22.884 5.94688 22.8837 5.95366C22.9083 5.95491 22.933 5.95617 22.9576 5.95742ZM22.2438 6.47191C22.273 6.44468 22.2795 6.43514 22.2532 6.40741C22.2215 6.43006 22.2064 6.43439 22.2438 6.47191ZM23.7232 7.21534C23.7455 7.22293 23.7634 7.22902 23.7917 7.23868C23.7843 7.1745 23.766 7.16897 23.7232 7.21534ZM23.3469 5.68029C23.3361 5.72421 23.3341 5.73086 23.3669 5.75056C23.3893 5.71624 23.3801 5.71247 23.3469 5.68029ZM22.5696 5.65613C22.6039 5.67081 22.6178 5.67671 22.6316 5.68261C22.6329 5.66918 22.6341 5.65582 22.6353 5.64239C22.6206 5.64547 22.606 5.64854 22.5696 5.65613ZM23.8987 5.11385C23.8949 5.10701 23.891 5.10011 23.8872 5.09327C23.8674 5.10657 23.8276 5.09227 23.8305 5.15011C23.8574 5.13581 23.8781 5.12483 23.8987 5.11385Z" fill="white"/>
<path d="M15.0671 5.88905C15.2287 8.32502 12.8555 7.71297 12.6637 5.82242C12.6073 4.86522 12.7629 3.69432 13.5725 3.07782C13.8947 2.83074 14.3376 3.05385 14.4343 3.42528C14.8071 4.13339 15.0092 5.14976 15.0671 5.88905ZM14.2693 6.24379C14.289 6.18578 14.2953 6.14343 14.2881 6.11674C14.2491 6.15878 14.2432 6.20075 14.2704 6.24266C14.2676 6.28878 14.2648 6.3349 14.2618 6.38227C14.3064 6.39063 14.3448 6.38323 14.3771 6.36006C14.314 6.34406 14.3265 6.26425 14.2693 6.24379ZM13.6751 6.12402C13.5948 6.09654 13.5571 6.18268 13.4873 6.18344C13.4877 6.19122 13.4882 6.19893 13.4885 6.20671C13.54 6.21606 13.5914 6.22541 13.6579 6.23746C13.659 6.23903 13.6727 6.25716 13.6871 6.27629C13.7023 6.26456 13.7106 6.25822 13.7243 6.24768C13.651 6.22579 13.6842 6.16587 13.6733 6.12126C13.7276 6.14943 13.7576 6.09691 13.7064 6.04923C13.6938 6.07941 13.6845 6.10168 13.6752 6.12402H13.6751ZM14.5528 5.96685C14.5227 5.97099 14.4927 5.97513 14.4585 5.97984C14.4639 6.06115 14.4687 6.13374 14.4737 6.20659C14.4166 6.22236 14.3909 6.25241 14.3965 6.29675C14.4623 6.29775 14.4568 6.24273 14.4705 6.20276C14.5052 6.21349 14.54 6.22416 14.5744 6.23476C14.6019 6.17352 14.4865 6.16794 14.5337 6.10375C14.5482 6.10582 14.5637 6.10808 14.5853 6.11116C14.5833 6.05801 14.5075 6.02338 14.551 5.96428C14.5521 5.94307 14.5532 5.92193 14.5548 5.89212C14.5151 5.88472 14.4768 5.8775 14.4388 5.87041C14.4449 5.84375 14.4494 5.82355 14.4564 5.79293C14.4001 5.83308 14.3558 5.86452 14.3117 5.89601C14.313 5.90317 14.3144 5.91038 14.3158 5.91753C14.3959 5.93667 14.5145 5.87067 14.5527 5.96685H14.5528ZM13.6293 6.5341C13.5399 6.4159 13.4728 6.58787 13.4094 6.64114C13.4685 6.67816 13.5561 6.67038 13.5967 6.73739C13.6827 6.72352 13.6354 6.65833 13.6522 6.6183C13.6731 6.63211 13.6941 6.64585 13.7159 6.66021C13.7499 6.56616 13.6743 6.58386 13.6293 6.5341ZM14.4559 4.52296C14.3979 4.48488 14.3475 4.45187 14.2943 4.41693C14.2347 4.46894 14.1778 4.48036 14.1383 4.38944C14.1376 4.38794 14.1326 4.38825 14.1202 4.38599C14.1336 4.45288 14.1322 4.50571 14.2168 4.49504C14.2151 4.51135 14.2133 4.52767 14.2103 4.55665C14.2669 4.5596 14.3202 4.5623 14.374 4.56512C14.3974 4.61814 14.4238 4.67806 14.4504 4.73829H14.5383C14.5388 4.73346 14.5393 4.72863 14.5398 4.7238C14.5116 4.71796 14.4833 4.71219 14.4643 4.7083C14.4613 4.64205 14.4584 4.57767 14.4559 4.52302V4.52296ZM14.672 5.4156C14.5884 5.49572 14.514 5.56699 14.4235 5.6537C14.5262 5.6394 14.5655 5.63042 14.6609 5.60376C14.6919 5.56367 14.6788 5.51925 14.7363 5.47689C14.7119 5.45362 14.6889 5.43172 14.672 5.4156H14.672ZM14.5703 4.88843C14.5038 4.85349 14.4359 4.81785 14.3602 4.77801C14.348 4.78679 14.3265 4.80241 14.3031 4.81935C14.3403 4.84 14.3711 4.857 14.405 4.8757C14.3795 4.89935 14.3651 4.91272 14.3485 4.92809C14.4643 4.98499 14.496 4.9779 14.5702 4.88837L14.5703 4.88843ZM14.4301 6.76449C14.3368 6.72277 14.2589 6.68795 14.1757 6.65074C14.1706 6.68224 14.1667 6.70696 14.1616 6.73845C14.2066 6.73199 14.2403 6.72716 14.2771 6.72189C14.2818 6.75107 14.2854 6.77328 14.2898 6.80069C14.3214 6.79053 14.3458 6.78275 14.3737 6.77384C14.3656 6.81023 14.3591 6.83941 14.3511 6.87567C14.4171 6.84091 14.4875 6.7126 14.4633 6.67082H14.4089C14.4156 6.69993 14.4205 6.72195 14.4302 6.76443L14.4301 6.76449ZM13.3272 6.20565C13.2154 6.21123 13.2496 6.11065 13.1832 6.06115C13.1657 6.12427 13.1501 6.1803 13.1347 6.23589C13.2581 6.29631 13.272 6.28633 13.3272 6.20565ZM14.0771 5.86652C14.0443 5.89005 14.0137 5.91214 13.9831 5.93416C14.074 5.9351 14.162 5.90354 14.2125 6.01529C14.2329 5.99132 14.2455 5.97645 14.26 5.95945C14.1689 5.85366 14.1835 5.97375 14.0771 5.86652ZM14.1801 6.16424C14.1312 6.1227 14.0768 6.11616 14.0168 6.1446C14.0411 6.17484 14.0649 6.20439 14.0923 6.23834C14.1217 6.21355 14.1472 6.19197 14.1801 6.16424ZM14.0182 3.29114H13.8765C13.8968 3.37854 13.9523 3.31454 14.0092 3.35162C13.9779 3.36411 13.9465 3.37666 13.9151 3.38914C13.9213 3.39787 13.9275 3.40659 13.9338 3.41531C13.9659 3.40721 13.9981 3.39912 14.0336 3.39015C14.0282 3.35514 14.024 3.32835 14.0181 3.29114H14.0182ZM13.5936 6.82372C13.5934 6.83131 13.5933 6.83884 13.5932 6.84643C13.6616 6.82454 13.6993 6.84261 13.7661 6.87937C13.7313 6.81945 13.7487 6.78262 13.7955 6.74918C13.7282 6.77403 13.6609 6.79894 13.5936 6.82378L13.5936 6.82372ZM14.0786 5.63613C14.0831 5.66362 14.0868 5.68639 14.0909 5.7118C14.1219 5.70766 14.1577 5.70283 14.1973 5.69756C14.2001 5.66431 14.2028 5.63243 14.2051 5.60495C14.1559 5.61706 14.1131 5.6276 14.0786 5.63613ZM13.9976 4.19112C14.1063 4.13295 14.0398 4.04606 14.0909 3.98124C13.9895 4.00414 14.0307 4.09732 13.9976 4.19112ZM13.2032 5.13432C13.1687 5.11355 13.1382 5.0953 13.0965 5.0702C13.0926 5.12328 13.0895 5.16557 13.085 5.22699C13.1342 5.18841 13.1655 5.16381 13.2032 5.13432H13.2032ZM14.7753 5.87575C14.7089 5.89476 14.6652 5.90724 14.6114 5.92268C14.6499 5.94476 14.6768 5.9602 14.7086 5.97852C14.7287 5.94759 14.7471 5.91923 14.7753 5.87575ZM13.8453 7.09063C13.8657 7.03861 13.8781 7.00718 13.8959 6.96226C13.8443 6.97964 13.8138 6.98993 13.7662 7.00599C13.7944 7.03617 13.8142 7.05737 13.8453 7.09063ZM14.2485 6.9792C14.2556 6.98152 14.2627 6.98384 14.2697 6.98622C14.3029 6.92022 14.3515 6.89293 14.2485 6.85428V6.9792ZM13.6024 4.79852V4.69331C13.5676 4.71006 13.5439 4.72141 13.5114 4.7371C13.5441 4.75919 13.5678 4.77518 13.6024 4.79852ZM14.6866 6.04446C14.7405 6.09503 14.7862 6.03988 14.7562 5.99916C14.7349 6.01309 14.7141 6.02652 14.6866 6.04446ZM13.4427 6.03072C13.403 6.04377 13.3809 6.05105 13.3442 6.0631C13.3733 6.08242 13.387 6.09158 13.4058 6.10407C13.4166 6.08267 13.425 6.06586 13.4427 6.03072ZM13.9991 7.08021C13.9801 7.05857 13.961 7.03686 13.9326 7.00461C13.9287 7.0612 13.943 7.08605 13.9991 7.08021ZM13.7057 6.99501C13.7224 6.96615 13.7334 6.9472 13.7472 6.92336C13.7293 6.91896 13.717 6.91589 13.6956 6.91062C13.6992 6.94011 13.7018 6.96219 13.7057 6.99501ZM14.1496 7.03962C14.1552 7.03905 14.1608 7.03849 14.1664 7.03799C14.1655 7.02136 14.1645 7.00473 14.1635 6.98804C14.1567 6.98892 14.1498 6.9898 14.1429 6.99068C14.1451 7.00699 14.1473 7.0233 14.1495 7.03962H14.1496ZM13.7896 5.99257C13.7523 6.01296 13.7684 6.02081 13.7847 6.04597C13.7946 6.03907 13.8044 6.03216 13.8144 6.0252C13.8068 6.01529 13.7993 6.00537 13.7896 5.99257ZM14.5821 5.02176C14.5799 5.01574 14.5777 5.00972 14.5754 5.00369C14.5566 5.01191 14.5378 5.02013 14.519 5.02841C14.5204 5.03224 14.5218 5.03613 14.5232 5.03996C14.5429 5.03387 14.5625 5.02778 14.5822 5.02176H14.5821ZM13.8099 3.46751C13.7807 3.4362 13.7753 3.44781 13.7587 3.47403C13.7707 3.50415 13.7888 3.48489 13.8099 3.46751Z" fill="white"/>
<path d="M8.08243 16.7759C9.99507 17.4345 13.3053 20.7377 11.6139 22.8026C10.1753 24.3138 8.50952 21.904 7.60277 22.434C6.82727 22.9533 6.22702 23.7974 5.27202 24.0041C3.9607 24.3222 3.46347 22.8171 3.50977 21.7478C3.54547 19.2447 5.06465 15.9596 8.0825 16.7758L8.08243 16.7759ZM7.20235 17.9808C7.14048 17.9097 7.14695 17.9983 7.10591 18.0358C7.14209 18.0304 7.15353 18.0123 7.14023 17.9815C7.16037 17.9809 7.18139 17.9809 7.20235 17.9809V17.9808ZM4.73425 21.6418C4.70037 21.674 4.72365 21.7077 4.72346 21.7377C4.74751 21.7707 4.74222 21.8095 4.70759 21.8541C4.73839 21.8446 4.76518 21.8412 4.76575 21.8353C4.76274 21.7954 4.7852 21.7321 4.72346 21.7379C4.72302 21.7077 4.7746 21.6856 4.73425 21.6419V21.6418ZM4.7362 20.6407C4.74619 20.602 4.73601 20.5776 4.70564 20.5677C4.71599 20.5459 4.72672 20.5238 4.7399 20.4965C4.78834 20.5216 4.8182 20.5067 4.82786 20.4548C4.75697 20.4 4.73752 20.4036 4.65168 20.4908C4.67032 20.515 4.68958 20.54 4.70878 20.5649C4.70759 20.594 4.69165 20.6284 4.7362 20.6407ZM4.6631 21.935C4.62489 21.9272 4.57746 21.8915 4.54188 21.9634C4.58028 22.0067 4.62514 22.0181 4.67954 21.9968C4.67992 22.0221 4.67992 22.0478 4.67992 22.0835C4.782 21.9904 4.84411 21.9638 4.98146 21.9976C5.00273 22.0173 5.01703 22.0937 5.08435 22.0317C5.07796 22.0118 5.07137 21.9911 5.06327 21.9656C4.93584 21.979 4.80195 21.9179 4.67835 21.9985C4.67371 21.979 4.669 21.9594 4.66317 21.935H4.6631ZM5.932 23.184C5.93345 23.1765 5.93489 23.169 5.9364 23.1614C5.88783 23.1515 5.83927 23.1416 5.7801 23.1295C5.76147 23.1428 5.73117 23.1643 5.70055 23.1862C5.7141 23.1981 5.76774 23.2016 5.74158 23.2413C5.69358 23.3272 5.576 23.4068 5.558 23.2596V23.3706C5.60336 23.3752 5.64922 23.3799 5.69145 23.3843C5.74622 23.3138 5.80087 23.2436 5.85897 23.1689C5.88915 23.1751 5.91061 23.1796 5.932 23.184V23.184ZM7.07699 17.6061C7.03533 17.6322 7.02612 17.6756 7.04938 17.7361C7.10817 17.7379 7.07642 17.7 7.07517 17.6692C7.14519 17.7193 7.12197 17.7593 7.0608 17.7981C7.09782 17.8422 7.13914 17.8486 7.18478 17.8173C7.16602 17.8056 7.14908 17.7952 7.13245 17.7848C7.14946 17.718 7.20944 17.7662 7.24677 17.7467C7.18861 17.6985 7.13484 17.654 7.07699 17.6061ZM10.0153 21.834C9.99865 21.8473 9.97926 21.8627 9.94136 21.8931C10.0315 21.8979 10.1003 21.9016 10.1842 21.9061C10.1024 21.8112 10.0348 21.7329 9.95818 21.644C9.93628 21.7267 10.002 21.7678 10.0153 21.834H10.0153ZM4.53724 22.467C4.48862 22.5044 4.54176 22.5599 4.58373 22.5641C4.62288 22.5657 4.65727 22.5383 4.70156 22.5745C4.72861 22.5966 4.76763 22.5431 4.77102 22.4604C4.6535 22.5427 4.63813 22.426 4.53718 22.467H4.53724ZM6.85758 21.4137C6.75041 21.3867 6.81058 21.5078 6.81454 21.5673C6.83512 21.5852 6.86159 21.6083 6.90413 21.6453C6.92446 21.6256 6.94592 21.6048 6.97396 21.5776C6.91806 21.5244 6.87841 21.4867 6.8338 21.4442C6.83869 21.4379 6.84817 21.4258 6.85764 21.4137H6.85758ZM5.186 18.8224C5.25915 18.9995 5.14289 18.8895 5.07212 18.9447C5.08724 18.9654 5.10299 18.987 5.12068 19.0112C5.15205 19.0067 5.18236 19.0023 5.21844 18.9971C5.23462 18.9361 5.25112 18.874 5.27189 18.7957C5.23192 18.8081 5.21298 18.814 5.186 18.8224ZM7.55948 19.9806C7.58821 20.0248 7.61707 20.0692 7.65064 20.1208C7.66306 20.1164 7.6881 20.1077 7.71821 20.0972C7.71483 20.0632 7.71112 20.0266 7.70648 19.9806H7.55948ZM7.33429 19.5783C7.33712 19.5356 7.37978 19.454 7.31717 19.4432C7.30066 19.5102 7.19814 19.4851 7.1957 19.5783H7.33429ZM4.30221 20.2439C4.34161 20.2865 4.37229 20.3227 4.44037 20.3118C4.42211 20.2794 4.40774 20.2537 4.39155 20.225C4.40624 20.205 4.42236 20.1831 4.43855 20.1612C4.33891 20.0529 4.39896 20.2523 4.30227 20.2439H4.30221ZM5.26587 22.3301C5.23462 22.3789 5.20476 22.4257 5.17326 22.475C5.18976 22.4842 5.21015 22.4957 5.24083 22.5129C5.27428 22.4523 5.3059 22.395 5.33946 22.3341C5.31412 22.3328 5.28946 22.3314 5.26593 22.3301H5.26587ZM9.18124 18.7621C9.24731 18.6924 9.26525 18.6973 9.35397 18.7414C9.34186 18.7022 9.33377 18.6761 9.32768 18.6562C9.27905 18.6513 9.23777 18.647 9.1813 18.6412V18.762L9.18124 18.7621ZM4.10495 20.6238C4.10796 20.5959 4.11085 20.5684 4.11379 20.541C4.05638 20.5458 3.97476 20.513 3.95336 20.5857C4.00431 20.5986 4.04766 20.6095 4.10495 20.6239V20.6238ZM4.92279 23.7245C4.95485 23.7189 4.98365 23.7138 5.01553 23.7081C4.93691 23.6438 4.8896 23.5008 4.78269 23.6247C4.8603 23.6166 4.91476 23.6372 4.92279 23.7245ZM4.62295 21.2543L4.60682 21.2488C4.58417 21.317 4.49577 21.3843 4.53793 21.4561C4.56108 21.4322 4.59214 21.4259 4.62295 21.415V21.2543ZM7.0064 21.8673C6.98582 21.9635 7.07128 21.9892 7.10598 22.0509C7.17995 21.9742 7.00289 21.958 7.09336 21.895C7.05591 21.8831 7.03307 21.8758 7.00647 21.8673H7.0064ZM9.5154 20.6759C9.51133 20.6949 9.50794 20.7108 9.50499 20.7246C9.46157 20.7666 9.38936 20.66 9.37932 20.7444C9.47293 20.7986 9.49602 20.7957 9.58279 20.7185C9.56027 20.6984 9.54652 20.687 9.5154 20.6759ZM5.75639 23.4401C5.82967 23.4556 5.88055 23.427 5.9096 23.3542C5.82524 23.3612 5.77416 23.3898 5.75639 23.4401ZM6.11396 18.809C6.11885 18.817 6.12374 18.8251 6.12864 18.8332C6.19333 18.7828 6.23894 18.7906 6.29384 18.8491C6.28531 18.7322 6.17344 18.7295 6.11396 18.809ZM7.3939 22.1971C7.41335 22.1717 7.43154 22.148 7.45859 22.1127C7.35682 22.1371 7.35136 22.0561 7.31666 22.0071C7.30616 22.0505 7.33191 22.1138 7.3939 22.1971ZM9.0577 22.2497C9.10225 22.1557 8.9959 22.1282 8.92945 22.1231C8.92494 22.1299 8.92042 22.1367 8.9159 22.1436C8.96271 22.1786 9.00951 22.2136 9.0577 22.2497ZM9.64836 21.2731C9.66756 21.3067 9.68493 21.3372 9.7084 21.3784C9.80753 21.3183 9.75031 21.1988 9.64836 21.2731ZM4.41427 21.6759C4.49182 21.6554 4.47889 21.6146 4.48573 21.5513C4.44972 21.5429 4.41113 21.5339 4.37185 21.5247C4.33923 21.5904 4.41364 21.5675 4.43453 21.594C4.42907 21.6161 4.42336 21.6391 4.41427 21.6759ZM4.02451 20.3141C4.08154 20.3511 4.11147 20.3072 4.16123 20.2868C4.11869 20.253 4.08663 20.2274 4.04904 20.1975C4.03976 20.2416 4.03204 20.2783 4.02451 20.3141ZM10.996 19.8763C11.0164 19.8357 11.0968 19.836 11.0681 19.7566C11.0178 19.7927 10.97 19.827 10.9222 19.8613C10.9252 19.8679 10.9282 19.8746 10.9312 19.8812C10.9536 19.88 10.991 19.8862 10.996 19.8763ZM7.40381 19.9039C7.41969 19.8326 7.36949 19.8339 7.33793 19.8182C7.29841 19.7987 7.2819 19.8253 7.25605 19.8628C7.31403 19.879 7.35814 19.8912 7.40381 19.9039V19.9039ZM9.23401 21.7384C9.20998 21.679 9.1914 21.6331 9.16938 21.5786C9.15288 21.5977 9.135 21.6185 9.11134 21.646C9.16223 21.663 9.16505 21.7312 9.23401 21.7384ZM5.66736 19.2051C5.72652 19.2576 5.74083 19.1531 5.77258 19.0959C5.68116 19.0897 5.68273 19.137 5.66736 19.2051ZM6.75863 21.4662C6.75556 21.4562 6.75405 21.4449 6.75173 21.4448C6.70436 21.4412 6.6814 21.3513 6.61075 21.4117C6.64482 21.4422 6.67757 21.4715 6.71139 21.5018C6.72758 21.4896 6.74364 21.4775 6.75863 21.4663V21.4662ZM8.20434 17.4983C8.26332 17.5311 8.3095 17.5569 8.36986 17.5905C8.35135 17.4998 8.2802 17.4483 8.20434 17.4983ZM7.1583 19.8837C7.1312 19.8706 7.10365 19.8574 7.07649 19.8443C7.06615 19.8892 7.08954 19.9223 7.14663 19.9434C7.15165 19.9175 7.15498 19.9008 7.1583 19.8837ZM4.55443 21.1039C4.51428 21.0847 4.48247 21.0694 4.4462 21.052C4.45768 21.1045 4.46659 21.1455 4.4787 21.2007C4.507 21.1646 4.52589 21.1404 4.5545 21.1039H4.55443ZM9.64346 21.5526C9.63499 21.478 9.56246 21.4414 9.52168 21.5171C9.55142 21.5526 9.59145 21.5452 9.64346 21.5526ZM4.26582 23.0737C4.25816 23.1039 4.25051 23.1341 4.23683 23.1882C4.32768 23.1534 4.33622 23.1293 4.26582 23.0737ZM9.85415 18.671C9.85622 18.7041 9.85804 18.7328 9.86118 18.7829C9.90253 18.7379 9.92053 18.6831 9.99294 18.7323C9.98867 18.7197 9.98447 18.707 9.9802 18.6944C9.9418 18.6873 9.90347 18.6801 9.85415 18.671V18.671ZM7.76809 17.9453C7.72631 17.92 7.68998 17.8981 7.63847 17.8669C7.66687 17.9419 7.71008 17.968 7.76809 17.9453ZM11.3398 21.3671C11.351 21.4059 11.3684 21.4416 11.4276 21.4084C11.4228 21.3488 11.3426 21.2737 11.3398 21.3671ZM11.6473 20.9998C11.6111 20.9871 11.5819 20.9768 11.5521 20.9663C11.5577 21.0122 11.5964 21.0366 11.6302 21.095C11.6368 21.0579 11.6418 21.0303 11.6473 20.9997V20.9998ZM7.43154 21.3255C7.51869 21.3924 7.52208 21.3928 7.55992 21.3339C7.51738 21.3392 7.47935 21.2864 7.43154 21.3255ZM9.41916 20.9746C9.43754 20.9917 9.45454 21.0076 9.47161 21.0235C9.48771 20.9864 9.48493 20.9512 9.46327 20.9177C9.44538 20.9408 9.4329 20.9569 9.41916 20.9746ZM8.04435 19.8746C7.9641 19.8517 7.95325 19.9428 8.02534 19.9741C8.03224 19.9382 8.03732 19.9115 8.04435 19.8746ZM7.86823 17.9119C7.87683 17.9153 7.88542 17.9187 7.89396 17.922C7.9151 17.8885 7.93618 17.855 7.97138 17.7991C7.87237 17.8095 7.88693 17.8408 7.86823 17.9119V17.9119ZM4.02715 22.463C4.0646 22.4721 4.09196 22.4787 4.11938 22.4853C4.12339 22.4797 4.12735 22.474 4.13136 22.4683C4.11317 22.4459 4.09497 22.4235 4.07257 22.3958C4.05651 22.4196 4.04547 22.436 4.02721 22.4631L4.02715 22.463ZM9.06736 18.5958C9.10112 18.5616 9.15928 18.5395 9.13494 18.4803C9.12565 18.4789 9.11636 18.4776 9.10702 18.4762C9.09378 18.516 9.08054 18.5559 9.06736 18.5958ZM9.32115 20.2615C9.29744 20.2304 9.27949 20.2069 9.25584 20.1758C9.23909 20.1953 9.22315 20.2139 9.19711 20.2442C9.24869 20.2514 9.27918 20.2557 9.32115 20.2615ZM5.11805 23.0758C5.09797 23.1002 5.08103 23.1207 5.05574 23.1514C5.09013 23.1567 5.11453 23.1605 5.15249 23.1665C5.138 23.1285 5.12871 23.1039 5.11798 23.0758H5.11805ZM4.96834 22.6997C5.00693 22.6356 5.00442 22.6293 4.91828 22.6008C4.94005 22.6438 4.95347 22.6704 4.96834 22.6997ZM4.43955 20.0564C4.46716 20.1169 4.49226 20.1216 4.55349 20.0661C4.50549 20.062 4.47312 20.0593 4.43955 20.0564ZM3.96917 21.9141C3.91804 21.9567 3.90097 21.9878 3.96917 22.024V21.9141ZM9.87335 21.1994C9.90083 21.203 9.92555 21.2062 9.97631 21.2129C9.93597 21.1769 9.91175 21.1553 9.86632 21.1149C9.87009 21.1602 9.87178 21.1805 9.87335 21.1993V21.1994ZM4.97405 22.1694C4.94896 22.1271 4.91759 22.1116 4.87091 22.1242C4.88339 22.1919 4.92442 22.1847 4.97405 22.1694ZM3.85944 21.8403C3.81608 21.8979 3.84551 21.9456 3.90172 21.9305C3.9075 21.9209 3.91327 21.9114 3.91904 21.9018C3.90135 21.8835 3.88366 21.8653 3.8595 21.8403H3.85944ZM4.90592 19.4541C4.92775 19.4702 4.94394 19.4821 4.96006 19.494C4.97581 19.4718 4.99162 19.4497 5.00737 19.4275C4.99884 19.4219 4.99037 19.4162 4.98183 19.4106C4.96082 19.4226 4.9398 19.4347 4.90585 19.4541H4.90592ZM10.3179 22.1286C10.263 22.1298 10.2672 22.1667 10.2594 22.1994C10.3221 22.2079 10.3194 22.1722 10.3179 22.1286ZM6.95 21.205C7.01977 21.1723 7.047 21.1465 6.98131 21.0915C6.97189 21.1256 6.96336 21.1565 6.95 21.205ZM7.93831 21.4555C7.9471 21.4994 7.95406 21.5344 7.96529 21.5905C8.00758 21.5039 8.00721 21.5039 7.93831 21.4555ZM5.36092 23.2937C5.37843 23.2788 5.39374 23.2659 5.41538 23.2475C5.38225 23.2358 5.35189 23.2251 5.31537 23.2123C5.3325 23.2428 5.3453 23.2657 5.36099 23.2937L5.36092 23.2937ZM8.6015 18.0764C8.60564 18.0949 8.60966 18.1127 8.61361 18.1305C8.64266 18.1235 8.68357 18.1637 8.69969 18.1121C8.66864 18.1008 8.63808 18.0897 8.60144 18.0764H8.6015ZM5.55279 23.0707C5.60976 23.0643 5.65299 23.0478 5.63812 22.9631C5.60148 23.0094 5.57713 23.04 5.55279 23.0707ZM7.72286 19.8089C7.70661 19.884 7.71037 19.8878 7.80693 19.8855C7.77004 19.8519 7.74808 19.8318 7.72286 19.8089ZM6.60372 22.3575C6.52736 22.3659 6.49129 22.3981 6.55359 22.4505C6.5711 22.4181 6.58295 22.3961 6.60372 22.3575ZM8.58613 17.5408C8.56342 17.4802 8.52985 17.4836 8.49879 17.481C8.49515 17.493 8.49145 17.505 8.48781 17.517C8.51655 17.524 8.54535 17.5309 8.58619 17.5407L8.58613 17.5408ZM8.14304 21.8565C8.17372 21.9035 8.1859 21.9325 8.23659 21.8565H8.14304ZM9.92172 18.3593C9.89531 18.3501 9.8714 18.3417 9.83043 18.3274C9.85875 18.3913 9.88918 18.4019 9.92172 18.3593ZM8.74656 18.6846C8.70007 18.6867 8.67064 18.688 8.64128 18.6893C8.64209 18.6989 8.64291 18.7084 8.64373 18.718C8.67522 18.7295 8.70628 18.7381 8.74656 18.6846ZM7.84219 20.3815C7.91604 20.4202 7.90952 20.3329 7.9402 20.3182C7.91008 20.3376 7.87996 20.3571 7.84219 20.3815ZM4.99733 18.8585C5.03874 18.8807 5.06459 18.8945 5.1023 18.9147C5.08971 18.8692 5.05472 18.8504 4.99733 18.8585ZM9.10683 21.9273C9.09553 21.9488 9.08706 21.9648 9.07433 21.989C9.0998 21.9948 9.11825 21.9989 9.15294 22.0067C9.13487 21.9756 9.12295 21.955 9.10683 21.9273ZM10.3336 21.1004C10.3006 21.1334 10.3028 21.1452 10.341 21.1797C10.3768 21.1367 10.3768 21.1258 10.3336 21.1004ZM4.96433 20.1771C4.91941 20.1591 4.89142 20.1479 4.85829 20.1347C4.86331 20.1753 4.89866 20.1894 4.96433 20.1771ZM6.05573 23.148C6.10354 23.1007 6.10787 23.076 6.05573 23.0389V23.148ZM6.89152 18.3787C6.94617 18.3425 6.90934 18.2854 6.85363 18.3189C6.86831 18.342 6.87966 18.3599 6.89152 18.3787ZM6.15706 17.4788C6.15857 17.47 6.16001 17.4612 6.16151 17.4525C6.13372 17.446 6.10599 17.4395 6.07819 17.4331C6.07556 17.4454 6.07292 17.4577 6.07029 17.47C6.09921 17.473 6.12814 17.4759 6.15706 17.4788ZM4.98861 20.887C4.99237 20.8948 4.99614 20.9027 4.99984 20.9106C5.03002 20.8962 5.06026 20.8819 5.09044 20.8675C5.08718 20.8594 5.08392 20.8512 5.08065 20.843C5.04997 20.8577 5.01929 20.8723 4.98861 20.887ZM4.20941 22.4357C4.21632 22.4394 4.22328 22.4431 4.23018 22.4467C4.24725 22.4159 4.26425 22.3851 4.28132 22.3543C4.27291 22.3485 4.26444 22.3427 4.25603 22.3368C4.24047 22.3698 4.22491 22.4027 4.20935 22.4357H4.20941ZM8.40549 17.8262C8.41076 17.7646 8.37036 17.7237 8.33917 17.7877C8.35881 17.7991 8.37632 17.8093 8.40549 17.8262ZM6.58126 19.6415C6.6169 19.6648 6.644 19.6624 6.66257 19.6343C6.63509 19.6367 6.60805 19.6392 6.58126 19.6415ZM11.1458 20.9819C11.1529 20.9767 11.16 20.9715 11.1672 20.9662C11.1537 20.944 11.1402 20.9217 11.1267 20.8995C11.1173 20.9074 11.108 20.9152 11.0986 20.923C11.1143 20.9426 11.1301 20.9623 11.1458 20.9819ZM8.09172 21.6317C8.0963 21.6265 8.10088 21.6214 8.10552 21.6162C8.08049 21.5933 8.05539 21.5704 8.03036 21.5475C8.02452 21.5549 8.01869 21.5623 8.01285 21.5697C8.03914 21.5904 8.06543 21.611 8.09178 21.6317H8.09172ZM9.20797 19.349C9.17961 19.3207 9.17296 19.3156 9.13399 19.3472C9.17164 19.3715 9.17942 19.3758 9.20797 19.349ZM7.93813 17.6654C7.92163 17.6823 7.90964 17.6946 7.89766 17.7069C7.91184 17.718 7.92602 17.729 7.94026 17.74C7.9449 17.7353 7.94961 17.7307 7.95425 17.726C7.94986 17.7094 7.94547 17.6928 7.93813 17.6653V17.6654ZM6.0098 19.0654C6.01401 19.118 6.01677 19.1526 6.02091 19.2039C6.05855 19.1507 6.05146 19.1157 6.0098 19.0654ZM9.65865 19.1147C9.65024 19.087 9.64378 19.0656 9.63455 19.0353C9.61837 19.0562 9.60877 19.0686 9.59816 19.0823C9.61567 19.0917 9.63292 19.101 9.65858 19.1147H9.65865ZM9.34606 18.979C9.32291 19.023 9.36526 19.0626 9.42186 19.0213C9.39017 19.0036 9.36852 18.9915 9.34606 18.979ZM8.24839 18.9542C8.3238 18.9692 8.29745 18.915 8.30831 18.8876C8.3014 18.8853 8.2945 18.8829 8.2876 18.8805C8.27499 18.9042 8.26238 18.9279 8.24839 18.9542ZM7.74363 20.2695C7.74745 20.235 7.80919 20.1889 7.72104 20.1682C7.72907 20.2043 7.73635 20.237 7.74363 20.2695ZM6.07029 18.8758C5.99393 18.8608 6.03346 18.9186 6.01087 18.9341C6.01997 18.9383 6.029 18.9424 6.0381 18.9465C6.04826 18.9242 6.05843 18.9019 6.07029 18.8758V18.8758ZM7.7184 18.9404C7.72662 18.9398 7.73484 18.9393 7.74306 18.9386C7.74137 18.9055 7.73967 18.8724 7.73792 18.8393C7.72882 18.8404 7.71972 18.8415 7.71062 18.8426C7.7132 18.8752 7.71583 18.9078 7.7184 18.9404ZM10.6973 20.2594C10.714 20.2857 10.6989 20.3436 10.7651 20.3114C10.7425 20.2941 10.7199 20.2767 10.6973 20.2594ZM4.88728 20.5588C4.89048 20.5406 4.89368 20.5224 4.89688 20.5043C4.89111 20.5003 4.8854 20.4963 4.87963 20.4923C4.8497 20.5218 4.84587 20.5381 4.88728 20.5588ZM4.03857 20.4212C3.97884 20.4067 3.98517 20.4428 3.9767 20.4974C4.00531 20.4622 4.01893 20.4454 4.03857 20.4212ZM5.48496 23.0069C5.47875 23.0127 5.47254 23.0185 5.46633 23.0243C5.47844 23.0382 5.49055 23.0522 5.50266 23.0661C5.51207 23.057 5.52142 23.0479 5.53083 23.0389C5.51552 23.0282 5.50021 23.0175 5.48496 23.0069ZM7.07793 19.5622C7.07736 19.5676 7.0768 19.573 7.0763 19.5784C7.09506 19.5808 7.11388 19.5833 7.13264 19.5856L7.13358 19.5622H7.07799H7.07793ZM6.46676 22.3774C6.42505 22.3941 6.4147 22.4207 6.4357 22.4573C6.44593 22.431 6.4549 22.408 6.46676 22.3774ZM10.239 22.4148C10.2185 22.3969 10.1941 22.3989 10.1657 22.4208C10.1881 22.419 10.2105 22.4171 10.239 22.4148ZM8.61054 22.1844C8.61254 22.1772 8.61449 22.17 8.6165 22.1628C8.59435 22.1566 8.57214 22.1505 8.54999 22.1443C8.54792 22.1517 8.54591 22.1591 8.54384 22.1665C8.56605 22.1725 8.58832 22.1785 8.61054 22.1845V22.1844ZM5.76254 18.9538C5.79334 18.9791 5.81336 18.9633 5.81436 18.8964C5.79717 18.9155 5.77992 18.9345 5.76254 18.9538ZM8.8642 18.938C8.87518 18.9399 8.88623 18.9417 8.89721 18.9436C8.9058 18.8703 8.87399 18.8615 8.8642 18.938ZM6.46337 18.8155C6.46023 18.8194 6.45709 18.8234 6.45396 18.8273C6.47353 18.8521 6.4879 18.8775 6.52391 18.863C6.5246 18.8559 6.52529 18.8489 6.52598 18.8419C6.50509 18.8331 6.4842 18.8243 6.46331 18.8155H6.46337ZM9.44745 21.257C9.46872 21.2711 9.48529 21.2821 9.50399 21.2944C9.50629 21.2647 9.48744 21.2522 9.44745 21.257ZM7.99729 22.0276C7.9829 22.0006 7.95793 21.9981 7.92238 22.0201C7.96084 22.0239 7.9774 22.0256 7.99729 22.0276ZM9.30308 18.5405C9.29204 18.6022 9.31463 18.6157 9.37292 18.6182C9.34675 18.5892 9.32988 18.5703 9.30308 18.5405ZM5.66679 21.5864C5.63755 21.6111 5.61892 21.6268 5.58905 21.652C5.66052 21.6728 5.66472 21.6411 5.66679 21.5864ZM5.45817 17.7809C5.41601 17.7871 5.44462 17.8129 5.45027 17.8388C5.45522 17.8375 5.46018 17.8361 5.46508 17.8348C5.46275 17.8168 5.46043 17.7989 5.45811 17.7809H5.45817ZM7.68854 17.785C7.70611 17.7589 7.71872 17.7511 7.68276 17.7272C7.67072 17.7561 7.65441 17.7703 7.68854 17.785ZM5.4972 17.7457C5.51859 17.7601 5.53591 17.7718 5.5723 17.7963C5.56157 17.7549 5.55636 17.7349 5.54997 17.7104C5.53127 17.7229 5.51728 17.7322 5.4972 17.7457V17.7457ZM7.66959 21.5009C7.67919 21.5156 7.68885 21.5304 7.69851 21.5451C7.70585 21.5396 7.71313 21.534 7.72047 21.5285C7.70353 21.5157 7.6928 21.4806 7.66965 21.5009H7.66959ZM7.19256 17.5849C7.1972 17.5869 7.20178 17.5889 7.20643 17.5909C7.21784 17.5725 7.22926 17.554 7.24075 17.5356C7.23221 17.5309 7.22368 17.5261 7.21515 17.5214C7.20762 17.5426 7.20009 17.5637 7.19256 17.5849V17.5849ZM6.94717 17.4725C6.93939 17.4775 6.93155 17.4824 6.92377 17.4874C6.96016 17.5483 6.98921 17.5309 6.94717 17.4725ZM7.47195 21.8634C7.47477 21.8582 7.4776 21.8531 7.48042 21.8479C7.46059 21.8377 7.44077 21.8274 7.42094 21.8172C7.41849 21.8217 7.41611 21.8263 7.41366 21.8308C7.43311 21.8417 7.45256 21.8525 7.47201 21.8634L7.47195 21.8634ZM8.08808 18.0963C8.083 18.1013 8.07798 18.1064 8.0729 18.1114C8.08683 18.1259 8.10075 18.1406 8.11468 18.1551C8.12096 18.1491 8.12723 18.1431 8.13351 18.137C8.11838 18.1235 8.1032 18.1099 8.08808 18.0963ZM7.19896 18.2387C7.20166 18.248 7.20435 18.2574 7.20705 18.2668C7.22355 18.2586 7.24006 18.2504 7.25656 18.2421C7.25392 18.2362 7.25129 18.2303 7.24865 18.2244C7.23209 18.2292 7.21552 18.2339 7.19896 18.2387ZM9.76625 18.6921C9.7788 18.6945 9.79128 18.6968 9.80383 18.699V18.6463C9.799 18.645 9.79411 18.6437 9.78927 18.6424C9.78162 18.6589 9.7739 18.6755 9.76625 18.6921ZM5.48691 18.9898C5.49707 18.9819 5.50724 18.9741 5.5174 18.9662C5.49983 18.9449 5.49061 18.9445 5.46897 18.9648C5.47662 18.9755 5.48176 18.9826 5.48691 18.9898ZM9.55418 18.9758C9.5363 18.9725 9.51835 18.9693 9.50047 18.9659C9.50022 18.9739 9.49997 18.9819 9.49972 18.9899C9.52093 18.9879 9.55468 19.0091 9.55418 18.9758ZM8.22172 19.1594C8.22624 19.1345 8.22944 19.1169 8.23559 19.0831C8.19838 19.1108 8.17755 19.1279 8.22172 19.1594ZM7.05497 22.231C7.03915 22.2215 7.02786 22.2146 7.0145 22.2065C7.00916 22.2236 7.00508 22.2366 6.99649 22.264C7.02127 22.25 7.03564 22.2419 7.0549 22.231H7.05497ZM4.46151 19.3716C4.46308 19.4005 4.46415 19.4213 4.46572 19.4506C4.49249 19.4219 4.49108 19.3955 4.46151 19.3716ZM6.7218 19.4067C6.72124 19.4132 6.72074 19.4197 6.72017 19.4262C6.74602 19.4348 6.76717 19.4373 6.78668 19.4152C6.78492 19.4107 6.78323 19.4063 6.78147 19.4019C6.76158 19.4034 6.74163 19.4051 6.72174 19.4066L6.7218 19.4067ZM8.23973 19.4571C8.23201 19.4612 8.22423 19.4652 8.21651 19.4692C8.22423 19.4859 8.23195 19.5025 8.23967 19.5192C8.24883 19.5146 8.25805 19.5099 8.26721 19.5053C8.25805 19.4892 8.24889 19.4731 8.23973 19.4571ZM6.05077 22.8096C6.04958 22.8146 6.04845 22.8196 6.04726 22.8246C6.06389 22.8289 6.08051 22.8331 6.09714 22.8373C6.09846 22.8316 6.09984 22.8258 6.10116 22.8201C6.08434 22.8166 6.06759 22.8131 6.05077 22.8096ZM5.67689 20.3412C5.68894 20.3273 5.70701 20.3177 5.69157 20.2987C5.68204 20.3066 5.67244 20.3145 5.66315 20.3222C5.6698 20.3315 5.67332 20.3364 5.67683 20.3412H5.67689ZM4.83144 20.6326C4.81187 20.5949 4.799 20.6243 4.77616 20.6395C4.7825 20.6463 4.78884 20.653 4.79518 20.6598C4.80728 20.6507 4.81939 20.6417 4.83144 20.6326ZM4.63079 20.3047C4.65677 20.2688 4.62081 20.2675 4.59641 20.2516C4.59233 20.2599 4.58819 20.2683 4.58411 20.2766C4.59967 20.286 4.61523 20.2953 4.63079 20.3047ZM4.84888 23.2718C4.82448 23.2595 4.80446 23.2494 4.76293 23.2285C4.78495 23.2868 4.80214 23.3054 4.84888 23.2718ZM9.44796 20.4864C9.4233 20.4378 9.40103 20.4356 9.36144 20.4655C9.39293 20.4731 9.41458 20.4783 9.44796 20.4864ZM6.98275 17.9779C6.98714 17.9759 6.99153 17.9737 6.99586 17.9717C6.98789 17.9555 6.97993 17.9392 6.97196 17.923C6.96731 17.9252 6.96273 17.9274 6.95809 17.9296C6.96631 17.9457 6.97453 17.9619 6.98275 17.978V17.9779Z" fill="white"/>
<path d="M6.87591 11.4979C8.01079 10.5322 9.57389 13.3116 9.58593 14.2772C9.65715 14.9511 9.5402 15.8493 8.81395 16.1109C8.22731 16.342 7.59738 16.2312 7.22325 15.6981C6.65424 14.9268 6.56351 13.8167 6.52844 12.9268C6.52718 12.3725 6.45804 11.8907 6.87597 11.4979H6.87591ZM9.03656 15.5246C9.03644 15.5199 9.03631 15.5152 9.03619 15.5106C9.00325 15.5144 8.97031 15.5184 8.93191 15.5229C8.93724 15.4905 8.94339 15.4537 8.95042 15.411C9.01598 15.4472 9.02464 15.4099 9.04353 15.3563C8.97564 15.3295 8.93542 15.3957 8.89615 15.3205C8.86045 15.3619 8.82362 15.4046 8.77869 15.4568C8.90022 15.5168 8.80931 15.5672 8.71877 15.6032C8.73502 15.6301 8.75102 15.6566 8.77198 15.6913C8.86145 15.6349 8.94904 15.5798 9.03663 15.5246L9.03656 15.5246ZM7.98783 15.4791C8.01374 15.4593 8.04398 15.4361 8.08928 15.4016C8.03752 15.3624 7.89283 15.3551 7.91749 15.2857C7.96994 15.2386 7.91674 15.222 7.90243 15.182C7.83304 15.299 7.86322 15.1577 7.79684 15.1965C7.78379 15.2065 7.74903 15.1885 7.72675 15.1839C7.65761 15.3026 7.76289 15.3588 7.82256 15.4446C7.84063 15.403 7.85387 15.3726 7.87238 15.3302C7.91893 15.3902 7.95338 15.4346 7.98789 15.4791H7.98783ZM7.52711 14.9285C7.49442 14.9702 7.5256 15.0313 7.57755 15.0574C7.63151 15.0924 7.69432 15.0386 7.76271 15.0655C7.79 14.9559 7.64004 14.9467 7.67731 14.8457H7.55716C7.55547 14.8776 7.59468 14.9203 7.52717 14.9284L7.52711 14.9285ZM7.19664 13.4717C7.22871 13.4499 7.26303 13.4264 7.30061 13.4008C7.30174 13.3635 7.25085 13.3063 7.32614 13.2983C7.2954 13.2737 7.26303 13.2477 7.22576 13.2178C7.1905 13.2661 7.15266 13.318 7.11677 13.3671C7.14821 13.4083 7.17073 13.4377 7.19664 13.4717ZM7.93575 11.8505C7.8902 11.811 7.85312 11.7786 7.81246 11.7433C7.75204 11.7953 7.73642 11.8536 7.75875 11.9298C7.81848 11.903 7.87169 11.8792 7.93575 11.8505ZM8.30737 15.1475C8.26979 15.1639 8.21997 15.1221 8.19795 15.193C8.19224 15.2113 8.14456 15.2167 8.1081 15.2311C8.11381 15.2508 8.11977 15.2711 8.12454 15.2876C8.20291 15.2501 8.35418 15.2666 8.30737 15.1475ZM7.78228 15.6928C7.74369 15.6581 7.71201 15.6297 7.67236 15.5942H7.54568C7.62618 15.6554 7.69143 15.7051 7.76898 15.7642C7.77513 15.7309 7.77996 15.705 7.78222 15.6928H7.78228ZM7.55572 13.2824C7.58653 13.2345 7.60999 13.1889 7.55666 13.1368C7.50879 13.1578 7.4633 13.1779 7.4079 13.2023C7.45834 13.2296 7.50314 13.254 7.55572 13.2825V13.2824ZM7.33763 13.0118C7.39303 13.0139 7.39184 13.0683 7.42421 13.1181C7.43939 13.069 7.44799 13.0411 7.45552 13.0169C7.40878 12.9875 7.37151 12.964 7.32156 12.9325C7.32803 12.9659 7.33198 13.0117 7.33769 13.0119L7.33763 13.0118ZM7.52472 13.7421C7.4756 13.6648 7.40602 13.7273 7.33945 13.7414C7.34007 13.7459 7.3407 13.7505 7.34133 13.755C7.40727 13.7643 7.4771 13.8128 7.52479 13.7421H7.52472ZM8.69838 15.0025C8.64313 14.9851 8.62407 15.018 8.64122 15.1012C8.66005 15.0687 8.67893 15.0362 8.69838 15.0025ZM8.29809 14.7219C8.26891 14.6192 8.2334 14.6054 8.16896 14.6649C8.21094 14.6834 8.24977 14.7006 8.29809 14.7219ZM7.19445 13.597C7.23736 13.6243 7.26522 13.642 7.31084 13.6711C7.29979 13.6245 7.29371 13.5988 7.28511 13.5624C7.25318 13.5746 7.23442 13.5817 7.19445 13.597V13.597ZM8.09524 14.5077C8.0948 14.4374 8.01506 14.472 8.00131 14.5186C8.03407 14.5161 8.07592 14.5623 8.09524 14.5077ZM7.57956 12.1313C7.62781 12.1756 7.66056 12.1769 7.69971 12.1052C7.6487 12.1163 7.61878 12.1228 7.57956 12.1313ZM8.60057 13.0219C8.6081 13.0337 8.61751 13.0485 8.63715 13.0792C8.64856 13.0275 8.65653 12.9915 8.66444 12.9554C8.65992 12.9545 8.6554 12.9536 8.65095 12.9527C8.6347 12.975 8.61851 12.9973 8.60057 13.0219V13.0219ZM7.14852 13.1492C7.18152 13.1408 7.20562 13.1347 7.22965 13.1286C7.22262 13.1082 7.21559 13.0879 7.20863 13.0675C7.20022 13.0698 7.19181 13.072 7.18341 13.0743C7.17356 13.0954 7.16377 13.1165 7.14852 13.1492ZM9.02765 14.4374C9.02347 14.4873 9.04786 14.5209 9.10081 14.5384C9.07208 14.4987 9.05193 14.471 9.02765 14.4374ZM6.94473 13.5301C6.94342 13.5986 6.9645 13.5901 7.01494 13.5797C7.0145 13.5708 7.014 13.5619 7.01356 13.553C6.99386 13.5464 6.97416 13.5399 6.94473 13.5301ZM8.31716 14.8338C8.27958 14.8092 8.27544 14.8278 8.23911 14.8595C8.29288 14.8789 8.30141 14.8813 8.31716 14.8338ZM8.36359 15.3124C8.3922 15.2949 8.41541 15.2806 8.45513 15.2561C8.39766 15.2488 8.35562 15.2359 8.36359 15.3124ZM7.53577 13.9566C7.5389 13.906 7.54047 13.8806 7.54342 13.834C7.48106 13.8817 7.51136 13.906 7.53577 13.9566ZM7.5603 13.9732C7.60767 13.9807 7.61714 13.9776 7.65711 13.9534C7.62469 13.9412 7.59242 13.9479 7.5603 13.9732ZM8.47408 15.8059C8.50043 15.8203 8.52678 15.8346 8.56217 15.8539C8.55263 15.7844 8.51624 15.7896 8.47408 15.8059ZM7.63402 14.4434C7.63239 14.435 7.63082 14.4266 7.62919 14.4182C7.5987 14.407 7.56846 14.3972 7.53426 14.4612C7.57931 14.4532 7.6066 14.4483 7.63396 14.4434H7.63402ZM7.38462 12.0812C7.39409 12.1077 7.40351 12.1342 7.41298 12.1607C7.41976 12.1583 7.42653 12.1559 7.43331 12.1534C7.43419 12.1181 7.42722 12.0922 7.38462 12.0811V12.0812ZM7.48589 12.3534C7.47748 12.3767 7.47139 12.3936 7.4601 12.4248C7.54097 12.4127 7.52322 12.3892 7.48589 12.3534ZM7.35105 13.4459C7.3845 13.449 7.4057 13.451 7.43638 13.4539C7.41536 13.3892 7.39246 13.3963 7.35105 13.4459ZM8.76445 14.6787C8.7738 14.6675 8.78308 14.6563 8.79243 14.645C8.77022 14.6182 8.75981 14.6385 8.73929 14.6554C8.74964 14.665 8.75705 14.6719 8.76445 14.6788V14.6787ZM7.33675 15.0811C7.40765 15.0704 7.3865 15.0302 7.39265 15.0033C7.38493 14.9997 7.37722 14.9961 7.3695 14.9924C7.36003 15.018 7.35061 15.0436 7.33675 15.0811ZM8.5793 15.2423C8.56681 15.2444 8.55433 15.2464 8.54178 15.2485C8.5473 15.2695 8.55288 15.2905 8.5584 15.3115C8.5675 15.3093 8.57666 15.307 8.58576 15.3048C8.58356 15.2839 8.58143 15.2632 8.57923 15.2423H8.5793ZM7.49605 15.2847C7.47384 15.2619 7.44912 15.2651 7.42189 15.2942C7.44517 15.2913 7.46844 15.2883 7.49605 15.2847ZM7.71866 15.5128C7.67411 15.504 7.66012 15.5114 7.62856 15.5345C7.63076 15.5422 7.63289 15.55 7.63509 15.5577C7.67587 15.5558 7.69068 15.5511 7.71866 15.5128ZM8.19814 15.8716C8.23967 15.8779 8.25536 15.8583 8.25329 15.8125C8.23352 15.8337 8.21671 15.8518 8.19814 15.8716ZM7.35808 13.54C7.34152 13.5159 7.31374 13.5159 7.27476 13.54H7.35808ZM6.90991 13.1531C6.92648 13.177 6.93652 13.1915 6.94819 13.2084C6.9788 13.1619 6.95691 13.1557 6.90991 13.1531ZM7.95445 12.2173C7.9717 12.2193 7.98889 12.2214 8.00615 12.2234C8.00677 12.215 8.00734 12.2067 8.00797 12.1983C7.98695 12.202 7.95338 12.1854 7.95445 12.2173Z" fill="white"/>
<path d="M3.69115 12.2761C4.44908 11.3761 5.34171 11.9379 5.63246 12.8996C5.98031 13.895 6.22707 14.9647 5.91963 16.0034C5.72827 16.9697 4.48516 16.9037 3.92926 16.2882C3.41847 15.8102 3.135 14.9608 3.14172 14.342C3.17133 13.5133 3.24782 12.8851 3.69115 12.276V12.2761ZM4.97354 14.7089C5.01232 14.6962 5.03999 14.6871 5.06766 14.6781C5.05617 14.7067 5.04469 14.7353 5.02794 14.7771C5.11026 14.7878 5.12645 14.7176 5.06766 14.6783C5.03633 14.6638 5.00496 14.674 4.97354 14.7089ZM5.31932 14.4291C5.37409 14.4474 5.39003 14.3746 5.43721 14.3785C5.42548 14.3403 5.41512 14.3068 5.40314 14.2677C5.37741 14.2754 5.35332 14.291 5.33312 14.2871C5.2269 14.2424 5.16673 14.4406 5.10593 14.3517C5.10285 14.3467 5.04388 14.3478 5.06264 14.3999C5.06684 14.4117 5.04601 14.4324 5.0339 14.454C5.08008 14.4875 5.12732 14.4859 5.17589 14.4506C5.17269 14.432 5.16892 14.4104 5.16064 14.3628C5.22997 14.3921 5.27358 14.4139 5.31938 14.4291H5.31932ZM4.54043 14.8139C4.57256 14.8657 4.59797 14.9314 4.69352 14.9282C4.6769 14.8864 4.64201 14.8344 4.65318 14.8211C4.70162 14.7639 4.62595 14.7535 4.63881 14.7017C4.59734 14.749 4.57067 14.7794 4.54043 14.8139ZM5.43809 14.9344C5.43551 14.9047 5.43188 14.863 5.42767 14.8148C5.34021 14.8719 5.28989 14.9441 5.29259 15.0592C5.34705 15.0125 5.3899 14.9757 5.43809 14.9344ZM4.32604 12.7723L4.31456 12.7502C4.23067 12.7954 4.11623 12.7659 4.1348 12.9008C4.21424 12.8474 4.27014 12.8099 4.3261 12.7723H4.32604ZM5.17739 13.9198C5.20004 13.9049 5.22194 13.8905 5.24384 13.8762C5.27584 13.8876 5.30796 13.8989 5.35345 13.915C5.36938 13.8255 5.10838 13.7832 5.17739 13.9198ZM3.85585 12.6397C3.87875 12.7138 3.8903 12.7363 3.95367 12.7703C3.97305 12.7624 3.99934 12.7518 4.02877 12.7398C3.97487 12.7086 3.92462 12.6795 3.85579 12.6397H3.85585ZM4.63467 15.9664C4.69189 15.8955 4.63467 15.8146 4.57839 15.799C4.56666 15.8641 4.58623 15.915 4.63467 15.9664ZM4.08147 12.5334C4.07319 12.5146 4.05989 12.4844 4.03724 12.4329C4.00261 12.4936 3.98121 12.5311 3.95593 12.5754C4.00035 12.5605 4.03454 12.5491 4.08147 12.5334ZM4.15407 16.0139C4.15946 16.1129 4.17715 16.1289 4.27691 16.1213C4.23174 16.0818 4.19742 16.0518 4.15407 16.0139ZM4.40792 12.325C4.3712 12.3291 4.35373 12.3591 4.35553 12.4148C4.39242 12.3989 4.40989 12.369 4.40792 12.325ZM3.94206 13.033V13.1197C4.02883 13.096 4.01302 13.0391 3.94206 13.033ZM5.22219 14.5498C5.19722 14.5909 5.17532 14.6269 5.15311 14.6633C5.23888 14.6633 5.24923 14.6481 5.22219 14.5498ZM3.54641 14.947C3.59133 14.9403 3.5966 14.9088 3.60049 14.8708C3.53731 14.8444 3.51397 14.9054 3.54641 14.947ZM4.88664 15.8247C4.8788 15.8556 4.87297 15.8786 4.86713 15.9017L4.88225 15.9131C4.90108 15.8986 4.9199 15.8841 4.94619 15.8638C4.92379 15.8491 4.91005 15.8401 4.88664 15.8247V15.8247ZM4.41903 12.1704C4.46002 12.1809 4.49781 12.1696 4.5324 12.1364C4.47085 12.1302 4.4632 12.1413 4.41903 12.1704ZM5.0499 14.1893H5.17018C5.11885 14.1229 5.08635 14.1834 5.0499 14.1893ZM4.12903 13.0321C4.15952 12.9848 4.12922 12.9746 4.10964 12.9376C4.10142 12.9448 4.09321 12.952 4.08499 12.9592C4.09766 12.9801 4.11033 13.0012 4.12897 13.0321H4.12903ZM4.51565 16.1208C4.52669 16.1477 4.53554 16.1691 4.5489 16.2018C4.56271 16.1718 4.57262 16.1503 4.58623 16.1208H4.51565ZM4.16335 12.6362C4.13405 12.6255 4.11742 12.6194 4.1008 12.6133C4.09509 12.63 4.08932 12.6468 4.08361 12.6636C4.08982 12.6677 4.09597 12.6718 4.10218 12.676C4.1183 12.6655 4.13443 12.655 4.16341 12.6362H4.16335ZM4.58203 15.6037C4.61796 15.607 4.63749 15.5906 4.64063 15.5545C4.62124 15.5708 4.60418 15.5851 4.58203 15.6037ZM5.48119 16.0817C5.41186 16.0669 5.40715 16.0985 5.4096 16.1643C5.44091 16.1282 5.45741 16.1092 5.48119 16.0817ZM5.3574 13.4375C5.38434 13.4125 5.38434 13.3884 5.3574 13.3651V13.4375ZM5.51821 14.558C5.55021 14.5317 5.54807 14.5111 5.51181 14.496C5.51394 14.5167 5.51582 14.5351 5.51821 14.558ZM4.8064 14.5731C4.84203 14.5577 4.84693 14.5416 4.81901 14.504C4.78902 14.5319 4.7648 14.5546 4.8064 14.5731ZM4.33652 12.6435C4.35459 12.6391 4.37266 12.6345 4.39079 12.6301C4.38891 12.6233 4.38696 12.6165 4.38508 12.6096C4.3657 12.6199 4.32253 12.612 4.33652 12.6435Z" fill="white"/>
<path d="M1.62696 14.7063C2.62381 15.0567 3.21528 16.3098 3.39616 17.2872C3.50816 17.8546 3.467 18.6257 2.92773 18.9588C2.4 19.259 1.75551 19.2358 1.36061 18.7289C0.795431 18.0335 0.602436 17.12 0.588005 16.243C0.554124 15.613 0.796874 14.5412 1.62689 14.7063H1.62696ZM3.00559 17.7283C3.00923 17.7796 3.03772 17.8009 3.07072 17.819C3.05742 17.8577 3.04405 17.8963 3.03031 17.9362C3.10667 17.9083 3.10931 17.9001 3.06846 17.8209C3.07881 17.7734 3.0657 17.7414 3.00559 17.7283V17.7283ZM2.917 17.997C2.88663 18.0031 2.86285 18.0078 2.83757 18.0129C2.84503 18.0556 2.88833 18.043 2.9197 18.0579C2.9207 18.0821 2.92183 18.1062 2.92334 18.1393C2.981 18.1233 3.03671 18.1204 3.03866 18.0278C2.99273 18.0401 2.95483 18.0503 2.917 18.0605V17.997V17.997ZM2.75738 17.0788C2.76755 16.9514 2.80279 16.898 2.8631 16.9188C2.8739 16.8873 2.88475 16.8558 2.89379 16.8293C2.82778 16.8374 2.75952 16.8458 2.6708 16.8568C2.70424 16.8723 2.72313 16.881 2.75575 16.8962C2.72545 16.923 2.69746 17.0026 2.64777 16.9765C2.594 16.9021 2.49688 16.9048 2.46776 16.8116C2.46588 16.8534 2.464 16.8951 2.4618 16.943C2.48872 16.9402 2.51514 16.9374 2.55015 16.9339C2.56175 16.9738 2.57323 17.0134 2.58741 17.0621C2.60674 17.0507 2.62242 17.0414 2.63924 17.0315C2.69508 17.0804 2.73417 17.1742 2.8525 17.1181C2.81617 17.1031 2.78675 17.0909 2.75726 17.0787L2.75738 17.0788ZM1.4206 15.1307C1.37969 15.0372 1.31695 15.1152 1.25709 15.116C1.26512 15.0879 1.27127 15.0665 1.27955 15.0375C1.11692 15.1027 1.1552 15.2007 1.2963 15.2449C1.34449 15.2006 1.38264 15.1655 1.4206 15.1307ZM1.6833 16.0442C1.63499 16.0577 1.59314 16.0694 1.55593 16.0798C1.57551 16.114 1.59678 16.151 1.61874 16.1893C1.63994 16.1929 1.671 16.1983 1.70206 16.2037C1.70231 16.21 1.70256 16.2164 1.70281 16.2226C1.73657 16.1983 1.77026 16.1739 1.80376 16.1498C1.77559 16.0747 1.73029 16.1051 1.67784 16.1332C1.68035 16.0926 1.68154 16.0726 1.6833 16.0441V16.0442ZM3.0507 17.2844C3.00666 17.3206 3.00183 17.3571 3.01808 17.3997C3.05754 17.4057 3.09469 17.4113 3.14714 17.4192C3.11181 17.3699 3.08358 17.3304 3.0507 17.2844V17.2844ZM1.13581 15.4331C1.10375 15.4582 1.07087 15.4838 1.02933 15.5162C1.06196 15.5357 1.08699 15.5505 1.10532 15.5614C1.13618 15.5267 1.16235 15.4972 1.19203 15.4638C1.1791 15.4567 1.15858 15.4456 1.13581 15.4331ZM0.97707 15.8321C0.895045 15.8808 0.851711 15.9241 0.847068 15.962C0.895694 15.9361 0.943064 15.9108 1.00342 15.8786C0.99307 15.8603 0.985101 15.8462 0.977008 15.8321H0.97707ZM1.37498 16.7064C1.3795 16.7382 1.39167 16.7557 1.42712 16.7397C1.46295 16.7236 1.5255 16.7378 1.50975 16.6562C1.45868 16.6752 1.41677 16.6909 1.37498 16.7064ZM1.69534 16.2836C1.71291 16.4166 1.73023 16.4348 1.78983 16.404C1.76022 16.3663 1.73481 16.3339 1.69534 16.2836ZM2.27333 16.1779C2.31838 16.2154 2.33155 16.265 2.3904 16.2547C2.37001 16.2122 2.35652 16.1595 2.27333 16.1779ZM2.59432 17.3756C2.55548 17.3123 2.52116 17.3545 2.4704 17.3706C2.52154 17.412 2.55617 17.4061 2.59432 17.3756ZM1.6503 15.5346C1.60694 15.4545 1.57613 15.4961 1.5277 15.5418C1.57745 15.5389 1.60895 15.537 1.6503 15.5346ZM2.89956 17.6242C2.9192 17.5727 2.93231 17.5381 2.94548 17.5037C2.89498 17.5232 2.85281 17.546 2.89956 17.6242ZM1.96708 16.2389C1.92605 16.2691 1.91747 16.3036 1.94136 16.3425C1.95033 16.3063 1.95698 16.2795 1.96708 16.2389ZM1.33828 16.7241C1.29632 16.7547 1.2893 16.7867 1.3172 16.8202C1.32592 16.7805 1.33188 16.7532 1.33828 16.7241ZM1.31839 15.9606C1.31757 15.9525 1.31676 15.9444 1.31594 15.9363C1.27459 15.9388 1.23331 15.9413 1.19196 15.9437C1.19372 15.9538 1.19554 15.9638 1.1973 15.9739C1.23764 15.9694 1.27805 15.965 1.31839 15.9606ZM1.97944 15.303C1.97768 15.3333 1.97668 15.3495 1.97518 15.3759C1.99808 15.3724 2.0174 15.3695 2.05687 15.3635C2.02349 15.3375 2.00673 15.3243 1.97944 15.303ZM0.966843 15.4243C0.954546 15.4528 0.945574 15.4737 0.933715 15.5011C0.973745 15.4886 0.984788 15.463 0.966843 15.4243ZM2.54117 17.1342C2.51662 17.1611 2.52806 17.1875 2.57549 17.2131C2.55767 17.172 2.54989 17.1543 2.54117 17.1342ZM2.28663 16.5484C2.28638 16.5417 2.28606 16.535 2.28581 16.5282H2.2124C2.21253 16.5362 2.21265 16.5442 2.21278 16.5522C2.23738 16.551 2.26203 16.5497 2.28663 16.5484ZM2.91713 17.0021C2.89077 17.0299 2.89724 17.0394 2.92654 17.0666C2.96393 17.0291 2.94881 17.0248 2.91713 17.0021ZM1.37856 17.8334C1.40686 17.8237 1.42486 17.8177 1.44707 17.8101C1.40422 17.7637 1.38602 17.7692 1.37856 17.8334ZM1.80339 16.3453C1.8362 16.3256 1.83419 16.319 1.8234 16.275C1.79021 16.3072 1.78099 16.311 1.80339 16.3453ZM2.53496 16.2372C2.53622 16.2506 2.53741 16.264 2.53866 16.2774C2.55253 16.2715 2.56633 16.2656 2.60065 16.2509C2.56433 16.2433 2.54964 16.2403 2.53496 16.2372ZM1.33985 15.7449C1.34273 15.687 1.30289 15.7014 1.28319 15.6881C1.27936 15.6949 1.27547 15.7018 1.27165 15.7086C1.29229 15.7196 1.31293 15.7306 1.33985 15.7449Z" fill="white"/>
<path d="M10.7354 14.02C10.8322 13.6486 11.2749 13.4255 11.5973 13.6725C12.4069 14.289 12.5625 15.4599 12.506 16.4171C12.3143 18.3077 9.94105 18.9197 10.1026 16.4838C10.1606 15.7445 10.3627 14.7281 10.7354 14.02ZM10.7927 16.9548C10.825 16.978 10.8634 16.9854 10.908 16.977C10.9051 16.9296 10.9022 16.8835 10.8994 16.8374C10.9266 16.7955 10.9207 16.7535 10.8817 16.7115C10.8745 16.7382 10.8808 16.7805 10.9005 16.8385C10.8433 16.859 10.8558 16.9388 10.7927 16.9548ZM11.4635 16.644C11.4122 16.6917 11.4423 16.7442 11.4966 16.716C11.4856 16.7607 11.5189 16.8206 11.4456 16.8425C11.4593 16.853 11.4676 16.8594 11.4828 16.8711C11.4972 16.8519 11.5108 16.8338 11.512 16.8322C11.5784 16.8202 11.6299 16.8109 11.6813 16.8015C11.6817 16.7937 11.6821 16.786 11.6825 16.7782C11.6128 16.7775 11.5751 16.6913 11.4947 16.7188C11.4854 16.6965 11.4762 16.6742 11.4636 16.644H11.4635ZM10.8539 16.5123C10.8553 16.5051 10.8567 16.4979 10.8581 16.4907C10.8139 16.4593 10.7697 16.4278 10.7133 16.3877C10.7203 16.4183 10.7249 16.4384 10.731 16.4651C10.693 16.4723 10.6546 16.4794 10.615 16.4868C10.6165 16.5167 10.6177 16.5378 10.6188 16.559C10.6623 16.6181 10.5865 16.6528 10.5845 16.7059C10.6061 16.7028 10.6215 16.7005 10.636 16.6985C10.6832 16.7627 10.5678 16.7682 10.5953 16.8295C10.6297 16.8189 10.6645 16.8082 10.6993 16.7975C10.713 16.8375 10.7075 16.8925 10.7733 16.8915C10.7788 16.8471 10.7531 16.8171 10.6961 16.8013C10.701 16.7285 10.7059 16.6559 10.7112 16.5746C10.677 16.5699 10.647 16.5657 10.617 16.5616C10.6552 16.4653 10.7738 16.5314 10.8539 16.5123H10.8539ZM11.4539 17.255C11.4757 17.2406 11.4967 17.2269 11.5176 17.2131C11.5345 17.2531 11.4871 17.3182 11.5731 17.3322C11.6137 17.2652 11.7013 17.2729 11.7604 17.2359C11.697 17.1827 11.6299 17.0107 11.5405 17.1289C11.4954 17.1787 11.4199 17.161 11.4539 17.255ZM10.7055 15.303C10.6866 15.3069 10.6583 15.3128 10.63 15.3185C10.6305 15.3234 10.631 15.3282 10.6315 15.333H10.7194C10.746 15.2728 10.7724 15.2129 10.7958 15.1598C10.8497 15.1571 10.903 15.1543 10.9595 15.1514C10.9565 15.1223 10.9548 15.1061 10.9531 15.0898C11.0377 15.1004 11.0363 15.0475 11.0497 14.9807C11.0372 14.983 11.0322 14.9827 11.0316 14.9842C10.992 15.0751 10.9352 15.0637 10.8756 15.0117C10.8223 15.0466 10.772 15.0796 10.714 15.1177C10.7115 15.1723 10.7086 15.2367 10.7056 15.303L10.7055 15.303ZM10.4334 16.0717C10.4909 16.114 10.4778 16.1585 10.5089 16.1985C10.6042 16.2252 10.6435 16.2342 10.7463 16.2485C10.6558 16.1618 10.5813 16.0905 10.4977 16.0104C10.4808 16.0265 10.4578 16.0484 10.4334 16.0717H10.4334ZM10.8212 15.5229C10.8046 15.5075 10.7903 15.4941 10.7648 15.4705C10.7986 15.4518 10.8294 15.4347 10.8667 15.4141C10.8433 15.3972 10.8218 15.3816 10.8096 15.3728C10.7338 15.4126 10.6659 15.4483 10.5995 15.4832C10.6738 15.5728 10.7054 15.5798 10.8211 15.5229L10.8212 15.5229ZM10.761 17.2656H10.7066C10.6824 17.3074 10.7527 17.4357 10.8188 17.4705C10.8107 17.4341 10.8043 17.405 10.7962 17.3686C10.8241 17.3775 10.8484 17.3854 10.8801 17.3955C10.8845 17.3681 10.8881 17.3459 10.8928 17.3167C10.9296 17.3219 10.9633 17.3268 11.0083 17.3332C11.0032 17.3017 10.9993 17.277 10.9942 17.2455C10.911 17.2827 10.8331 17.3176 10.7398 17.3593C10.7494 17.3168 10.7544 17.2948 10.761 17.2657L10.761 17.2656ZM12.0351 16.8307C12.0197 16.7751 12.0041 16.719 11.9866 16.6559C11.9203 16.7054 11.9544 16.806 11.8426 16.8004C11.8978 16.8811 11.9117 16.8911 12.0351 16.8307ZM10.9099 16.5542C10.9243 16.5711 10.9369 16.586 10.9573 16.61C11.0078 16.4983 11.0957 16.5298 11.1867 16.5289C11.1561 16.5069 11.1255 16.4848 11.0927 16.4613C10.9863 16.5685 11.001 16.4484 10.9099 16.5542ZM11.0774 16.8331C11.1048 16.7991 11.1286 16.7696 11.153 16.7393C11.093 16.7109 11.0385 16.7174 10.9896 16.759C11.0225 16.7868 11.0481 16.8083 11.0774 16.8331ZM11.1361 13.9849C11.1716 13.9938 11.2038 14.002 11.236 14.0101C11.2422 14.0014 11.2484 13.9927 11.2546 13.9839C11.2232 13.9714 11.1919 13.9589 11.1605 13.9464C11.2174 13.9093 11.2729 13.9733 11.2932 13.8859H11.1515C11.1457 13.9231 11.1416 13.9499 11.136 13.9849H11.1361ZM11.3743 17.3439C11.4211 17.3774 11.4384 17.4142 11.4037 17.4741C11.4706 17.4374 11.5082 17.4193 11.5766 17.4412C11.5765 17.4336 11.5764 17.426 11.5762 17.4184C11.509 17.3936 11.4417 17.3687 11.3744 17.3438L11.3743 17.3439ZM10.9647 16.1997C10.967 16.2272 10.9697 16.259 10.9725 16.2923C11.012 16.2976 11.0479 16.3024 11.0789 16.3065C11.083 16.2811 11.0867 16.2583 11.0912 16.2309C11.0567 16.2224 11.0139 16.2118 10.9647 16.1997ZM11.0789 14.576C11.13 14.6408 11.0635 14.7277 11.1722 14.7859C11.1391 14.6922 11.1803 14.5989 11.0789 14.576ZM12.0848 15.8217C12.0802 15.7603 12.0772 15.718 12.0732 15.6649C12.0315 15.69 12.0011 15.7083 11.9665 15.729C12.0041 15.7586 12.0355 15.7832 12.0847 15.8217H12.0848ZM10.4612 16.5732C10.4931 16.5549 10.5199 16.5395 10.5584 16.5174C10.5045 16.502 10.4609 16.4895 10.3945 16.4705C10.4227 16.514 10.4411 16.5423 10.4612 16.5732ZM11.4036 17.6007C11.356 17.5847 11.3255 17.5744 11.2739 17.557C11.2916 17.6019 11.304 17.6333 11.3245 17.6854C11.3556 17.6521 11.3754 17.6308 11.4036 17.6007ZM10.9213 17.449C10.8183 17.4877 10.8669 17.5149 10.9001 17.581C10.9072 17.5786 10.9142 17.5763 10.9213 17.5739V17.449ZM11.6584 15.3319C11.6258 15.3162 11.6022 15.3048 11.5674 15.2881V15.3933C11.602 15.37 11.6257 15.354 11.6584 15.3319ZM10.4136 16.5939C10.3836 16.6346 10.4292 16.6898 10.4832 16.6392C10.4557 16.6212 10.435 16.6078 10.4136 16.5939ZM11.764 16.6988C11.7828 16.6863 11.7965 16.6771 11.8256 16.6578C11.7889 16.6458 11.7668 16.6385 11.7271 16.6254C11.7448 16.6606 11.7532 16.6774 11.764 16.6988ZM11.2372 17.5994C11.2088 17.6316 11.1897 17.6534 11.1707 17.675C11.2269 17.6808 11.2411 17.656 11.2372 17.5994ZM11.4741 17.5054C11.4528 17.5107 11.4403 17.5138 11.4226 17.5181C11.4364 17.542 11.4473 17.5609 11.464 17.5898C11.4679 17.5569 11.4706 17.5349 11.4741 17.5054ZM11.0268 17.5854C11.0199 17.5845 11.0131 17.5836 11.0062 17.5828C11.0052 17.5994 11.0043 17.616 11.0033 17.6327C11.0089 17.6333 11.0145 17.6338 11.0201 17.6343C11.0223 17.618 11.0245 17.6017 11.0267 17.5854H11.0268ZM11.3554 16.62C11.3654 16.6269 11.3752 16.6338 11.3851 16.6408C11.4013 16.6156 11.4174 16.6078 11.3802 16.5874C11.3705 16.6002 11.363 16.6101 11.3554 16.62ZM10.6466 15.6347C10.648 15.6309 10.6494 15.627 10.6508 15.6232C10.632 15.615 10.6131 15.6068 10.5944 15.5985C10.5921 15.6045 10.5899 15.6105 10.5877 15.6166C10.6074 15.6226 10.627 15.6287 10.6467 15.6347H10.6466ZM11.4112 14.0688C11.3945 14.0425 11.3891 14.0309 11.36 14.0622C11.3811 14.0796 11.3992 14.0988 11.4112 14.0688Z" fill="white"/>
</g>
<defs>
<clipPath id="clip0_75_2">
<rect width="24" height="23.3448" fill="white" transform="translate(0.584961 0.702637)"/>
</clipPath>
</defs>
</svg>
