<svg width="24" height="24" viewBox="0 0 24 24" fill="none" xmlns="http://www.w3.org/2000/svg">
<g clip-path="url(#clip0_75_16)">
<path d="M2.92456 12.8941C2.87826 11.8249 3.37549 10.3197 4.68681 10.6378C5.64181 10.8445 6.24206 11.6886 7.01756 12.2079C7.92437 12.7379 9.59006 10.3281 11.0287 11.8393C12.7201 13.9043 9.40992 17.2074 7.49722 17.8661C4.47938 18.6822 2.9602 15.3971 2.9245 12.894L2.92456 12.8941ZM6.55502 16.6605C6.56832 16.6297 6.55688 16.6116 6.5207 16.6061C6.56174 16.6437 6.55527 16.7322 6.61714 16.6612C6.59612 16.6612 6.57516 16.6612 6.55502 16.6605V16.6605ZM4.13831 12.9041C4.20011 12.9099 4.17759 12.8466 4.1806 12.8066C4.18004 12.8008 4.15331 12.7974 4.12244 12.7879C4.15707 12.8324 4.16236 12.8712 4.13831 12.9043C4.1385 12.9343 4.11522 12.968 4.14911 13.0001C4.18945 12.9565 4.13787 12.9343 4.13831 12.9041V12.9041ZM4.12357 14.077C4.10437 14.102 4.08511 14.1269 4.06647 14.1511C4.15237 14.2384 4.17176 14.242 4.24266 14.1872C4.23299 14.1353 4.20313 14.1203 4.15469 14.1454C4.14145 14.1181 4.13079 14.0961 4.12043 14.0743C4.15084 14.0643 4.16103 14.0399 4.15099 14.0013C4.10644 14.0136 4.12232 14.048 4.12357 14.077ZM4.09314 12.6434C4.21668 12.7241 4.35063 12.663 4.47806 12.6763C4.48616 12.6509 4.49275 12.6302 4.49914 12.6103C4.43182 12.5483 4.41758 12.6246 4.39625 12.6444C4.25891 12.6781 4.19679 12.6516 4.09471 12.5584C4.09471 12.5941 4.09471 12.6199 4.09433 12.6451C4.03993 12.6239 3.99507 12.6354 3.95668 12.6786C3.99231 12.7504 4.03975 12.7148 4.07789 12.707C4.08373 12.6825 4.08843 12.663 4.09308 12.6434H4.09314ZM5.27376 11.473C5.21566 11.3983 5.16101 11.3281 5.10624 11.2577C5.06408 11.262 5.01821 11.2667 4.97279 11.2713V11.3823C4.99079 11.2351 5.10837 11.3148 5.15637 11.4006C5.18253 11.4403 5.12883 11.4438 5.11534 11.4557C5.14596 11.4776 5.17626 11.4992 5.1949 11.5125C5.25412 11.5003 5.30262 11.4904 5.35119 11.4805C5.34974 11.473 5.3483 11.4655 5.34679 11.4579C5.32534 11.4623 5.30394 11.4667 5.27376 11.4729V11.473ZM6.66162 16.8952C6.62429 16.8757 6.56431 16.924 6.54731 16.8572C6.564 16.8468 6.58087 16.8364 6.59963 16.8247C6.55396 16.7934 6.51263 16.7998 6.47565 16.8439C6.53683 16.8826 6.56004 16.9227 6.49002 16.9727C6.49128 16.9419 6.52302 16.904 6.46424 16.9059C6.44098 16.9664 6.45018 17.0097 6.49184 17.0359C6.54969 16.988 6.6034 16.9435 6.66162 16.8952ZM9.37297 12.9979C9.4497 12.9089 9.51715 12.8307 9.59897 12.7358C9.51508 12.7403 9.44625 12.744 9.35615 12.7488C9.39411 12.7792 9.4135 12.7947 9.43006 12.808C9.41676 12.8742 9.35101 12.9152 9.37291 12.9979H9.37297ZM4.18587 12.1815C4.18242 12.0988 4.14346 12.0453 4.11642 12.0674C4.07206 12.1036 4.03767 12.0763 3.99859 12.0778C3.95655 12.082 3.90347 12.1375 3.9521 12.1749C4.05305 12.2159 4.06842 12.0992 4.18594 12.1815H4.18587ZM6.24859 13.1977C6.2932 13.1552 6.33285 13.1175 6.38876 13.0643C6.36077 13.0372 6.33925 13.0163 6.31892 12.9966C6.27638 13.0336 6.24997 13.0567 6.22933 13.0746C6.22537 13.1342 6.16527 13.2552 6.27237 13.2282C6.26289 13.2161 6.25342 13.204 6.24853 13.1977H6.24859ZM4.68668 15.8463C4.66591 15.768 4.64941 15.7059 4.63323 15.6449C4.59721 15.6396 4.56684 15.6353 4.53547 15.6308C4.51778 15.655 4.50203 15.6766 4.48691 15.6973C4.55768 15.7525 4.67395 15.6425 4.60079 15.8196C4.62777 15.828 4.64678 15.8339 4.68668 15.8463ZM7.12127 14.6614C7.12592 14.6154 7.12955 14.5787 7.133 14.5447C7.10289 14.5342 7.07785 14.5255 7.06543 14.5212C7.03193 14.5728 7.00307 14.6171 6.97427 14.6614H7.12127ZM6.61049 15.0636C6.61293 15.1568 6.71546 15.1317 6.73196 15.1987C6.79464 15.1879 6.75197 15.1063 6.74908 15.0636H6.61049ZM3.85334 14.4807C3.83721 14.4588 3.82109 14.4369 3.80634 14.417C3.82253 14.3882 3.8369 14.3626 3.85516 14.3301C3.78708 14.3193 3.7564 14.3554 3.717 14.398C3.81369 14.3897 3.7537 14.589 3.85328 14.4807H3.85334ZM4.75419 12.3078C4.72063 12.247 4.689 12.1896 4.65556 12.129C4.62488 12.1462 4.60449 12.1576 4.58799 12.1669C4.61955 12.2162 4.64941 12.263 4.6806 12.3118C4.70413 12.3105 4.72878 12.3092 4.75413 12.3078H4.75419ZM8.59609 16.0007C8.65256 15.9949 8.69385 15.9907 8.74247 15.9857C8.74862 15.9658 8.75665 15.9397 8.76876 15.9005C8.68004 15.9446 8.6621 15.9495 8.59603 15.8798V16.0006L8.59609 16.0007ZM3.36821 14.0563C3.38955 14.129 3.47124 14.0961 3.52865 14.1009C3.5257 14.0735 3.52281 14.0461 3.5198 14.0181C3.46252 14.0325 3.41922 14.0434 3.36821 14.0563ZM4.19748 11.0172C4.30439 11.1412 4.3517 10.9982 4.43032 10.9338C4.39838 10.9282 4.36964 10.9231 4.33758 10.9175C4.32955 11.0048 4.27509 11.0253 4.19748 11.0172ZM4.0378 13.2269C4.00699 13.2161 3.97594 13.2097 3.95279 13.1858C3.91069 13.2576 3.99909 13.3249 4.02168 13.3931L4.0378 13.3876V13.2269ZM6.50815 12.7469C6.41774 12.6839 6.5948 12.6677 6.52076 12.5911C6.48607 12.6527 6.40061 12.6784 6.42119 12.7746C6.4478 12.7661 6.47063 12.7588 6.50809 12.7469H6.50815ZM8.99758 13.9235C8.91081 13.8463 8.88772 13.8433 8.79411 13.8976C8.80415 13.982 8.87636 13.8754 8.91978 13.9174C8.92273 13.9312 8.92612 13.9471 8.9302 13.9661C8.96132 13.955 8.97506 13.9435 8.99758 13.9235ZM5.32439 11.2878C5.29541 11.2149 5.24446 11.1864 5.17118 11.2019C5.18891 11.2522 5.23999 11.2808 5.32439 11.2878ZM5.70863 15.7929C5.65379 15.8515 5.60818 15.8592 5.54343 15.8088C5.53854 15.8169 5.53364 15.8249 5.52875 15.833C5.58823 15.9124 5.7001 15.9098 5.70863 15.7929ZM6.73152 12.6348C6.76621 12.5859 6.77167 12.5048 6.87344 12.5293C6.8464 12.4939 6.8282 12.4702 6.80875 12.4448C6.74676 12.5281 6.72102 12.5914 6.73152 12.6348ZM8.33069 12.4983C8.33521 12.5052 8.33973 12.512 8.34425 12.5188C8.41069 12.5138 8.51704 12.4862 8.47249 12.3922C8.42424 12.4283 8.3775 12.4633 8.33069 12.4983ZM9.12325 13.2635C9.09972 13.3047 9.08235 13.3352 9.06321 13.3688C9.16517 13.4431 9.22239 13.3236 9.12325 13.2635ZM3.84932 13.048C3.82843 13.0744 3.75396 13.0515 3.78664 13.1173C3.82592 13.1081 3.86451 13.0991 3.90052 13.0907C3.89368 13.0274 3.90661 12.9865 3.82906 12.9661C3.83816 13.0028 3.84387 13.0259 3.84932 13.048ZM3.46383 14.4445C3.50142 14.4145 3.53348 14.389 3.57602 14.3551C3.52633 14.3348 3.49633 14.2909 3.4393 14.3279C3.44683 14.3637 3.45455 14.4004 3.46383 14.4445ZM10.346 14.7607C10.343 14.7673 10.34 14.774 10.3369 14.7806C10.3848 14.8149 10.4326 14.8492 10.4829 14.8853C10.5116 14.8059 10.4312 14.8062 10.4108 14.7656C10.4058 14.7556 10.3684 14.7619 10.346 14.7607ZM6.67091 14.7791C6.69676 14.8167 6.71332 14.8433 6.75279 14.8237C6.78428 14.8081 6.83448 14.8093 6.81867 14.7381C6.77305 14.7508 6.72888 14.7631 6.67091 14.7792V14.7791ZM8.52614 12.996C8.54979 13.0234 8.56767 13.0442 8.58417 13.0634C8.60626 13.0089 8.62483 12.9629 8.6488 12.9036C8.57984 12.9109 8.57708 12.9791 8.52614 12.996ZM5.18737 15.546C5.15562 15.4888 5.14138 15.3843 5.08215 15.4368C5.09746 15.5049 5.09595 15.5522 5.18737 15.546ZM6.12624 13.1402C6.09236 13.1705 6.05967 13.1998 6.0256 13.2303C6.09625 13.2906 6.11928 13.2007 6.16658 13.1971C6.16891 13.197 6.17041 13.1857 6.17349 13.1758C6.15849 13.1645 6.14243 13.1524 6.12624 13.1402V13.1402ZM7.78465 17.0514C7.72429 17.085 7.67811 17.1108 7.61913 17.1436C7.69499 17.1936 7.76614 17.1421 7.78465 17.0514ZM6.56149 14.6986C6.50439 14.7197 6.48101 14.7527 6.49134 14.7977C6.51851 14.7846 6.54605 14.7713 6.57316 14.7582C6.56983 14.7412 6.56657 14.7244 6.56149 14.6986ZM3.89343 13.4412C3.88138 13.4964 3.87241 13.5374 3.86093 13.5899C3.8972 13.5725 3.92907 13.5573 3.96922 13.538C3.94061 13.5015 3.92173 13.4774 3.89343 13.4412ZM8.93647 13.1249C8.97725 13.2005 9.04978 13.164 9.05825 13.0894C9.00624 13.0968 8.96621 13.0894 8.93647 13.1249ZM3.65162 11.4538C3.6653 11.5079 3.67295 11.5381 3.68061 11.5683C3.75094 11.5126 3.74241 11.4886 3.65162 11.4538ZM9.39505 15.9476C9.39932 15.935 9.40352 15.9223 9.40779 15.9097C9.33539 15.9589 9.31738 15.904 9.27603 15.8591C9.27289 15.9091 9.27107 15.9379 9.269 15.971C9.31832 15.9618 9.35672 15.9547 9.39505 15.9476V15.9476ZM7.05332 16.775C7.10483 16.7439 7.14116 16.7219 7.18295 16.6967C7.12489 16.674 7.08168 16.7001 7.05332 16.775ZM10.8424 13.2336C10.7832 13.2003 10.7658 13.2361 10.7546 13.2749C10.7574 13.3682 10.8376 13.2932 10.8424 13.2336ZM11.045 13.5469C11.0112 13.6054 10.9725 13.6298 10.9669 13.6756C10.9967 13.6651 11.0259 13.6549 11.0621 13.6421C11.0566 13.6116 11.0516 13.584 11.045 13.5468V13.5469ZM6.97471 13.3081C6.93681 13.2492 6.93348 13.2495 6.84634 13.3164C6.89415 13.3556 6.93217 13.3028 6.97471 13.3081ZM8.87806 13.7242C8.89972 13.6908 8.9025 13.6555 8.8864 13.6185C8.86934 13.6343 8.85233 13.6503 8.83395 13.6674C8.84763 13.6851 8.86011 13.7012 8.87806 13.7242ZM7.44013 14.6678C7.36804 14.6991 7.37889 14.7902 7.45914 14.7673C7.45211 14.7304 7.44697 14.7037 7.44013 14.6678ZM7.38617 16.8428C7.35097 16.7869 7.32989 16.7534 7.30875 16.7199C7.30015 16.7233 7.29156 16.7267 7.28302 16.73C7.30172 16.8011 7.28723 16.8323 7.38617 16.8427V16.8428ZM3.48736 12.2462C3.50976 12.2185 3.52796 12.1961 3.54615 12.1736C3.54214 12.168 3.53818 12.1623 3.53417 12.1566C3.50681 12.1633 3.47939 12.1699 3.44194 12.179C3.46019 12.2061 3.47124 12.2224 3.4873 12.2462L3.48736 12.2462ZM8.52181 16.1657C8.53109 16.1644 8.54038 16.163 8.54973 16.1616C8.57407 16.1024 8.51591 16.0803 8.48215 16.0462C8.49539 16.086 8.50863 16.1258 8.52181 16.1657ZM8.6119 14.3977C8.63794 14.428 8.65388 14.4466 8.67063 14.4661C8.69428 14.4351 8.71223 14.4116 8.73595 14.3804C8.69397 14.3862 8.66348 14.3905 8.6119 14.3977ZM4.56735 11.4755C4.52932 11.4815 4.50498 11.4852 4.4706 11.4906C4.49582 11.5212 4.51282 11.5418 4.5329 11.5662C4.54357 11.5381 4.55292 11.5135 4.56741 11.4755H4.56735ZM4.33313 12.0411C4.41927 12.0126 4.42178 12.0063 4.3832 11.9422C4.36833 11.9715 4.3549 11.9981 4.33313 12.0411ZM3.96828 14.5759C3.90698 14.5204 3.88195 14.5251 3.85434 14.5856C3.88797 14.5827 3.92029 14.58 3.96828 14.5759ZM3.38396 12.6179C3.31576 12.6541 3.33283 12.6852 3.38396 12.7278V12.6179ZM9.28118 13.527C9.3266 13.4866 9.35082 13.465 9.39116 13.429C9.34041 13.4357 9.31568 13.439 9.2882 13.4425C9.28663 13.4614 9.28494 13.4816 9.28118 13.527V13.527ZM4.2857 12.5177C4.33238 12.5303 4.36381 12.5149 4.38884 12.4725C4.33922 12.4572 4.29818 12.45 4.2857 12.5177ZM3.33377 12.7401C3.328 12.7305 3.32222 12.721 3.31645 12.7114C3.2603 12.6963 3.23087 12.744 3.27416 12.8016C3.29832 12.7766 3.31601 12.7583 3.33371 12.7401H3.33377ZM4.39669 15.2314C4.40522 15.2257 4.41369 15.2201 4.42222 15.2144C4.40647 15.1923 4.39066 15.1701 4.37492 15.148C4.35873 15.1599 4.34254 15.1718 4.32077 15.1878C4.35471 15.2073 4.37573 15.2193 4.39675 15.2314H4.39669ZM9.67419 12.4425C9.68197 12.4753 9.67777 12.5122 9.73273 12.5134C9.73424 12.4698 9.73687 12.4341 9.67419 12.4425ZM6.39616 13.5505C6.46185 13.4955 6.43462 13.4696 6.36485 13.4369C6.37822 13.4854 6.38675 13.5164 6.39616 13.5505ZM7.38015 13.0514C7.36892 13.1076 7.36195 13.1425 7.35317 13.1864C7.42206 13.138 7.42244 13.138 7.38015 13.0514ZM4.73016 11.4297C4.76668 11.4168 4.79711 11.4061 4.83017 11.3945C4.80853 11.3761 4.79322 11.3631 4.77571 11.3483C4.76009 11.3762 4.74723 11.3991 4.7301 11.4298L4.73016 11.4297ZM8.11455 16.5298C8.09836 16.4782 8.05745 16.5184 8.02846 16.5114C8.02445 16.5292 8.02049 16.547 8.01635 16.5655C8.053 16.5522 8.08355 16.5411 8.11461 16.5298H8.11455ZM5.05291 11.6788C5.06784 11.5941 5.02455 11.5777 4.96758 11.5712C4.99192 11.6019 5.01627 11.6327 5.05291 11.6788ZM7.22172 14.7564C7.12523 14.7541 7.1214 14.7579 7.13765 14.833C7.16281 14.81 7.18483 14.79 7.22172 14.7564ZM5.96838 12.1915C5.90608 12.2438 5.94216 12.276 6.01851 12.2844C5.99768 12.2458 5.98582 12.2238 5.96838 12.1915ZM7.90254 17.1249C7.90618 17.1369 7.90988 17.1489 7.91352 17.161C7.94464 17.1583 7.97814 17.1618 8.00086 17.1011C7.96001 17.111 7.93128 17.1179 7.90248 17.1248L7.90254 17.1249ZM7.65138 12.7854C7.60069 12.7094 7.58858 12.7384 7.55783 12.7854H7.65138ZM9.24523 16.3145C9.2862 16.3001 9.3101 16.2918 9.33651 16.2826C9.30397 16.24 9.27354 16.2506 9.24523 16.3145ZM8.05852 15.9239C8.0577 15.9335 8.05689 15.9431 8.05607 15.9526C8.0855 15.9539 8.11486 15.9552 8.16135 15.9573C8.12107 15.9039 8.09001 15.9124 8.05852 15.9239ZM7.35505 14.3238C7.32443 14.3091 7.33089 14.2217 7.25705 14.2604C7.29482 14.2848 7.32493 14.3044 7.35505 14.3238ZM4.51709 15.7272C4.47938 15.7474 4.45353 15.7613 4.41212 15.7835C4.46951 15.7916 4.5045 15.7728 4.51709 15.7272ZM8.56773 12.6352C8.53304 12.643 8.51459 12.6471 8.48912 12.6529C8.50185 12.6771 8.51032 12.6931 8.52162 12.7146C8.53774 12.6869 8.54966 12.6663 8.56773 12.6352ZM9.75576 13.4622C9.71761 13.4968 9.71548 13.5085 9.74836 13.5415C9.79159 13.5161 9.79158 13.5052 9.75576 13.4622ZM4.27315 14.5073C4.30627 14.494 4.3342 14.4828 4.37918 14.4649C4.31351 14.4526 4.27817 14.4667 4.27315 14.5073ZM5.47058 11.603C5.52272 11.5659 5.51839 11.5413 5.47058 11.4939V11.603ZM6.26842 16.323C6.32413 16.3565 6.36096 16.2994 6.30631 16.2632C6.29445 16.282 6.2831 16.2999 6.26842 16.323ZM5.48508 17.1719C5.48771 17.1842 5.49035 17.1965 5.49298 17.2088C5.52078 17.2024 5.54851 17.1959 5.57631 17.1894C5.57486 17.1807 5.57336 17.1719 5.57185 17.1631C5.54293 17.166 5.514 17.1689 5.48508 17.1719ZM4.49544 13.7989C4.49871 13.7908 4.50197 13.7825 4.50523 13.7744C4.47505 13.76 4.44481 13.7457 4.41463 13.7313C4.41087 13.7392 4.4071 13.7471 4.4034 13.7549C4.43408 13.7696 4.46476 13.7842 4.49544 13.7989ZM3.67088 12.3051C3.67929 12.2992 3.68776 12.2934 3.69617 12.2876C3.6791 12.2568 3.6621 12.226 3.64503 12.1952C3.63813 12.1989 3.63117 12.2026 3.62427 12.2062C3.63983 12.2391 3.65539 12.2721 3.67095 12.3051H3.67088ZM7.75397 16.8542C7.78515 16.9181 7.82562 16.8773 7.82028 16.8157C7.79111 16.8326 7.7736 16.8428 7.75397 16.8542ZM6.07737 15.0076C6.05884 14.9795 6.03173 14.9771 5.99605 15.0004C6.02284 15.0027 6.04988 15.0052 6.07737 15.0076ZM10.5134 13.719C10.5228 13.7268 10.5321 13.7346 10.5415 13.7424C10.555 13.7202 10.5685 13.698 10.5819 13.6757C10.5748 13.6705 10.5677 13.6653 10.5606 13.6601C10.5449 13.6797 10.5291 13.6993 10.5134 13.719ZM7.42758 13.0722C7.43341 13.0796 7.43925 13.087 7.44508 13.0944C7.47012 13.0715 7.49522 13.0486 7.52025 13.0257C7.51567 13.0205 7.51109 13.0154 7.50645 13.0102C7.48016 13.0309 7.45387 13.0515 7.42752 13.0722H7.42758ZM8.54885 15.2947C8.58775 15.3264 8.5944 15.3213 8.62282 15.293C8.59434 15.2661 8.58649 15.2705 8.54885 15.2947ZM7.36904 16.9159C7.3644 16.9112 7.35969 16.9066 7.35505 16.9019C7.34087 16.9129 7.32669 16.924 7.31245 16.935C7.32443 16.9473 7.33648 16.9596 7.35292 16.9766C7.36019 16.949 7.36465 16.9324 7.36904 16.9159V16.9159ZM5.4357 15.4381C5.43162 15.4893 5.4288 15.5239 5.42459 15.5765C5.46625 15.5262 5.47334 15.4912 5.4357 15.4381ZM9.01302 15.5596C9.02356 15.5733 9.03322 15.5857 9.04941 15.6066C9.05857 15.5763 9.06509 15.5549 9.0735 15.5273C9.04784 15.541 9.03058 15.5503 9.01308 15.5596H9.01302ZM8.83665 15.6206C8.78005 15.5793 8.73776 15.6189 8.76085 15.663C8.78332 15.6504 8.8049 15.6384 8.83665 15.6206ZM7.70245 15.7614C7.70936 15.759 7.71626 15.7567 7.72316 15.7543C7.7123 15.7269 7.73866 15.6728 7.66324 15.6878C7.67729 15.7142 7.68991 15.7378 7.70245 15.7614ZM7.13583 14.4738C7.22398 14.4531 7.16218 14.407 7.15842 14.3724C7.15114 14.4051 7.14392 14.4376 7.13583 14.4738ZM5.45289 15.6954C5.44379 15.6996 5.43476 15.7037 5.42566 15.7078C5.44825 15.7233 5.40872 15.7811 5.48508 15.7662C5.47322 15.7401 5.46306 15.7178 5.45289 15.6955V15.6954ZM7.12548 15.7993C7.13457 15.8005 7.14367 15.8015 7.15277 15.8026C7.15446 15.7695 7.15616 15.7364 7.15791 15.7033C7.14969 15.7027 7.14148 15.7021 7.13326 15.7015C7.13068 15.7341 7.12805 15.7667 7.12548 15.7993ZM10.18 14.3306C10.1137 14.2983 10.1289 14.3564 10.1122 14.3826C10.1348 14.3653 10.1574 14.3479 10.18 14.3306ZM4.29442 14.1496C4.30019 14.1457 4.3059 14.1417 4.31167 14.1377C4.30847 14.1195 4.30527 14.1013 4.30207 14.0831C4.26066 14.1038 4.26449 14.1202 4.29442 14.1496ZM3.39149 14.1446C3.40002 14.1991 3.39363 14.2352 3.45336 14.2207C3.43372 14.1965 3.42004 14.1797 3.39149 14.1446ZM4.94568 11.6031C4.93627 11.594 4.92692 11.5849 4.91751 11.5758C4.9054 11.5898 4.89329 11.6037 4.88118 11.6176C4.8874 11.6234 4.89361 11.6292 4.89982 11.6351C4.91513 11.6244 4.93044 11.6137 4.94568 11.6031ZM6.54837 15.0797L6.54743 15.0563C6.52867 15.0587 6.50985 15.0612 6.49109 15.0635C6.49165 15.0689 6.49222 15.0743 6.49272 15.0797H6.54831H6.54837ZM5.85055 12.1847C5.82955 12.2212 5.83991 12.2479 5.88161 12.2645C5.86975 12.2341 5.86078 12.211 5.85055 12.1847ZM9.58046 12.2211C9.60886 12.243 9.63331 12.245 9.6538 12.2271C9.62525 12.2248 9.60286 12.2229 9.58046 12.2211ZM7.95863 12.4755C7.9607 12.4829 7.96271 12.4902 7.96478 12.4976C7.98693 12.4915 8.00914 12.4853 8.03129 12.4791C8.02928 12.4719 8.02733 12.4647 8.02533 12.4575C8.00311 12.4636 7.98084 12.4695 7.95863 12.4755V12.4755ZM5.22915 15.7455C5.22821 15.6786 5.20813 15.6628 5.17733 15.6881C5.19471 15.7073 5.2119 15.7264 5.22915 15.7455ZM8.31206 15.6984C8.30108 15.7003 8.29004 15.7021 8.27906 15.704C8.28891 15.7805 8.32065 15.7717 8.31206 15.6984ZM5.9409 15.8001C5.94021 15.793 5.93952 15.786 5.93883 15.779C5.90282 15.7644 5.88839 15.7899 5.86887 15.8147C5.87201 15.8186 5.87515 15.8225 5.87828 15.8264C5.89918 15.8176 5.92007 15.8089 5.94096 15.8001H5.9409ZM8.91878 13.3475C8.90014 13.3599 8.88352 13.3709 8.86225 13.3849C8.90219 13.3896 8.92104 13.3772 8.91878 13.3475ZM7.33717 12.6218C7.37272 12.6438 7.39769 12.6413 7.41208 12.6143C7.39219 12.6163 7.37563 12.618 7.33717 12.6218ZM8.78771 16.0238C8.72942 16.0263 8.70683 16.0398 8.71788 16.1014C8.74467 16.0717 8.76154 16.0529 8.78771 16.0238ZM5.00385 12.99C5.03371 13.0152 5.05234 13.0309 5.08158 13.0556C5.07951 13.0008 5.07537 12.9691 5.00385 12.99ZM4.87993 16.8072C4.87497 16.8058 4.87002 16.8045 4.86512 16.8031C4.85941 16.8291 4.83086 16.8548 4.87303 16.8611C4.87535 16.8431 4.87767 16.8252 4.87999 16.8072H4.87993ZM7.09756 16.9148C7.13351 16.8909 7.1209 16.8831 7.10333 16.857C7.0692 16.8717 7.08545 16.8858 7.09756 16.9148ZM4.96476 16.9316C4.97116 16.907 4.9763 16.887 4.98709 16.8457C4.9507 16.8702 4.93338 16.8819 4.91199 16.8963C4.93213 16.9097 4.94612 16.9191 4.96476 16.9316V16.9316ZM7.1352 13.1135C7.12786 13.1079 7.12058 13.1023 7.11324 13.0968C7.10358 13.1115 7.09398 13.1263 7.08432 13.1411C7.10747 13.1613 7.1182 13.1262 7.13514 13.1135H7.1352ZM6.62994 17.1204C6.63847 17.1157 6.647 17.111 6.65554 17.1062C6.64412 17.0878 6.6327 17.0694 6.62122 17.0509C6.61657 17.0529 6.61199 17.0549 6.60735 17.0569C6.61488 17.0781 6.62241 17.0992 6.62994 17.1204V17.1204ZM6.33856 17.1546C6.34634 17.1595 6.35418 17.1644 6.36197 17.1694C6.40394 17.1111 6.37495 17.0936 6.33856 17.1546ZM6.82845 12.811C6.8309 12.8155 6.83329 12.8201 6.83573 12.8246C6.85556 12.8144 6.87539 12.8042 6.89521 12.794C6.89239 12.7888 6.88956 12.7836 6.88674 12.7784C6.86729 12.7893 6.84784 12.8001 6.82839 12.811L6.82845 12.811ZM7.5483 16.5049C7.54202 16.4988 7.53575 16.4928 7.52947 16.4868C7.51554 16.5013 7.50162 16.516 7.48769 16.5305C7.49277 16.5355 7.49779 16.5406 7.50287 16.5456C7.51799 16.532 7.53317 16.5184 7.5483 16.5049ZM6.6635 16.4176C6.66614 16.4117 6.66877 16.4057 6.67141 16.3998C6.65491 16.3916 6.63841 16.3834 6.62191 16.3752C6.61921 16.3845 6.61651 16.3939 6.61381 16.4033C6.63038 16.408 6.64694 16.4128 6.6635 16.4176ZM9.20407 15.9995C9.2089 15.9982 9.21379 15.9969 9.21862 15.9956V15.9429C9.20607 15.9452 9.19359 15.9475 9.18104 15.9498C9.18869 15.9663 9.19641 15.9829 9.20407 15.9995ZM4.88376 15.6771C4.90534 15.6974 4.91462 15.697 4.93219 15.6757C4.92203 15.6679 4.91186 15.66 4.90176 15.6521C4.89662 15.6593 4.89147 15.6664 4.88382 15.6771H4.88376ZM8.91451 15.652C8.91476 15.66 8.91501 15.668 8.91526 15.676C8.93314 15.6726 8.95109 15.6693 8.96897 15.6661C8.96947 15.6328 8.93572 15.654 8.91451 15.652ZM7.65038 15.5588C7.64423 15.525 7.64103 15.5074 7.63651 15.4825C7.59234 15.514 7.61317 15.5311 7.65038 15.5588ZM6.41134 12.3779C6.41994 12.4053 6.42395 12.4183 6.42935 12.4354C6.44265 12.4273 6.45401 12.4205 6.46982 12.4109C6.45056 12.4 6.43619 12.3919 6.41141 12.3779H6.41134ZM3.88057 15.1914C3.879 15.2207 3.87787 15.2414 3.87636 15.2703C3.90594 15.2464 3.90734 15.2201 3.88057 15.1914ZM6.19632 15.24C6.19808 15.2356 6.19978 15.2312 6.20153 15.2267C6.18202 15.2046 6.16081 15.2071 6.13503 15.2158C6.13559 15.2222 6.13609 15.2287 6.13666 15.2352C6.15655 15.2368 6.1765 15.2384 6.19639 15.24L6.19632 15.24ZM7.68206 15.1366C7.6729 15.132 7.66368 15.1274 7.65452 15.1227C7.6468 15.1394 7.63908 15.156 7.63137 15.1727C7.63908 15.1767 7.64686 15.1807 7.65458 15.1848C7.66374 15.1687 7.6729 15.1526 7.68206 15.1366ZM5.51595 11.8218C5.51463 11.8161 5.51325 11.8104 5.51193 11.8046C5.49531 11.8089 5.47868 11.8132 5.46205 11.8174C5.46324 11.8224 5.46437 11.8274 5.46556 11.8324C5.48238 11.8289 5.49913 11.8254 5.51595 11.8218ZM5.07801 14.3197C5.08729 14.3275 5.09683 14.3354 5.10643 14.3433C5.12186 14.3243 5.10379 14.3147 5.09175 14.3007C5.08823 14.3056 5.08466 14.3105 5.07807 14.3197H5.07801ZM4.20997 13.9822C4.20363 13.989 4.19729 13.9957 4.19096 14.0024C4.21379 14.0176 4.22666 14.0472 4.24623 14.0094C4.23412 14.0003 4.22201 13.9913 4.20997 13.9822ZM3.9989 14.3653C4.00298 14.3736 4.00712 14.382 4.0112 14.3903C4.0356 14.3744 4.07156 14.3731 4.04558 14.3372C4.03002 14.3465 4.01446 14.3559 3.9989 14.3653ZM4.17778 11.4134C4.21925 11.3926 4.23927 11.3825 4.26374 11.3702C4.21706 11.3365 4.1998 11.3551 4.17778 11.4134ZM8.77623 14.1765C8.81582 14.2064 8.83809 14.2042 8.86275 14.1556C8.82931 14.1637 8.80772 14.1689 8.77623 14.1765ZM6.37294 16.7123C6.37759 16.7145 6.38217 16.7167 6.38681 16.7189C6.39478 16.7027 6.40275 16.6865 6.41072 16.6703C6.40632 16.6682 6.40193 16.6661 6.3976 16.664C6.38938 16.6802 6.38116 16.6963 6.37294 16.7124V16.7123Z" fill="white"/>
<path d="M5.94305 21.715C5.97813 20.8251 6.06891 19.715 6.63786 18.9438C7.01199 18.4106 7.64193 18.2999 8.22857 18.531C8.95481 18.7925 9.07176 19.6908 9.00055 20.3646C8.9885 21.3302 7.4254 24.1096 6.29052 23.1439C5.87266 22.7511 5.94174 22.2693 5.94299 21.715H5.94305ZM8.18659 18.9505C8.16564 18.9852 8.14964 19.0117 8.13339 19.0386C8.22392 19.0747 8.31478 19.1251 8.19331 19.185C8.23823 19.2371 8.27512 19.2799 8.31076 19.3213C8.35004 19.2462 8.39025 19.3123 8.45814 19.2855C8.43926 19.2319 8.43066 19.1946 8.36503 19.2307C8.35801 19.1881 8.35186 19.1512 8.34652 19.1189C8.38492 19.1234 8.41786 19.1273 8.4508 19.1312C8.45093 19.1265 8.45105 19.1218 8.45118 19.1172C8.36359 19.062 8.276 19.0067 8.18653 18.9504L8.18659 18.9505ZM7.28699 19.3117C7.26849 19.2692 7.25531 19.2388 7.23718 19.1973C7.17757 19.2831 7.07229 19.3392 7.14137 19.458C7.16364 19.4533 7.1984 19.4353 7.21145 19.4454C7.27783 19.4842 7.24765 19.3429 7.31705 19.4599C7.33135 19.4199 7.38456 19.4033 7.33211 19.3562C7.30745 19.2868 7.45219 19.2795 7.50389 19.2403C7.45866 19.2057 7.42835 19.1825 7.40244 19.1628C7.36793 19.2073 7.33349 19.2517 7.28693 19.3117H7.28699ZM6.97178 19.7961H7.09193C7.05466 19.6951 7.20461 19.6859 7.17732 19.5763C7.10899 19.6032 7.04619 19.5493 6.99217 19.5844C6.94028 19.6106 6.90903 19.6717 6.94172 19.7133C7.00923 19.7214 6.97002 19.7641 6.97171 19.796L6.97178 19.7961ZM6.53145 21.2748C6.56734 21.3239 6.60524 21.3758 6.64043 21.424C6.67764 21.3942 6.71008 21.3681 6.74082 21.3435C6.66553 21.3355 6.71641 21.2783 6.71529 21.2409C6.6777 21.2153 6.64338 21.1919 6.61132 21.1701C6.58541 21.204 6.56295 21.2335 6.53145 21.2747V21.2748ZM7.17343 22.712C7.15109 22.7882 7.16672 22.8465 7.22714 22.8985C7.26779 22.8631 7.30487 22.8309 7.35043 22.7912C7.28637 22.7626 7.23322 22.7387 7.17343 22.712ZM7.53915 19.3542C7.53432 19.3708 7.52843 19.391 7.52272 19.4107C7.55917 19.4252 7.60692 19.4305 7.61256 19.4488C7.63465 19.5197 7.68447 19.4779 7.72199 19.4943C7.76879 19.3753 7.61752 19.3917 7.53915 19.3542ZM7.18366 18.8777C7.10605 18.9367 7.04086 18.9864 6.96036 19.0477H7.08703C7.12662 19.0121 7.15831 18.9837 7.19696 18.9491C7.1947 18.9368 7.18987 18.9109 7.18372 18.8777H7.18366ZM6.82258 21.4396C6.87798 21.464 6.92353 21.484 6.97134 21.5051C7.02467 21.4529 7.0012 21.4074 6.9704 21.3595C6.91782 21.388 6.87302 21.4123 6.82258 21.4397V21.4396ZM6.73618 21.7094C6.78612 21.6779 6.82339 21.6544 6.87013 21.625C6.86261 21.6007 6.85401 21.5728 6.83883 21.5238C6.80645 21.5736 6.80764 21.628 6.75224 21.6301C6.74653 21.6303 6.74258 21.6761 6.73612 21.7094L6.73618 21.7094ZM6.75594 20.8869C6.75531 20.8914 6.75469 20.896 6.75406 20.9005C6.82063 20.9145 6.89027 20.977 6.93934 20.8998C6.89166 20.8292 6.82182 20.8777 6.75588 20.8869H6.75594ZM8.05584 19.5407C8.03873 19.6239 8.05778 19.6568 8.113 19.6394C8.09355 19.6058 8.07466 19.5733 8.05584 19.5407ZM7.58358 19.977C7.64801 20.0364 7.68352 20.0227 7.7127 19.9199C7.66439 19.9412 7.62555 19.9584 7.58358 19.977ZM6.69979 21.0795C6.70838 21.0431 6.71447 21.0174 6.72551 20.9708C6.6799 20.9999 6.65198 21.0176 6.60913 21.0449C6.64909 21.0602 6.66785 21.0673 6.69979 21.0796V21.0795ZM7.41599 20.1233C7.42973 20.1699 7.50948 20.2045 7.50992 20.1342C7.49066 20.0795 7.44874 20.1258 7.41599 20.1233ZM7.11433 22.5367C7.07518 22.465 7.04242 22.4663 6.99418 22.5105C7.03339 22.5191 7.06332 22.5256 7.11433 22.5367ZM8.06556 21.6892C8.07008 21.6882 8.0746 21.6873 8.07905 21.6864C8.07108 21.6504 8.06312 21.6144 8.05176 21.5627C8.03212 21.5934 8.02271 21.6082 8.01518 21.6199C8.03306 21.6445 8.04931 21.6668 8.06556 21.6891V21.6892ZM6.59802 21.5676C6.60643 21.5698 6.61484 21.5721 6.62324 21.5743C6.63027 21.554 6.6373 21.5336 6.64426 21.5132C6.62023 21.5072 6.5962 21.5011 6.56314 21.4927C6.57832 21.5253 6.58817 21.5464 6.59802 21.5676ZM8.51549 20.1035C8.46258 20.121 8.43819 20.1546 8.44233 20.2045C8.46661 20.171 8.48675 20.1432 8.51549 20.1035ZM6.42818 21.0888C6.42862 21.0799 6.42912 21.0711 6.42956 21.0622C6.37911 21.0518 6.35803 21.0432 6.35935 21.1117C6.38877 21.102 6.40848 21.0954 6.42818 21.0888ZM7.65372 19.7823C7.69005 19.814 7.69419 19.8326 7.73177 19.808C7.71603 19.7606 7.70749 19.7629 7.65372 19.7823ZM7.86974 19.3857C7.83003 19.3613 7.80681 19.3471 7.7782 19.3294C7.77024 19.4058 7.81227 19.393 7.86974 19.3857ZM6.95804 20.8079C6.95515 20.7613 6.95358 20.7359 6.95038 20.6853C6.92591 20.7359 6.89561 20.7602 6.95804 20.8079ZM7.07172 20.6884C7.03176 20.6643 7.02228 20.6612 6.97491 20.6686C7.007 20.694 7.03927 20.7006 7.07172 20.6884ZM7.97678 18.788C7.94133 18.8073 7.91504 18.8216 7.88869 18.836C7.93092 18.8523 7.96731 18.8575 7.97678 18.788ZM6.94894 20.1807C6.98313 20.2447 7.01337 20.2348 7.04387 20.2238C7.0455 20.2153 7.04707 20.2069 7.0487 20.1985C7.02134 20.1936 6.99399 20.1887 6.949 20.1807H6.94894ZM6.84799 22.4884C6.84121 22.486 6.83443 22.4835 6.82766 22.4811C6.81818 22.5076 6.80877 22.5341 6.7993 22.5607C6.8419 22.5496 6.84886 22.5237 6.84799 22.4884V22.4884ZM6.87478 22.217C6.88601 22.2482 6.89209 22.2651 6.90056 22.2885C6.9379 22.2527 6.95571 22.2291 6.87478 22.217ZM6.851 21.188C6.82032 21.1909 6.79911 21.1929 6.76567 21.196C6.80708 21.2456 6.82998 21.2528 6.851 21.188ZM8.15397 19.9865C8.17448 20.0033 8.1849 20.0237 8.20711 19.9969C8.19776 19.9856 8.18848 19.9744 8.17913 19.9632C8.17172 19.97 8.16432 19.9769 8.15397 19.9865V19.9865ZM6.78411 19.6494C6.79183 19.6458 6.79955 19.6421 6.80727 19.6385C6.80112 19.6116 6.82226 19.5714 6.75136 19.5607C6.76523 19.5982 6.77464 19.6238 6.78411 19.6494ZM8.00044 19.3371C7.99134 19.3349 7.98218 19.3326 7.97308 19.3304C7.96756 19.3514 7.96198 19.3724 7.95645 19.3934C7.96894 19.3955 7.98143 19.3975 7.99397 19.3996C7.99617 19.3787 7.9983 19.358 8.0005 19.3371H8.00044ZM6.8365 19.3477C6.86373 19.3768 6.88845 19.38 6.91067 19.3572C6.88306 19.3536 6.85978 19.3506 6.8365 19.3477ZM7.04976 19.0841C7.04757 19.0919 7.04537 19.0997 7.04324 19.1074C7.0748 19.1304 7.08873 19.1378 7.13334 19.1291C7.10542 19.0908 7.09061 19.086 7.04976 19.0841ZM7.66797 18.8294C7.67004 18.7836 7.65435 18.764 7.61281 18.7703C7.63132 18.7902 7.6482 18.8082 7.66797 18.8294ZM6.68937 21.1018C6.72836 21.1259 6.75613 21.1259 6.7727 21.1018H6.68937ZM6.3628 21.4335C6.35113 21.4504 6.34109 21.4649 6.32453 21.4888C6.37158 21.4863 6.39342 21.48 6.3628 21.4335ZM7.42258 22.4436C7.42195 22.4352 7.42139 22.4269 7.42076 22.4185C7.40351 22.4205 7.38632 22.4226 7.36906 22.4246C7.36799 22.4565 7.40156 22.4399 7.42258 22.4436Z" fill="white"/>
<path d="M2.55696 20.2998C2.55018 19.6811 2.83365 18.8317 3.3445 18.3536C3.90046 17.7382 5.14351 17.6721 5.33487 18.6384C5.64231 19.6771 5.39554 20.7469 5.0477 21.7422C4.75695 22.704 3.86432 23.2657 3.10639 22.3657C2.66305 21.7566 2.58657 21.1285 2.55696 20.2998V20.2998ZM4.48289 19.9637C4.54168 19.9244 4.52549 19.8542 4.44318 19.8649C4.45993 19.9066 4.47141 19.9353 4.48289 19.9639C4.45522 19.9548 4.42762 19.9458 4.38878 19.933C4.42015 19.968 4.45152 19.9782 4.48289 19.9637ZM4.57588 20.2792C4.58416 20.2316 4.58792 20.2099 4.59112 20.1914C4.54256 20.156 4.49532 20.1545 4.44914 20.188C4.46125 20.2095 4.48208 20.2303 4.47787 20.2421C4.45918 20.2942 4.51809 20.2952 4.52117 20.2903C4.58196 20.2013 4.64207 20.3996 4.74835 20.3549C4.76856 20.351 4.79265 20.3666 4.81838 20.3743C4.83042 20.3352 4.84071 20.3016 4.85244 20.2634C4.80526 20.2673 4.78933 20.1946 4.73455 20.2129C4.68881 20.2281 4.64521 20.2498 4.57581 20.2792H4.57588ZM4.05405 19.9403C4.04119 19.8884 4.11685 19.8781 4.06842 19.8208C4.05725 19.8076 4.09207 19.7555 4.10876 19.7138C4.0132 19.7105 3.98786 19.7762 3.95567 19.828C3.98591 19.8625 4.01258 19.8929 4.05405 19.9403ZM4.70782 19.5827C4.70513 19.6978 4.75551 19.77 4.84291 19.8271C4.84711 19.7789 4.85075 19.7372 4.85332 19.7075C4.80514 19.6662 4.76228 19.6294 4.70782 19.5827ZM3.54998 21.7412C3.5314 21.876 3.64585 21.8467 3.72973 21.8917C3.73356 21.8844 3.73739 21.877 3.74122 21.8697C3.68525 21.8321 3.62935 21.7945 3.54991 21.7412H3.54998ZM4.76868 20.7269C4.7232 20.743 4.69107 20.7543 4.65907 20.7658C4.63718 20.7514 4.61534 20.737 4.59263 20.7221C4.52361 20.8588 4.78462 20.8164 4.76868 20.7269ZM3.44407 21.9021C3.41458 21.8902 3.38829 21.8796 3.36897 21.8717C3.3056 21.9057 3.29399 21.9282 3.27115 22.0023C3.33998 21.9624 3.39024 21.9333 3.44413 21.9021H3.44407ZM3.99369 18.843C4.04997 18.8274 4.10719 18.7465 4.04997 18.6756C4.0016 18.727 3.98202 18.7779 3.99369 18.843ZM3.37122 22.0666C3.39651 22.1109 3.41791 22.1484 3.45254 22.2091C3.47519 22.1576 3.48849 22.1274 3.49677 22.1086C3.44984 22.0929 3.41565 22.0815 3.37122 22.0666ZM3.69221 18.5206C3.59245 18.5131 3.5747 18.5291 3.56936 18.6281C3.61272 18.5902 3.64704 18.5602 3.69221 18.5206ZM3.77083 22.2271C3.76903 22.2828 3.78649 22.3128 3.82322 22.3169C3.82519 22.2729 3.80772 22.2429 3.77083 22.2271ZM3.3573 21.5222V21.6089C3.42826 21.6028 3.44407 21.5459 3.3573 21.5222ZM4.56841 19.9786C4.59062 20.0151 4.61252 20.0511 4.63749 20.0922C4.66453 19.9938 4.65418 19.9786 4.56841 19.9786ZM3.01579 19.7712C3.0119 19.7331 3.00663 19.7016 2.9617 19.695C2.92927 19.7365 2.95261 19.7976 3.01579 19.7712ZM4.36149 18.7781C4.33526 18.7578 4.31644 18.7433 4.29755 18.7288C4.29253 18.7326 4.28745 18.7364 4.28243 18.7402C4.28827 18.7633 4.2941 18.7863 4.30194 18.8172C4.32535 18.8018 4.33909 18.7928 4.36149 18.778V18.7781ZM3.94764 22.5055C3.91305 22.4723 3.87525 22.4609 3.83426 22.4715C3.87843 22.5006 3.88609 22.5117 3.94764 22.5055ZM4.58541 20.4526H4.46514C4.50165 20.4585 4.53409 20.519 4.58541 20.4526ZM3.50029 21.6827C3.5085 21.6899 3.51672 21.6972 3.52494 21.7043C3.54446 21.6673 3.57476 21.6571 3.54433 21.6098C3.52563 21.6408 3.51302 21.6617 3.50035 21.6827H3.50029ZM4.00147 18.5211C3.98786 18.4916 3.978 18.4701 3.96414 18.4401C3.95071 18.4728 3.94193 18.4942 3.93089 18.5211H4.00147ZM3.51741 21.9659C3.5112 21.9701 3.50505 21.9742 3.49884 21.9783C3.50455 21.9951 3.51032 22.0119 3.51603 22.0286C3.53266 22.0225 3.54929 22.0165 3.57859 22.0057C3.5496 21.9869 3.53348 21.9764 3.51735 21.9659H3.51741ZM4.05593 19.0874C4.05275 19.0513 4.03322 19.0349 3.99733 19.0382C4.01948 19.0568 4.03654 19.0711 4.05593 19.0874ZM4.8249 18.4776C4.82245 18.5434 4.82722 18.575 4.89649 18.5602C4.87271 18.5328 4.85621 18.5137 4.8249 18.4776ZM4.77264 21.2768C4.79957 21.2535 4.79957 21.2294 4.77264 21.2044V21.2768ZM4.92705 20.1459C4.96331 20.1308 4.96544 20.1102 4.93344 20.0839C4.93106 20.1068 4.92918 20.1252 4.92705 20.1459ZM4.23424 20.138C4.26223 20.1004 4.25733 20.0843 4.22163 20.0689C4.18004 20.0874 4.20419 20.11 4.23424 20.138ZM3.80032 22.0323C3.8022 22.0254 3.80415 22.0187 3.80603 22.0118C3.78796 22.0074 3.76989 22.0028 3.75176 21.9984C3.73777 22.0299 3.78093 22.022 3.80032 22.0323Z" fill="white"/>
<path d="M0.00268821 18.3991C0.0170562 17.5221 0.210114 16.6086 0.775296 15.9132C1.17013 15.4063 1.81469 15.3831 2.34241 15.6833C2.88168 16.0164 2.92284 16.7875 2.81084 17.3549C2.6299 18.3323 2.03849 19.5854 1.04164 19.9358C0.211619 20.1009 -0.0311298 19.0291 0.00275102 18.3991H0.00268821ZM2.48314 16.8213C2.52399 16.742 2.52142 16.7338 2.445 16.7059C2.45874 16.7458 2.47204 16.7845 2.4854 16.8231C2.4524 16.8412 2.42391 16.8625 2.42027 16.9139C2.48038 16.9008 2.49349 16.8688 2.48314 16.8214V16.8213ZM2.33162 16.5817C2.36945 16.5918 2.40729 16.6021 2.45328 16.6144C2.45133 16.5218 2.39562 16.5189 2.33796 16.5029C2.33645 16.5359 2.33538 16.5601 2.33432 16.5843C2.30295 16.5992 2.25965 16.5865 2.25219 16.6294C2.27741 16.6344 2.30125 16.6392 2.33162 16.6452V16.5817V16.5817ZM2.26725 17.5239C2.14891 17.4678 2.10983 17.5617 2.05398 17.6106C2.03717 17.6007 2.02148 17.5915 2.00216 17.58C1.98804 17.6287 1.9765 17.6683 1.96489 17.7082C1.92988 17.7046 1.90347 17.7019 1.87655 17.6991C1.87875 17.747 1.88063 17.7887 1.88251 17.8304C1.91162 17.7373 2.00875 17.7399 2.06252 17.6656C2.11221 17.6395 2.14013 17.7191 2.1705 17.7459C2.13781 17.761 2.11899 17.7698 2.08554 17.7853C2.17426 17.7962 2.24253 17.8047 2.30853 17.8128C2.29943 17.7864 2.28864 17.7548 2.27785 17.7233C2.21753 17.7441 2.18229 17.6908 2.17213 17.5633C2.20156 17.5512 2.23104 17.5389 2.26737 17.5239H2.26725ZM0.710985 19.3972C0.569878 19.4415 0.531606 19.5395 0.694234 19.6046C0.685952 19.5757 0.679865 19.5543 0.671772 19.5262C0.731565 19.5269 0.794308 19.6049 0.835278 19.5115C0.797382 19.4767 0.759172 19.4415 0.710985 19.3972ZM1.09252 18.5089C1.14497 18.537 1.19027 18.5674 1.21845 18.4923C1.185 18.4682 1.15125 18.4438 1.11749 18.4195C1.11724 18.4258 1.11699 18.4321 1.11674 18.4384C1.08568 18.4438 1.05469 18.4491 1.03342 18.4528C1.01146 18.4911 0.99019 18.5281 0.970614 18.5623C1.00782 18.5727 1.04973 18.5844 1.09798 18.5979C1.09622 18.5694 1.09503 18.5495 1.09252 18.5089V18.5089ZM2.56182 17.2228C2.50937 17.2307 2.47222 17.2363 2.43276 17.2423C2.41651 17.285 2.42134 17.3215 2.46539 17.3576C2.49826 17.3116 2.5265 17.2721 2.56182 17.2227V17.2228ZM0.606646 19.1783C0.576969 19.1449 0.550805 19.1154 0.519935 19.0806C0.501615 19.0916 0.47658 19.1065 0.443954 19.1259C0.485489 19.1583 0.518368 19.1839 0.550429 19.209C0.573204 19.1965 0.593721 19.1854 0.606646 19.1783ZM0.418105 18.7635C0.357747 18.7314 0.310377 18.7061 0.261751 18.6802C0.266394 18.7181 0.309728 18.7614 0.391753 18.8101C0.399784 18.7959 0.407752 18.7819 0.418168 18.7635H0.418105ZM0.924435 17.986C0.940183 17.9043 0.87763 17.9185 0.841804 17.9024C0.806354 17.8864 0.794182 17.904 0.789665 17.9357C0.831451 17.9513 0.873363 17.967 0.924435 17.986ZM1.20452 18.2381C1.14485 18.2072 1.12753 18.2255 1.11003 18.3585C1.14949 18.3082 1.1749 18.2758 1.20452 18.2381ZM1.80509 18.3875C1.74623 18.3772 1.73306 18.4267 1.68801 18.4643C1.7712 18.4826 1.78463 18.4299 1.80509 18.3875ZM1.88502 17.2715C1.93578 17.2876 1.9701 17.3298 2.00894 17.2665C1.97079 17.236 1.93616 17.2301 1.88502 17.2715ZM0.942317 19.1003C0.990754 19.146 1.02156 19.1876 1.06492 19.1076C1.02363 19.1051 0.992072 19.1033 0.942317 19.1003ZM2.3601 17.1385C2.34699 17.104 2.33382 17.0695 2.31418 17.0179C2.26743 17.0961 2.3096 17.1189 2.3601 17.1385ZM1.35604 18.2996C1.33216 18.3384 1.34073 18.373 1.38176 18.4032C1.37166 18.3626 1.36507 18.3358 1.35604 18.2996ZM0.731816 17.8219C0.703917 17.8554 0.710943 17.8875 0.752897 17.918C0.746497 17.8889 0.740538 17.8616 0.731816 17.8219ZM0.611915 18.6682C0.610158 18.6783 0.60834 18.6883 0.606583 18.6984C0.64793 18.7008 0.689215 18.7033 0.730562 18.7058C0.731377 18.6977 0.732192 18.6896 0.733008 18.6815C0.692665 18.6771 0.652258 18.6727 0.611915 18.6682ZM1.47148 19.2786C1.43196 19.2726 1.41269 19.2697 1.38979 19.2662C1.39136 19.2926 1.3923 19.3088 1.39406 19.3391C1.42135 19.3177 1.43811 19.3046 1.47148 19.2786ZM0.348335 19.141C0.360193 19.1685 0.369165 19.1893 0.381463 19.2178C0.399407 19.179 0.388364 19.1534 0.348335 19.141ZM1.99011 17.429C1.94272 17.4546 1.93128 17.4809 1.95579 17.5079C1.96451 17.4878 1.97223 17.47 1.99011 17.429ZM1.6274 18.0899C1.62727 18.0979 1.62715 18.1059 1.62702 18.1139H1.70043C1.70068 18.1072 1.701 18.1005 1.70125 18.0937C1.67665 18.0925 1.65199 18.0912 1.6274 18.0899ZM2.34116 17.5755C2.31192 17.6027 2.30546 17.6122 2.33175 17.64C2.36343 17.6173 2.37855 17.613 2.34116 17.5755ZM0.861755 16.832C0.839482 16.8244 0.821538 16.8183 0.793241 16.8087C0.800708 16.8729 0.818965 16.8784 0.861755 16.832ZM1.23808 18.3671C1.24881 18.3232 1.25088 18.3165 1.21807 18.2968C1.19567 18.3311 1.20489 18.3349 1.23808 18.3671ZM2.01534 18.3912C1.98102 18.3765 1.96715 18.3707 1.95335 18.3648C1.95209 18.3782 1.9509 18.3915 1.94964 18.405C1.96433 18.4019 1.97901 18.3988 2.01534 18.3912ZM0.686265 18.9335C0.690093 18.9404 0.693983 18.9473 0.69781 18.9541C0.717512 18.9408 0.757352 18.9551 0.754465 18.8972C0.727549 18.9116 0.706908 18.9225 0.686265 18.9335Z" fill="white"/>
<path d="M9.51783 18.1583C9.35627 15.7223 11.7295 16.3344 11.9212 18.2249C11.9777 19.1821 11.8221 20.353 11.0125 20.9695C10.6902 21.2166 10.2474 20.9935 10.1506 20.6221C9.77789 19.914 9.5758 18.8976 9.51783 18.1583ZM10.3157 17.8036C10.296 17.8616 10.2897 17.9039 10.2968 17.9306C10.3359 17.8886 10.3418 17.8466 10.3145 17.8047C10.3174 17.7586 10.3202 17.7125 10.3231 17.6651C10.2786 17.6567 10.2402 17.6641 10.2079 17.6873C10.271 17.7033 10.2584 17.7831 10.3157 17.8036ZM10.9098 17.9233C10.9902 17.9508 11.0278 17.8647 11.0976 17.8639C11.0972 17.8561 11.0968 17.8484 11.0964 17.8406C11.045 17.8313 10.9936 17.822 10.9271 17.8099C10.926 17.8083 10.9123 17.7902 10.8979 17.7711C10.8827 17.7828 10.8744 17.7891 10.8607 17.7997C10.934 17.8216 10.9007 17.8815 10.9116 17.9261C10.8574 17.8979 10.8273 17.9504 10.8786 17.9981C10.8911 17.968 10.9005 17.9457 10.9098 17.9233H10.9098ZM10.0322 18.0805C10.0622 18.0764 10.0922 18.0722 10.1264 18.0675C10.121 17.9862 10.1163 17.9136 10.1113 17.8408C10.1683 17.825 10.194 17.795 10.1885 17.7506C10.1227 17.7496 10.1282 17.8046 10.1145 17.8446C10.0797 17.8339 10.0449 17.8232 10.0105 17.8126C9.98306 17.8738 10.0984 17.8794 10.0513 17.9436C10.0368 17.9415 10.0213 17.9393 9.99969 17.9362C10.0017 17.9893 10.0775 18.024 10.034 18.0831C10.0329 18.1043 10.0318 18.1254 10.0302 18.1552C10.0698 18.1626 10.1082 18.1699 10.1462 18.1769C10.1401 18.2036 10.1355 18.2238 10.1286 18.2544C10.1849 18.2143 10.2291 18.1828 10.2733 18.1514C10.2719 18.1442 10.2705 18.137 10.2692 18.1298C10.189 18.1107 10.0705 18.1767 10.0323 18.0805H10.0322ZM10.9557 17.5133C11.0451 17.6315 11.1122 17.4595 11.1756 17.4062C11.1164 17.3692 11.0289 17.377 10.9883 17.31C10.9023 17.3238 10.9496 17.389 10.9328 17.4291C10.9118 17.4153 10.8909 17.4015 10.869 17.3871C10.8351 17.4812 10.9106 17.4635 10.9557 17.5133ZM10.1291 19.5244C10.1871 19.5625 10.2374 19.5955 10.2907 19.6304C10.3503 19.5784 10.4071 19.567 10.4467 19.6579C10.4474 19.6594 10.4523 19.6591 10.4648 19.6614C10.4514 19.5945 10.4528 19.5417 10.3682 19.5523C10.3699 19.536 10.3716 19.5197 10.3746 19.4907C10.3181 19.4878 10.2648 19.4851 10.2109 19.4822C10.1875 19.4292 10.1611 19.3693 10.1345 19.3091H10.0466C10.0461 19.3139 10.0456 19.3187 10.0451 19.3236C10.0734 19.3294 10.1017 19.3352 10.1207 19.3391C10.1237 19.4053 10.1266 19.4697 10.1291 19.5243V19.5244ZM9.91292 18.6318C9.99655 18.5516 10.071 18.4804 10.1615 18.3937C10.0587 18.408 10.0195 18.4169 9.92409 18.4436C9.89303 18.4837 9.90614 18.5281 9.84867 18.5705C9.87308 18.5937 9.89604 18.6156 9.91298 18.6318H9.91292ZM10.0147 19.1589C10.0811 19.1939 10.149 19.2295 10.2248 19.2694C10.2369 19.2606 10.2585 19.2449 10.2819 19.228C10.2446 19.2074 10.2138 19.1904 10.18 19.1717C10.2055 19.148 10.2199 19.1346 10.2364 19.1193C10.1207 19.0624 10.089 19.0695 10.0147 19.159L10.0147 19.1589ZM10.1549 17.2829C10.2482 17.3246 10.3261 17.3594 10.4093 17.3966C10.4144 17.3651 10.4183 17.3404 10.4234 17.3089C10.3784 17.3154 10.3447 17.3202 10.3079 17.3255C10.3032 17.2963 10.2996 17.2741 10.2952 17.2467C10.2635 17.2568 10.2392 17.2646 10.2113 17.2735C10.2194 17.2371 10.2258 17.208 10.2339 17.1717C10.1678 17.2065 10.0975 17.3348 10.1217 17.3765H10.1761C10.1694 17.3474 10.1645 17.3254 10.1548 17.2829L10.1549 17.2829ZM11.2577 17.8417C11.3696 17.8361 11.3354 17.9367 11.4017 17.9862C11.4193 17.9231 11.4349 17.8671 11.4503 17.8115C11.3268 17.7511 11.3129 17.761 11.2577 17.8417ZM10.5079 18.1808C10.5407 18.1573 10.5713 18.1352 10.6019 18.1132C10.5109 18.1123 10.4229 18.1438 10.3724 18.0321C10.3521 18.056 10.3394 18.0709 10.325 18.0879C10.4161 18.1937 10.4014 18.0736 10.5079 18.1808ZM10.4048 17.8831C10.4537 17.9247 10.5082 17.9312 10.5682 17.9028C10.5439 17.8725 10.52 17.843 10.4927 17.809C10.4633 17.8338 10.4378 17.8554 10.4048 17.8831ZM10.5668 20.7562H10.7084C10.6882 20.6688 10.6326 20.7328 10.5757 20.6957C10.6071 20.6833 10.6385 20.6707 10.6698 20.6582C10.6636 20.6495 10.6574 20.6408 10.6512 20.6321C10.619 20.6401 10.5868 20.6482 10.5513 20.6572C10.5568 20.6922 10.561 20.719 10.5668 20.7562H10.5668ZM10.9914 17.2236C10.9915 17.2161 10.9916 17.2085 10.9918 17.2009C10.9233 17.2228 10.8857 17.2048 10.8189 17.168C10.8536 17.2279 10.8363 17.2647 10.7895 17.2982C10.8567 17.2733 10.9241 17.2484 10.9913 17.2236L10.9914 17.2236ZM10.5063 18.4112C10.5019 18.3837 10.4982 18.361 10.4941 18.3356C10.4631 18.3397 10.4272 18.3445 10.3877 18.3498C10.3849 18.3831 10.3822 18.4149 10.3798 18.4424C10.429 18.4303 10.4718 18.4198 10.5063 18.4112ZM10.5874 19.8562C10.4787 19.9144 10.5452 20.0013 10.4941 20.0661C10.5955 20.0432 10.5543 19.95 10.5874 19.8562ZM11.3817 18.913C11.4163 18.9338 11.4467 18.9521 11.4884 18.9772C11.4923 18.9241 11.4955 18.8818 11.5 18.8204C11.4508 18.859 11.4194 18.8836 11.3818 18.913H11.3817ZM9.80971 18.1716C9.87602 18.1526 9.91976 18.1401 9.97353 18.1247C9.93506 18.1026 9.90821 18.0872 9.87634 18.0688C9.85626 18.0998 9.83788 18.1281 9.80971 18.1716ZM10.7397 16.9567C10.7192 17.0087 10.7069 17.0402 10.6891 17.0851C10.7406 17.0677 10.7712 17.0574 10.8187 17.0414C10.7906 17.0112 10.7707 16.99 10.7397 16.9567ZM10.3364 17.0682C10.3293 17.0658 10.3223 17.0635 10.3152 17.0611C10.282 17.1271 10.2335 17.1544 10.3364 17.1931V17.0682ZM10.9826 19.2488V19.3541C11.0174 19.3373 11.041 19.3259 11.0736 19.3103C11.0409 19.2882 11.0171 19.2722 10.9826 19.2488ZM9.89836 18.0029C9.84446 17.9523 9.79879 18.0075 9.82872 18.0482C9.85005 18.0343 9.87082 18.0208 9.89836 18.0029ZM11.1422 18.0166C11.182 18.0036 11.204 17.9963 11.2408 17.9843C11.2117 17.9649 11.198 17.9558 11.1792 17.9433C11.1684 17.9647 11.1599 17.9815 11.1422 18.0166ZM10.5858 16.9672C10.6049 16.9888 10.624 17.0105 10.6524 17.0428C10.6563 16.9862 10.642 16.9613 10.5858 16.9672ZM10.8792 17.0524C10.8625 17.0812 10.8515 17.1002 10.8378 17.124C10.8556 17.1284 10.868 17.1315 10.8893 17.1367C10.8858 17.1073 10.8832 17.0852 10.8792 17.0524ZM10.4354 17.0077C10.4298 17.0083 10.4241 17.0089 10.4186 17.0094C10.4195 17.026 10.4204 17.0426 10.4214 17.0593C10.4283 17.0584 10.4352 17.0576 10.4421 17.0567C10.4399 17.0404 10.4376 17.0241 10.4354 17.0077H10.4354ZM10.7954 18.0548C10.8327 18.0344 10.8165 18.0266 10.8003 18.0014C10.7904 18.0083 10.7805 18.0152 10.7706 18.0222C10.7781 18.0321 10.7857 18.042 10.7954 18.0548ZM10.0028 19.0256C10.0051 19.0316 10.0073 19.0376 10.0095 19.0437C10.0284 19.0355 10.0472 19.0272 10.0659 19.019C10.0646 19.0151 10.0632 19.0112 10.0618 19.0074C10.0421 19.0135 10.0225 19.0196 10.0028 19.0256H10.0028ZM10.7751 20.5799C10.8043 20.6112 10.8097 20.5996 10.8263 20.5733C10.8143 20.5432 10.7961 20.5625 10.7751 20.5799Z" fill="white"/>
<path d="M16.5025 7.27151C14.5899 6.6129 11.2797 3.30971 12.9711 1.24473C14.4097 -0.266478 16.0754 2.14333 16.9822 1.61334C17.7577 1.09409 18.3579 0.249954 19.3129 0.0432185C20.6243 -0.274885 21.1215 1.2303 21.0752 2.29956C21.0395 4.80266 19.5203 8.08772 16.5025 7.27157L16.5025 7.27151ZM17.3826 6.06654C17.4445 6.13763 17.438 6.0491 17.479 6.01152C17.4429 6.017 17.4314 6.03511 17.4447 6.06585C17.4246 6.06648 17.4036 6.06648 17.3826 6.06648V6.06654ZM19.8507 2.40553C19.8846 2.37341 19.8613 2.33971 19.8615 2.30966C19.8374 2.27661 19.8427 2.23782 19.8774 2.19327C19.8466 2.20275 19.8198 2.20614 19.8192 2.21203C19.8222 2.252 19.7998 2.31524 19.8615 2.30947C19.8619 2.33965 19.8104 2.3618 19.8507 2.40547V2.40553ZM19.8488 3.40665C19.8388 3.44538 19.849 3.46972 19.8793 3.47968C19.869 3.50145 19.8582 3.52353 19.8451 3.55083C19.7966 3.52573 19.7668 3.54066 19.7571 3.59255C19.828 3.64739 19.8474 3.64381 19.9333 3.55654C19.9146 3.53232 19.8954 3.50735 19.8762 3.48244C19.8774 3.45339 19.8933 3.41901 19.8488 3.40665ZM19.9219 2.1124C19.9601 2.12018 20.0075 2.15588 20.0431 2.08398C20.0047 2.04068 19.9598 2.02926 19.9054 2.05053C19.905 2.02525 19.905 1.99952 19.905 1.96382C19.803 2.057 19.7408 2.0836 19.6035 2.04978C19.5822 2.03002 19.5679 1.95366 19.5006 2.01565C19.507 2.0356 19.5136 2.05631 19.5217 2.08172C19.6491 2.06835 19.783 2.12946 19.9066 2.04884C19.9113 2.06835 19.916 2.08793 19.9218 2.1124H19.9219ZM18.653 0.863325C18.6515 0.870854 18.6501 0.878382 18.6486 0.885974C18.6971 0.895887 18.7457 0.905801 18.8049 0.91791C18.8235 0.904609 18.8538 0.883025 18.8844 0.861191C18.8709 0.84927 18.8172 0.845756 18.8434 0.80604C18.8914 0.720209 19.009 0.640526 19.027 0.78772V0.67679C18.9816 0.672147 18.9357 0.667442 18.8935 0.663113C18.8387 0.733572 18.7841 0.803719 18.726 0.878445C18.6958 0.872233 18.6744 0.867779 18.653 0.863387V0.863325ZM17.508 6.4413C17.5496 6.41512 17.5588 6.37178 17.5356 6.3113C17.4768 6.30948 17.5085 6.34732 17.5098 6.37812C17.4398 6.32805 17.463 6.28802 17.5242 6.24931C17.4871 6.20514 17.4458 6.19874 17.4002 6.23011C17.4189 6.24178 17.4359 6.2522 17.4525 6.26255C17.4355 6.32937 17.3755 6.28112 17.3382 6.30064C17.3964 6.34882 17.4501 6.39337 17.508 6.4413ZM14.5697 2.21341C14.5863 2.20011 14.6057 2.18461 14.6436 2.15425C14.5535 2.14942 14.4847 2.14578 14.4008 2.14126C14.4826 2.23613 14.5501 2.31443 14.6268 2.40333C14.6487 2.32064 14.5829 2.27961 14.5696 2.21341H14.5697ZM20.0477 1.58034C20.0963 1.54295 20.0432 1.48742 20.0012 1.48328C19.9621 1.48171 19.9277 1.50907 19.8834 1.47287C19.8564 1.45078 19.8173 1.50424 19.8139 1.58693C19.9315 1.50468 19.9468 1.62138 20.0478 1.58034H20.0477ZM17.7274 2.63366C17.8345 2.6607 17.7744 2.53961 17.7704 2.48007C17.7498 2.46212 17.7234 2.4391 17.6808 2.40208C17.6605 2.42178 17.639 2.44261 17.611 2.46971C17.6669 2.52292 17.7066 2.56069 17.7512 2.60317C17.7463 2.60944 17.7368 2.62155 17.7273 2.63366H17.7274ZM19.399 5.22498C19.3258 5.04786 19.4421 5.15791 19.5128 5.1027C19.4977 5.08199 19.482 5.06041 19.4643 5.03619C19.4329 5.04071 19.4026 5.0451 19.3665 5.05024C19.3503 5.11129 19.3338 5.17341 19.3131 5.25171C19.353 5.23929 19.372 5.23333 19.399 5.22498ZM17.0255 4.06676C16.9967 4.02252 16.9679 3.97817 16.9343 3.92659C16.9219 3.93092 16.8969 3.93964 16.8667 3.95012C16.8701 3.98413 16.8738 4.02077 16.8785 4.06676H17.0255ZM17.2507 4.46906C17.2478 4.51173 17.2052 4.59335 17.2678 4.60415C17.2843 4.53714 17.3868 4.5623 17.3893 4.46906H17.2507ZM20.2828 3.80343C20.2433 3.76083 20.2127 3.72469 20.1446 3.73554C20.1629 3.76798 20.1772 3.79364 20.1934 3.82238C20.1787 3.84233 20.1626 3.86423 20.1464 3.88612C20.246 3.99442 20.186 3.79508 20.2827 3.80343H20.2828ZM19.3191 1.71725C19.3503 1.66843 19.3802 1.62169 19.4117 1.57238C19.3952 1.56315 19.3748 1.55167 19.3441 1.53448C19.3107 1.59503 19.2791 1.65237 19.2455 1.71323C19.2708 1.71461 19.2955 1.71599 19.319 1.71725H19.3191ZM15.4037 5.28528C15.3377 5.35498 15.3197 5.35003 15.231 5.30592C15.2431 5.34513 15.2512 5.37123 15.2573 5.39112C15.3059 5.39608 15.3472 5.40035 15.4037 5.40612V5.28534L15.4037 5.28528ZM20.48 3.42352C20.477 3.45151 20.4741 3.47893 20.4712 3.50634C20.5286 3.50151 20.6102 3.53439 20.6316 3.46167C20.5807 3.44881 20.5373 3.43789 20.48 3.42346V3.42352ZM19.6622 0.322861C19.6301 0.328508 19.6013 0.333591 19.5694 0.339238C19.6481 0.403611 19.6954 0.546601 19.8023 0.422623C19.7247 0.430716 19.6702 0.410136 19.6622 0.322861ZM19.962 2.79309L19.9781 2.79855C20.0008 2.73035 20.0892 2.66302 20.047 2.59125C20.0239 2.61515 19.9928 2.62149 19.962 2.63234V2.79309ZM17.5786 2.18003C17.5991 2.08385 17.5137 2.05819 17.479 1.99651C17.405 2.07318 17.5821 2.08937 17.4916 2.15237C17.5291 2.16429 17.5519 2.17156 17.5785 2.18003H17.5786ZM15.0696 3.37151C15.0736 3.3525 15.077 3.33656 15.08 3.32276C15.1234 3.28079 15.1956 3.38738 15.2056 3.303C15.112 3.24872 15.0889 3.25167 15.0022 3.32891C15.0247 3.34892 15.0384 3.36041 15.0696 3.37151ZM18.8286 0.607273C18.7553 0.591775 18.7044 0.620323 18.6754 0.693167C18.7597 0.686181 18.8108 0.65755 18.8286 0.607273ZM18.471 5.23841C18.4661 5.23031 18.4612 5.22228 18.4563 5.21419C18.3916 5.26457 18.346 5.25679 18.2911 5.19825C18.2997 5.3152 18.4115 5.31784 18.471 5.23841ZM17.1911 1.85026C17.1716 1.87567 17.1534 1.89939 17.1264 1.93471C17.2281 1.91031 17.2336 1.9913 17.2683 2.04024C17.2788 1.99687 17.2531 1.93354 17.1911 1.85026ZM15.5273 1.79768C15.4827 1.89167 15.5891 1.91915 15.6555 1.9243C15.66 1.91746 15.6645 1.91062 15.6691 1.90378C15.6223 1.86877 15.5754 1.83376 15.5273 1.79768ZM14.9366 2.77427C14.9174 2.74064 14.9 2.71014 14.8766 2.66892C14.7774 2.72903 14.8346 2.84855 14.9366 2.77427ZM20.1707 2.37146C20.0931 2.39191 20.1061 2.43276 20.0992 2.49607C20.1352 2.50448 20.1738 2.51351 20.2131 2.52267C20.2457 2.45692 20.1713 2.47982 20.1504 2.4534C20.1559 2.43125 20.1616 2.40823 20.1707 2.37146ZM20.5604 3.73328C20.5034 3.69626 20.4735 3.74019 20.4237 3.76051C20.4663 3.79439 20.4983 3.81993 20.5359 3.84986C20.5452 3.80575 20.5529 3.76905 20.5604 3.73328ZM13.589 4.17104C13.5686 4.21163 13.4882 4.21132 13.5169 4.29075C13.5672 4.25467 13.615 4.22035 13.6628 4.18603C13.6598 4.17944 13.6568 4.17279 13.6538 4.1662C13.6313 4.1674 13.594 4.16112 13.589 4.17104ZM17.1811 4.14349C17.1653 4.21477 17.2155 4.21351 17.247 4.22914C17.2866 4.24871 17.3031 4.22211 17.3289 4.18453C17.2709 4.1684 17.2268 4.15617 17.1811 4.14343V4.14349ZM15.351 2.30897C15.375 2.36832 15.3936 2.41425 15.4156 2.46877C15.4321 2.44964 15.45 2.42887 15.4736 2.40139C15.4227 2.38439 15.4199 2.31619 15.351 2.30897ZM18.9176 4.84225C18.8584 4.78974 18.8441 4.89427 18.8124 4.95142C18.9038 4.95764 18.9022 4.91033 18.9176 4.84225ZM17.8263 2.58115C17.8294 2.59118 17.8309 2.60242 17.8332 2.60254C17.8806 2.60612 17.9036 2.69603 17.9742 2.63567C17.9401 2.60518 17.9074 2.57588 17.8736 2.54557C17.8574 2.55774 17.8413 2.56985 17.8263 2.58108V2.58115ZM16.3806 6.5491C16.3216 6.51622 16.2755 6.49049 16.2151 6.45686C16.2336 6.54759 16.3048 6.59904 16.3806 6.5491ZM17.4267 4.16363C17.4538 4.17675 17.4813 4.18998 17.5085 4.2031C17.5188 4.15813 17.4954 4.12509 17.4383 4.10397C17.4333 4.12981 17.43 4.14657 17.4267 4.16363ZM20.0305 2.94348C20.0707 2.96268 20.1025 2.97799 20.1388 2.99537C20.1273 2.94285 20.1184 2.90188 20.1063 2.84667C20.078 2.88281 20.0591 2.90697 20.0305 2.94348H20.0305ZM14.9415 2.49481C14.95 2.56935 15.0225 2.60599 15.0633 2.53026C15.0335 2.49481 14.9935 2.50215 14.9415 2.49481ZM20.3191 0.973687C20.3268 0.943446 20.3345 0.913266 20.3481 0.859183C20.2573 0.893942 20.2487 0.918035 20.3191 0.973687ZM14.7308 5.37638C14.7287 5.34331 14.7269 5.31452 14.7238 5.26451C14.6824 5.30943 14.6644 5.36427 14.592 5.31508C14.5963 5.32769 14.6005 5.34036 14.6048 5.35298C14.6432 5.36007 14.6815 5.36722 14.7308 5.37632V5.37638ZM16.8169 6.10206C16.8587 6.12734 16.895 6.14924 16.9465 6.18042C16.9181 6.10547 16.8749 6.07934 16.8169 6.10206ZM13.2451 2.68028C13.234 2.6415 13.2165 2.60574 13.1574 2.63899C13.1621 2.6986 13.2423 2.77364 13.2451 2.68028ZM12.9377 3.04757C12.9738 3.06025 13.003 3.07054 13.0329 3.08101C13.0272 3.03521 12.9886 3.01081 12.9548 2.95233C12.9481 2.98947 12.9432 3.01708 12.9377 3.04763V3.04757ZM17.1534 2.72181C17.0663 2.65493 17.0629 2.65455 17.025 2.71347C17.0676 2.7082 17.1056 2.76097 17.1534 2.72181ZM15.1658 3.07279C15.1474 3.05567 15.1304 3.03979 15.1134 3.02386C15.0972 3.06091 15.1 3.09618 15.1217 3.12964C15.1396 3.10655 15.1521 3.09049 15.1658 3.07279ZM16.5406 4.17273C16.6209 4.19563 16.6317 4.10453 16.5596 4.07328C16.5527 4.10917 16.5476 4.1359 16.5406 4.17273ZM16.7167 6.13543C16.7081 6.13205 16.6995 6.12866 16.691 6.12533C16.6699 6.15884 16.6488 6.19241 16.6136 6.24825C16.7126 6.23783 16.698 6.20658 16.7167 6.1355V6.13543ZM20.5578 1.58436C20.5204 1.57526 20.493 1.56867 20.4656 1.56202C20.4616 1.56767 20.4576 1.57338 20.4536 1.57903C20.4718 1.60149 20.49 1.62389 20.5124 1.65156C20.5285 1.62771 20.5395 1.6114 20.5578 1.5843L20.5578 1.58436ZM15.5176 5.45161C15.4838 5.48574 15.4257 5.50782 15.45 5.56705C15.4593 5.56843 15.4686 5.56981 15.4779 5.57119C15.4912 5.53135 15.5044 5.49151 15.5176 5.45161ZM15.2638 3.78586C15.2875 3.81698 15.3055 3.84051 15.3291 3.87157C15.3459 3.85205 15.3618 3.83348 15.3878 3.80311C15.3363 3.79596 15.3058 3.7917 15.2638 3.78586ZM19.4669 0.971555C19.487 0.947211 19.5039 0.926631 19.5292 0.896013C19.4948 0.890617 19.4704 0.886852 19.4325 0.880891C19.447 0.918913 19.4562 0.943447 19.467 0.971555H19.4669ZM19.6166 1.34769C19.578 1.41175 19.5805 1.41803 19.6667 1.44651C19.6449 1.40354 19.6315 1.377 19.6166 1.34769ZM20.1454 3.99097C20.1178 3.93048 20.0927 3.92578 20.0315 3.9813C20.0795 3.98538 20.1118 3.98808 20.1454 3.99097ZM20.6158 2.13329C20.6669 2.09069 20.684 2.05957 20.6158 2.02337V2.13329ZM14.7116 2.84799C14.6841 2.84435 14.6594 2.84115 14.6087 2.8345C14.649 2.87045 14.6732 2.89203 14.7186 2.9325C14.7149 2.88714 14.7132 2.86687 14.7116 2.84805V2.84799ZM19.6109 1.87793C19.636 1.92028 19.6674 1.93578 19.7141 1.92317C19.7016 1.85547 19.6605 1.86262 19.6109 1.87793ZM20.7255 2.20701C20.7689 2.14942 20.7395 2.10173 20.6832 2.11685C20.6775 2.12645 20.6717 2.13599 20.6659 2.14559C20.6836 2.16385 20.7013 2.1821 20.7255 2.20701H20.7255ZM19.679 4.59323C19.6572 4.57717 19.641 4.56531 19.6249 4.55339C19.6092 4.57554 19.5933 4.59768 19.5776 4.61983C19.5861 4.62548 19.5946 4.63113 19.6031 4.63677C19.6241 4.62473 19.6452 4.61268 19.6791 4.59323H19.679ZM14.267 1.91878C14.322 1.91758 14.3178 1.88069 14.3256 1.84794C14.2629 1.83947 14.2655 1.87517 14.267 1.91878ZM17.635 2.84234C17.5652 2.87509 17.538 2.90088 17.6037 2.9559C17.6131 2.92177 17.6216 2.89084 17.635 2.84234ZM16.6466 2.59188C16.6379 2.54796 16.6309 2.51301 16.6197 2.45685C16.5774 2.5435 16.5778 2.5435 16.6466 2.59188ZM19.224 0.753712C19.2065 0.768582 19.1912 0.781508 19.1696 0.799891C19.2027 0.811562 19.2331 0.822228 19.2696 0.835091C19.2525 0.804535 19.2397 0.781633 19.224 0.75365L19.224 0.753712ZM15.9835 5.97099C15.9793 5.95248 15.9753 5.93466 15.9714 5.91684C15.9423 5.92387 15.9014 5.88365 15.8853 5.93522C15.9163 5.94652 15.9469 5.95769 15.9835 5.97099H15.9835ZM19.0322 0.976636C18.9752 0.983098 18.932 0.999538 18.9468 1.08424C18.9835 1.038 19.0078 1.00732 19.0322 0.976636ZM16.8621 4.23842C16.8784 4.16332 16.8746 4.15955 16.778 4.16188C16.8149 4.19551 16.8369 4.21552 16.8621 4.23842ZM17.9812 1.68983C18.0576 1.68148 18.0937 1.6493 18.0314 1.59691C18.0139 1.62928 18.002 1.65124 17.9812 1.68983ZM15.9988 6.50656C16.0215 6.56717 16.0551 6.56371 16.0862 6.56641C16.0898 6.55437 16.0935 6.54238 16.0971 6.53034C16.0684 6.52337 16.0396 6.51647 15.9988 6.50662L15.9988 6.50656ZM16.4419 2.19083C16.4112 2.14383 16.3991 2.11484 16.3484 2.19083H16.4419ZM14.6632 5.68802C14.6897 5.69724 14.7136 5.70565 14.7545 5.71995C14.7262 5.65608 14.6958 5.64544 14.6632 5.68802ZM15.8384 5.36276C15.8849 5.36069 15.9143 5.35938 15.9437 5.35806C15.9429 5.34846 15.9421 5.33892 15.9412 5.32938C15.9097 5.31784 15.8787 5.30931 15.8384 5.36276ZM16.7428 3.66583C16.6689 3.62712 16.6754 3.71446 16.6448 3.7292C16.6749 3.70975 16.705 3.69024 16.7428 3.66583ZM19.5876 5.1889C19.5462 5.16669 19.5204 5.15283 19.4827 5.13262C19.4953 5.17818 19.5302 5.19694 19.5876 5.1889ZM15.4781 2.12005C15.4894 2.09859 15.4979 2.08253 15.5106 2.05838C15.4852 2.0526 15.4667 2.04846 15.432 2.04062C15.4501 2.0718 15.462 2.09232 15.4781 2.12005ZM14.2514 2.94693C14.2843 2.91399 14.2821 2.9022 14.244 2.86763C14.2082 2.91067 14.2082 2.92152 14.2514 2.94693ZM19.6206 3.87025C19.6656 3.88826 19.6935 3.89943 19.7267 3.91266C19.7216 3.87209 19.6863 3.85795 19.6206 3.87025ZM18.5292 0.899339C18.4814 0.946709 18.4771 0.971366 18.5292 1.00845V0.899339ZM17.6934 5.66869C17.6388 5.7049 17.6756 5.76199 17.7313 5.72849C17.7167 5.70534 17.7053 5.68745 17.6934 5.66869ZM18.4279 6.56854C18.4264 6.57733 18.425 6.58611 18.4234 6.5949C18.4512 6.60136 18.479 6.60782 18.5068 6.61428C18.5094 6.60199 18.512 6.58963 18.5147 6.57733C18.4857 6.57438 18.4568 6.57149 18.4279 6.56854ZM19.5964 3.16038C19.5926 3.15254 19.5888 3.14463 19.5851 3.13679C19.5549 3.15116 19.5247 3.16547 19.4945 3.17983C19.4978 3.18799 19.501 3.19621 19.5043 3.20436C19.535 3.18968 19.5657 3.17506 19.5964 3.16038ZM20.3755 1.61165C20.3686 1.60801 20.3617 1.60431 20.3548 1.60067C20.3377 1.63148 20.3207 1.66222 20.3036 1.69303C20.3121 1.69886 20.3205 1.7047 20.3289 1.71053C20.3445 1.67759 20.3601 1.64465 20.3756 1.61165H20.3755ZM16.1795 6.22114C16.1742 6.28275 16.2146 6.32366 16.2458 6.25966C16.2261 6.24825 16.2086 6.23808 16.1795 6.22114ZM18.0037 4.40582C17.9681 4.38252 17.941 4.38494 17.9224 4.41309C17.9499 4.41065 17.9769 4.4082 18.0037 4.40582ZM13.4392 3.06545C13.432 3.07066 13.425 3.07587 13.4178 3.08114C13.4313 3.10335 13.4448 3.12562 13.4583 3.14783C13.4676 3.13999 13.477 3.13221 13.4863 3.12437C13.4706 3.10473 13.4549 3.08509 13.4392 3.06545ZM16.4932 2.41563C16.4887 2.42084 16.4841 2.42598 16.4794 2.43119C16.5045 2.45409 16.5296 2.47693 16.5546 2.49983C16.5604 2.49243 16.5663 2.48509 16.5721 2.47768C16.5458 2.45698 16.5195 2.43634 16.4932 2.41563H16.4932ZM15.377 4.69839C15.4054 4.72668 15.412 4.73176 15.451 4.70014C15.4133 4.67586 15.4055 4.67153 15.377 4.69839ZM16.6468 6.38201C16.6633 6.36507 16.6753 6.35277 16.6873 6.34041C16.6731 6.32937 16.6589 6.31833 16.6447 6.30735C16.6401 6.31205 16.6354 6.3167 16.6307 6.3214C16.6351 6.33797 16.6395 6.35453 16.6468 6.38207V6.38201ZM18.5752 4.98198C18.571 4.9294 18.5682 4.89477 18.5641 4.84351C18.5264 4.89665 18.5335 4.93166 18.5752 4.98198ZM14.9263 4.93266C14.9347 4.96033 14.9412 4.98173 14.9504 5.01203C14.9666 4.99114 14.9762 4.97872 14.9868 4.96504C14.9693 4.95563 14.952 4.94641 14.9264 4.93266H14.9263ZM15.2389 5.06838C15.262 5.02433 15.2197 4.98474 15.1631 5.02603C15.1948 5.04372 15.2164 5.05583 15.2389 5.06838ZM16.3366 5.09316C16.2612 5.07816 16.2875 5.13237 16.2767 5.15973C16.2836 5.16211 16.2905 5.16443 16.2974 5.16682C16.31 5.14317 16.3226 5.11951 16.3366 5.09316ZM16.8413 3.77783C16.8375 3.8124 16.7758 3.85845 16.8639 3.87916C16.8559 3.84302 16.8486 3.81039 16.8413 3.77783ZM18.5147 5.17159C18.591 5.18652 18.5515 5.1288 18.5741 5.11324C18.565 5.1091 18.556 5.10496 18.5469 5.10081C18.5367 5.12315 18.5265 5.14542 18.5147 5.17152V5.17159ZM16.8666 5.10696C16.8583 5.10753 16.8501 5.10809 16.8419 5.10872C16.8436 5.14185 16.8453 5.17498 16.847 5.2081C16.8561 5.20697 16.8652 5.20591 16.8743 5.20478C16.8718 5.17215 16.8691 5.13959 16.8666 5.10696ZM13.8876 3.78799C13.8709 3.76171 13.886 3.70373 13.8199 3.73598C13.8424 3.7533 13.865 3.77068 13.8876 3.78799ZM19.6977 3.48853C19.6945 3.50672 19.6913 3.52492 19.6881 3.54311C19.6939 3.54706 19.6996 3.55108 19.7053 3.55503C19.7353 3.52561 19.7391 3.50923 19.6977 3.48853ZM20.5464 3.62612C20.6061 3.64067 20.5998 3.6046 20.6083 3.55001C20.5796 3.58515 20.566 3.60196 20.5464 3.62612ZM19.1 1.04051C19.1062 1.03467 19.1124 1.0289 19.1186 1.02307C19.1065 1.00914 19.0944 0.995208 19.0823 0.981279C19.0729 0.990377 19.0635 0.999475 19.0541 1.00851C19.0694 1.01918 19.0848 1.02984 19.1 1.04051ZM17.507 4.48519C17.5076 4.47979 17.5082 4.4744 17.5087 4.469C17.4899 4.46655 17.4711 4.4641 17.4523 4.46172L17.4514 4.48519H17.507H17.507ZM18.1182 1.66994C18.1599 1.65325 18.1703 1.62663 18.1493 1.59007C18.139 1.61636 18.1301 1.63938 18.1182 1.66994ZM14.3459 1.63254C14.3664 1.65049 14.3909 1.6485 14.4193 1.62658C14.3969 1.6284 14.3745 1.63022 14.3459 1.63254ZM15.9744 1.86293C15.9724 1.87015 15.9705 1.87737 15.9685 1.88452C15.9906 1.89073 16.0128 1.89688 16.035 1.90303C16.037 1.89562 16.0391 1.88828 16.0411 1.88088C16.0189 1.87486 15.9966 1.86889 15.9744 1.86287V1.86293ZM18.8224 5.0936C18.7916 5.06825 18.7716 5.08406 18.7706 5.15095C18.7878 5.13187 18.805 5.11286 18.8224 5.0936ZM15.7208 5.10935C15.7098 5.10747 15.6987 5.10565 15.6878 5.10376C15.6792 5.17711 15.711 5.18583 15.7208 5.10935ZM18.1216 5.23182C18.1247 5.22793 18.1279 5.22398 18.131 5.22009C18.1114 5.1953 18.0971 5.16989 18.061 5.18439C18.0604 5.19141 18.0597 5.19844 18.059 5.20547C18.0799 5.21425 18.1008 5.22304 18.1217 5.23182H18.1216ZM15.1375 2.79033C15.1162 2.77627 15.0997 2.76529 15.081 2.753C15.0787 2.7827 15.0975 2.79514 15.1375 2.79033ZM16.5877 2.01979C16.6021 2.04677 16.627 2.04926 16.6626 2.02726C16.6241 2.02343 16.6076 2.0218 16.5877 2.01979ZM15.2819 5.50682C15.2929 5.44521 15.2703 5.43165 15.212 5.42915C15.2382 5.45819 15.2551 5.47702 15.2819 5.50682ZM18.9182 2.46099C18.9474 2.43627 18.966 2.42053 18.9959 2.39537C18.9244 2.37454 18.9202 2.40622 18.9182 2.46099ZM19.1268 6.2665C19.169 6.26023 19.1403 6.23451 19.1347 6.20853C19.1297 6.20985 19.1248 6.21123 19.1199 6.21254C19.1222 6.23055 19.1245 6.2485 19.1269 6.2665H19.1268ZM16.8964 6.26236C16.8789 6.28846 16.8662 6.29624 16.9022 6.32015C16.9142 6.29122 16.9306 6.27711 16.8964 6.26236ZM19.0878 6.3017C19.0664 6.28727 19.049 6.2756 19.0127 6.25107C19.0234 6.29242 19.0286 6.31243 19.035 6.33696C19.0537 6.32448 19.0677 6.31513 19.0878 6.30164V6.3017ZM16.9154 2.54651C16.9058 2.53177 16.8961 2.51696 16.8864 2.50222C16.8791 2.5078 16.8718 2.51332 16.8645 2.51891C16.8814 2.5317 16.8922 2.56671 16.9153 2.54651H16.9154ZM17.3924 6.46245C17.3878 6.46044 17.3832 6.45843 17.3785 6.45642C17.3671 6.47487 17.3557 6.49332 17.3442 6.51176C17.3527 6.51647 17.3613 6.52124 17.3698 6.52594C17.3773 6.5048 17.3849 6.48365 17.3924 6.46251V6.46245ZM17.6378 6.57482C17.6456 6.56986 17.6534 6.56497 17.6612 6.56001C17.6248 6.49903 17.5957 6.51647 17.6378 6.57482ZM17.113 2.18392C17.1102 2.18913 17.1074 2.19428 17.1045 2.19948C17.1244 2.20971 17.1442 2.21994 17.164 2.23016C17.1665 2.22565 17.1689 2.22107 17.1713 2.21655C17.1518 2.2057 17.1324 2.19484 17.1129 2.18399L17.113 2.18392ZM16.4969 5.95104C16.502 5.94602 16.507 5.941 16.5121 5.93598C16.4981 5.92142 16.4842 5.9068 16.4703 5.89224C16.464 5.89827 16.4577 5.90429 16.4515 5.91032C16.4666 5.92387 16.4818 5.93748 16.4969 5.95104ZM17.386 5.80867C17.3833 5.79932 17.3806 5.78991 17.3779 5.78056C17.3614 5.78878 17.3449 5.797 17.3284 5.80522C17.331 5.81112 17.3337 5.81708 17.3363 5.82298C17.3529 5.81821 17.3694 5.81344 17.386 5.80867ZM14.8187 5.35523C14.8062 5.35291 14.7937 5.35059 14.7811 5.34833V5.40104C14.786 5.40235 14.7909 5.40367 14.7957 5.40499C14.8033 5.38842 14.8111 5.37186 14.8187 5.35523ZM19.0981 5.05759C19.0879 5.06543 19.0777 5.07327 19.0676 5.08118C19.0851 5.10245 19.0943 5.10289 19.116 5.08256C19.1083 5.07189 19.1032 5.06474 19.0981 5.05759ZM15.0308 5.07151C15.0487 5.07484 15.0666 5.0781 15.0845 5.08143C15.0847 5.07346 15.085 5.06543 15.0852 5.05746C15.064 5.05947 15.0303 5.03826 15.0308 5.07151ZM16.3632 4.88793C16.3587 4.91284 16.3555 4.93047 16.3494 4.96422C16.3866 4.93655 16.4074 4.91949 16.3632 4.88793ZM17.53 1.81632C17.5458 1.82585 17.5571 1.83275 17.5705 1.84085C17.5758 1.82372 17.5799 1.8108 17.5885 1.78338C17.5637 1.79737 17.5493 1.80546 17.5301 1.81632H17.53ZM20.1234 4.6758C20.1219 4.64687 20.1208 4.62611 20.1192 4.5968C20.0925 4.6255 20.0939 4.65183 20.1234 4.6758ZM17.8632 4.64066C17.8637 4.6342 17.8642 4.62767 17.8648 4.62121C17.8389 4.61255 17.8178 4.61004 17.7983 4.63219C17.8 4.63665 17.8017 4.64104 17.8035 4.64549C17.8234 4.64392 17.8433 4.64229 17.8632 4.64072L17.8632 4.64066ZM16.3452 4.59022C16.3529 4.5862 16.3607 4.58219 16.3684 4.57817C16.3607 4.56148 16.353 4.54485 16.3453 4.52816C16.3361 4.53281 16.3269 4.53745 16.3178 4.54209C16.3269 4.55816 16.3361 4.57422 16.3452 4.59022ZM18.5342 1.23777C18.5354 1.23275 18.5365 1.22779 18.5377 1.22277C18.5211 1.21851 18.5044 1.21424 18.4878 1.21004C18.4865 1.21575 18.4851 1.22152 18.4838 1.22723C18.5006 1.23074 18.5174 1.23426 18.5342 1.23777ZM18.9081 3.70612C18.896 3.72004 18.878 3.72964 18.8934 3.74865C18.9029 3.74075 18.9125 3.73284 18.9218 3.72513C18.9152 3.7159 18.9116 3.71101 18.9081 3.70612H18.9081ZM19.7535 3.4148C19.7731 3.45251 19.786 3.42302 19.8088 3.40784C19.8025 3.40106 19.7961 3.39435 19.7898 3.38757C19.7777 3.39667 19.7656 3.40571 19.7535 3.4148ZM19.9542 3.74263C19.9282 3.77852 19.9641 3.77984 19.9886 3.79577C19.9926 3.78743 19.9968 3.77908 20.0009 3.77074C19.9853 3.76139 19.9697 3.75204 19.9542 3.74263ZM19.7361 0.775609C19.7605 0.787907 19.7805 0.798009 19.822 0.818903C19.8 0.760552 19.7828 0.741917 19.7361 0.775609ZM15.137 3.56099C15.1617 3.60956 15.1839 3.61175 15.2235 3.58188C15.192 3.57429 15.1704 3.56902 15.137 3.56099ZM17.6022 6.06943C17.5978 6.0715 17.5934 6.07363 17.5891 6.0757C17.5971 6.09189 17.605 6.10814 17.613 6.12433C17.6176 6.12213 17.6222 6.11994 17.6269 6.11774C17.6187 6.10162 17.6104 6.08549 17.6022 6.06937V6.06943Z" fill="white"/>
<path d="M17.7091 12.5494C16.5742 13.5152 15.0111 10.7357 14.999 9.77013C14.9278 9.09628 15.0448 8.19806 15.771 7.93649C16.3576 7.70534 16.9876 7.81615 17.3617 8.34927C17.9307 9.12056 18.0214 10.2307 18.0565 11.1205C18.0578 11.6749 18.1269 12.1567 17.709 12.5494H17.7091ZM15.5484 8.52275C15.5485 8.52746 15.5486 8.53216 15.5488 8.53681C15.5817 8.53292 15.6147 8.52896 15.6531 8.52444C15.6477 8.55682 15.6416 8.59371 15.6345 8.63631C15.569 8.60017 15.5603 8.63751 15.5414 8.69109C15.6093 8.71788 15.6495 8.65169 15.6888 8.72685C15.7245 8.68544 15.7613 8.64271 15.8063 8.59057C15.6847 8.53059 15.7757 8.48021 15.8662 8.4442C15.8499 8.41728 15.8339 8.39074 15.813 8.35604C15.7235 8.41245 15.6359 8.4676 15.5483 8.52281L15.5484 8.52275ZM16.5971 8.5683C16.5712 8.58806 16.541 8.61122 16.4957 8.64579C16.5474 8.685 16.6921 8.69228 16.6675 8.76167C16.615 8.80879 16.6682 8.82536 16.6825 8.86539C16.7519 8.74837 16.7217 8.88967 16.7881 8.85089C16.8012 8.84085 16.8359 8.85886 16.8582 8.8635C16.9273 8.74473 16.8221 8.68858 16.7624 8.60281C16.7443 8.64441 16.7311 8.67478 16.7126 8.71719C16.666 8.65721 16.6316 8.61279 16.5971 8.5683H16.5971ZM17.0579 9.11886C17.0905 9.0772 17.0594 9.01609 17.0074 8.98999C16.9534 8.95492 16.8906 9.00875 16.8223 8.9819C16.795 9.09145 16.9449 9.10067 16.9076 9.20169H17.0278C17.0295 9.16975 16.9903 9.12702 17.0578 9.11893L17.0579 9.11886ZM17.3883 10.5757C17.3563 10.5975 17.3219 10.6209 17.2844 10.6465C17.2832 10.6838 17.3341 10.7411 17.2588 10.749C17.2896 10.7737 17.3219 10.7997 17.3592 10.8295C17.3945 10.7813 17.4323 10.7294 17.4682 10.6803C17.4368 10.639 17.4142 10.6096 17.3883 10.5757ZM16.6492 12.1968C16.6948 12.2364 16.7318 12.2687 16.7725 12.3041C16.8329 12.2521 16.8485 12.1938 16.8262 12.1176C16.7665 12.1444 16.7133 12.1681 16.6492 12.1968ZM16.2776 8.89983C16.3152 8.88346 16.365 8.92524 16.387 8.85434C16.3927 8.83602 16.4404 8.83069 16.4769 8.81626C16.4711 8.79656 16.4652 8.77629 16.4604 8.75973C16.3821 8.79725 16.2308 8.78081 16.2776 8.89983ZM16.8027 8.3546C16.8413 8.38924 16.873 8.41766 16.9126 8.45317H17.0393C16.9588 8.39193 16.8935 8.34224 16.816 8.2832C16.8098 8.31645 16.805 8.34237 16.8027 8.3546H16.8027ZM17.0292 10.765C16.9984 10.8128 16.975 10.8585 17.0283 10.9105C17.0762 10.8895 17.1217 10.8695 17.1771 10.8451C17.1266 10.8177 17.0818 10.7934 17.0292 10.7649V10.765ZM17.2473 11.0355C17.1919 11.0334 17.1931 10.979 17.1607 10.9292C17.1456 10.9784 17.137 11.0062 17.1294 11.0304C17.1762 11.0599 17.2135 11.0834 17.2634 11.1148C17.2569 11.0814 17.253 11.0357 17.2473 11.0355L17.2473 11.0355ZM17.0602 10.3053C17.1094 10.3826 17.1789 10.3201 17.2455 10.306C17.2449 10.3014 17.2443 10.2969 17.2436 10.2923C17.1777 10.2831 17.1079 10.2346 17.0602 10.3053H17.0602ZM15.8866 9.04483C15.9418 9.06223 15.9609 9.02935 15.9437 8.9462C15.9249 8.9787 15.906 9.0112 15.8866 9.04483ZM16.2869 9.32541C16.316 9.42819 16.3516 9.44192 16.416 9.38251C16.374 9.36394 16.3352 9.34675 16.2869 9.32541ZM17.3905 10.4504C17.3476 10.4231 17.3197 10.4053 17.2741 10.3763C17.2852 10.4229 17.2913 10.4486 17.2998 10.485C17.3318 10.4728 17.3505 10.4656 17.3905 10.4503V10.4504ZM16.4897 9.53961C16.4902 9.60995 16.5699 9.57532 16.5836 9.52876C16.5509 9.53127 16.509 9.48503 16.4897 9.53961ZM17.0054 11.916C16.9572 11.8718 16.9244 11.8705 16.8852 11.9422C16.9363 11.9311 16.9662 11.9246 17.0054 11.916ZM15.9844 11.0254C15.9769 11.0136 15.9675 10.9989 15.9478 10.9682C15.9364 11.0199 15.9284 11.0559 15.9205 11.0919C15.925 11.0929 15.9296 11.0937 15.934 11.0947C15.9503 11.0723 15.9664 11.0501 15.9844 11.0255V11.0254ZM17.4364 10.8982C17.4034 10.9065 17.3793 10.9127 17.3553 10.9188C17.3623 10.9391 17.3694 10.9595 17.3763 10.9799C17.3847 10.9776 17.3931 10.9753 17.4016 10.9731C17.4114 10.9519 17.4212 10.9309 17.4364 10.8982ZM15.5573 9.60995C15.5615 9.56009 15.5371 9.52644 15.4841 9.509C15.5129 9.54865 15.533 9.57638 15.5573 9.60995ZM17.6402 10.5173C17.6415 10.4488 17.6205 10.4573 17.57 10.4677C17.5705 10.4766 17.571 10.4855 17.5714 10.4944C17.5911 10.501 17.6108 10.5075 17.6402 10.5173ZM16.2678 9.21354C16.3054 9.2382 16.3095 9.21957 16.3459 9.18782C16.2921 9.16843 16.2835 9.16611 16.2678 9.21354ZM16.2214 8.73494C16.1928 8.75251 16.1695 8.76676 16.1298 8.79122C16.1873 8.79857 16.2293 8.81143 16.2214 8.73494ZM17.0492 10.0907C17.0461 10.1413 17.0445 10.1667 17.0415 10.2133C17.1039 10.1657 17.0736 10.1413 17.0492 10.0907ZM17.0247 10.0741C16.9773 10.0667 16.9678 10.0698 16.9279 10.0939C16.9603 10.1061 16.9925 10.0995 17.0247 10.0741ZM16.1109 8.24141C16.0845 8.22711 16.0582 8.21274 16.0228 8.19348C16.0323 8.26293 16.0687 8.25779 16.1109 8.24141ZM16.9509 9.60399C16.9526 9.6124 16.9541 9.6208 16.9558 9.62921C16.9863 9.64032 17.0165 9.65017 17.0507 9.58617C17.0057 9.5942 16.9784 9.59909 16.951 9.60399H16.9509ZM17.2003 11.9662C17.1909 11.9396 17.1815 11.9132 17.172 11.8866C17.1652 11.8891 17.1584 11.8915 17.1517 11.894C17.1508 11.9292 17.1577 11.9552 17.2003 11.9662V11.9662ZM17.0991 11.694C17.1075 11.6707 17.1136 11.6537 17.1249 11.6225C17.044 11.6346 17.0617 11.6582 17.0991 11.694ZM17.2339 10.6015C17.2005 10.5983 17.1793 10.5964 17.1486 10.5935C17.1696 10.6582 17.1925 10.651 17.2339 10.6015ZM15.8205 9.36864C15.8112 9.37987 15.8019 9.3911 15.7925 9.40234C15.8147 9.42919 15.8252 9.40886 15.8457 9.39192C15.8353 9.38232 15.8279 9.37548 15.8205 9.36858V9.36864ZM17.2482 8.96621C17.1773 8.97694 17.1985 9.01716 17.1923 9.04401C17.2 9.04765 17.2077 9.05129 17.2155 9.05493C17.2249 9.02933 17.2343 9.00373 17.2482 8.96621ZM16.0057 8.80503C16.0181 8.80296 16.0306 8.80095 16.0432 8.79888C16.0377 8.77786 16.0321 8.75684 16.0266 8.73582C16.0175 8.73808 16.0083 8.74034 15.9992 8.7426C16.0014 8.76343 16.0035 8.7842 16.0057 8.80503H16.0057ZM17.0889 8.76262C17.1111 8.78545 17.1358 8.7823 17.1631 8.75314C17.1398 8.75609 17.1165 8.7591 17.0889 8.76262ZM16.8663 8.53461C16.9108 8.54333 16.9248 8.53593 16.9564 8.5129C16.9542 8.50512 16.9521 8.49734 16.9499 8.48962C16.9091 8.49157 16.8943 8.49627 16.8663 8.53461ZM16.3868 8.17579C16.3453 8.16951 16.3296 8.18909 16.3317 8.23483C16.3514 8.21368 16.3683 8.19561 16.3868 8.17579ZM17.2269 10.5074C17.2434 10.5314 17.2712 10.5314 17.3102 10.5074H17.2269ZM17.675 10.8943C17.6585 10.8704 17.6484 10.8558 17.6368 10.8389C17.6062 10.8855 17.6281 10.8917 17.675 10.8943ZM16.6305 11.83C16.6133 11.828 16.5961 11.8259 16.5788 11.8239C16.5782 11.8323 16.5776 11.8407 16.577 11.8491C16.598 11.8453 16.6316 11.862 16.6305 11.83Z" fill="white"/>
<path d="M20.8938 11.7713C20.1359 12.6712 19.2432 12.1095 18.9525 11.1477C18.6047 10.1523 18.3579 9.08263 18.6653 8.04393C18.8567 7.07764 20.0998 7.1437 20.6557 7.75914C21.1665 8.23717 21.45 9.08658 21.4432 9.70535C21.4136 10.5341 21.3371 11.1622 20.8938 11.7713V11.7713ZM19.6114 9.33843C19.5726 9.35117 19.545 9.36026 19.5173 9.3693C19.5288 9.34069 19.5403 9.31201 19.557 9.27029C19.4747 9.25956 19.4585 9.32977 19.5173 9.36905C19.5486 9.3836 19.58 9.3734 19.6114 9.33843ZM19.2656 9.61826C19.2109 9.6 19.1949 9.67272 19.1478 9.66883C19.1595 9.70704 19.1698 9.74054 19.1818 9.77969C19.2075 9.77198 19.2316 9.75636 19.2518 9.76031C19.3581 9.80498 19.4182 9.60672 19.479 9.69568C19.4821 9.70064 19.5411 9.69957 19.5223 9.6475C19.5181 9.6357 19.539 9.61493 19.5511 9.59335C19.5049 9.55991 19.4576 9.56142 19.4091 9.5968C19.4123 9.61537 19.416 9.63696 19.4243 9.68458C19.355 9.65521 19.3114 9.63351 19.2656 9.61826H19.2656ZM20.0445 9.23346C20.0124 9.18163 19.987 9.11601 19.8914 9.11921C19.9081 9.16093 19.9429 9.21301 19.9318 9.22625C19.8833 9.28347 19.959 9.29382 19.9461 9.34571C19.9876 9.29834 20.0143 9.26797 20.0445 9.23346ZM19.1469 9.11293C19.1494 9.14267 19.1531 9.18433 19.1573 9.23252C19.2448 9.17542 19.2951 9.10327 19.2924 8.9882C19.2379 9.03488 19.1951 9.07165 19.1469 9.11293ZM20.2589 11.2751L20.2704 11.2971C20.3543 11.252 20.4687 11.2814 20.4502 11.1466C20.3707 11.1999 20.3148 11.2375 20.2589 11.2751H20.2589ZM19.4076 10.1276C19.3849 10.1425 19.363 10.1568 19.3411 10.1712C19.3091 10.1598 19.277 10.1484 19.2315 10.1324C19.2156 10.2219 19.4766 10.2642 19.4076 10.1276ZM20.7291 11.4077C20.7062 11.3336 20.6947 11.311 20.6313 11.2771C20.6119 11.2849 20.5856 11.2955 20.5562 11.3075C20.6101 11.3387 20.6603 11.3678 20.7292 11.4077H20.7291ZM19.9503 8.08095C19.8931 8.15185 19.9503 8.23278 20.0066 8.24841C20.0183 8.18328 19.9987 8.1324 19.9503 8.08095ZM20.5035 11.514C20.5118 11.5328 20.5251 11.563 20.5477 11.6145C20.5824 11.5538 20.6038 11.5163 20.629 11.472C20.5846 11.4869 20.5504 11.4983 20.5035 11.514ZM20.4309 8.03351C20.4255 7.93451 20.4078 7.91844 20.308 7.92604C20.3532 7.96556 20.3875 7.99555 20.4309 8.03351ZM20.177 11.7224C20.2138 11.7182 20.2312 11.6883 20.2294 11.6325C20.1925 11.6484 20.1751 11.6784 20.177 11.7224ZM20.6429 11.0144V10.9277C20.5561 10.9513 20.5719 11.0083 20.6429 11.0144ZM19.3628 9.49754C19.3877 9.45651 19.4096 9.42049 19.4318 9.38404C19.3461 9.38404 19.3357 9.39923 19.3628 9.49754ZM21.0386 9.10038C20.9936 9.10703 20.9884 9.13853 20.9845 9.17655C21.0477 9.20297 21.071 9.14192 21.0386 9.10038ZM19.6983 8.22262C19.7062 8.19175 19.712 8.16872 19.7178 8.14563L19.7027 8.13421C19.6839 8.14877 19.6651 8.16327 19.6388 8.18353C19.6612 8.19828 19.6749 8.20731 19.6983 8.22268V8.22262ZM20.1659 11.877C20.1249 11.8664 20.0872 11.8778 20.0526 11.911C20.1141 11.9171 20.1218 11.906 20.1659 11.877ZM19.5351 9.85806H19.4148C19.4661 9.9245 19.4986 9.86396 19.5351 9.85806ZM20.4559 11.0153C20.4254 11.0626 20.4557 11.0728 20.4753 11.1098C20.4835 11.1026 20.4918 11.0953 20.5 11.0882C20.4873 11.0672 20.4746 11.0462 20.456 11.0153H20.4559ZM20.0693 7.92654C20.0583 7.89969 20.0494 7.87823 20.0361 7.8456C20.0223 7.87559 20.0123 7.89705 19.9987 7.92654H20.0693ZM20.4216 11.4112C20.4509 11.4219 20.4675 11.428 20.4842 11.4341C20.4899 11.4173 20.4956 11.4005 20.5014 11.3838C20.4951 11.3796 20.489 11.3755 20.4828 11.3714C20.4667 11.3819 20.4505 11.3924 20.4215 11.4112H20.4216ZM20.0029 8.44366C19.967 8.44036 19.9475 8.45675 19.9443 8.49285C19.9637 8.4766 19.9808 8.46229 20.0029 8.44366ZM19.1038 7.96563C19.1731 7.9805 19.1778 7.94887 19.1754 7.88306C19.1441 7.9192 19.1275 7.93821 19.1038 7.96563ZM19.2276 10.6099C19.2006 10.6349 19.2006 10.659 19.2276 10.6822V10.6099ZM19.0668 9.48939C19.0348 9.51565 19.0369 9.5363 19.0732 9.55131C19.071 9.53067 19.0691 9.51229 19.0668 9.48939ZM19.7786 9.47427C19.7429 9.4897 19.738 9.50576 19.766 9.54341C19.7959 9.51542 19.8202 9.49277 19.7786 9.47427ZM20.2484 11.4038C20.2304 11.4083 20.2123 11.4128 20.1942 11.4173C20.1961 11.4241 20.198 11.4309 20.1999 11.4377C20.2193 11.4275 20.2624 11.4353 20.2484 11.4038Z" fill="white"/>
<path d="M22.958 9.3411C21.9612 8.99068 21.3697 7.73759 21.1888 6.76019C21.0768 6.19281 21.118 5.42165 21.6572 5.08855C22.185 4.78839 22.8294 4.8116 23.2243 5.3185C23.7895 6.01387 23.9825 6.92733 23.997 7.80441C24.0308 8.43434 23.7881 9.50617 22.9581 9.3411H22.958ZM21.5794 6.31911C21.5757 6.26772 21.5472 6.24646 21.5142 6.22832C21.5275 6.18967 21.5409 6.15102 21.5546 6.11112C21.4783 6.13904 21.4757 6.14726 21.5165 6.2265C21.5061 6.274 21.5193 6.30593 21.5794 6.31905V6.31911ZM21.668 6.05039C21.6983 6.0443 21.7221 6.03953 21.7474 6.03451C21.7399 5.99172 21.6966 6.0044 21.6653 5.98946C21.6643 5.96524 21.6631 5.94115 21.6616 5.90802C21.604 5.92409 21.5482 5.92697 21.5463 6.01958C21.5922 6.00722 21.6301 5.99705 21.668 5.98683V6.05032V6.05039ZM21.8276 6.96856C21.8174 7.09601 21.7822 7.14934 21.7219 7.12855C21.7111 7.16005 21.7002 7.19161 21.6912 7.21808C21.7572 7.20993 21.8254 7.20152 21.9142 7.1906C21.8807 7.17504 21.8618 7.16632 21.8292 7.15114C21.8595 7.12435 21.8875 7.04473 21.9372 7.07083C21.991 7.14524 22.0881 7.1426 22.1172 7.23571C22.1191 7.19399 22.121 7.15227 22.1232 7.10439C22.0962 7.10716 22.0698 7.10992 22.0348 7.11349C22.0232 7.07359 22.0117 7.03394 21.9975 6.98531C21.9782 6.99667 21.9625 7.00595 21.9457 7.01586C21.8899 6.96693 21.8508 6.87313 21.7325 6.92922C21.7688 6.94428 21.7982 6.95645 21.8277 6.96862L21.8276 6.96856ZM23.1644 8.91671C23.2053 9.01013 23.268 8.93214 23.3279 8.93139C23.3198 8.9595 23.3137 8.98089 23.3054 9.00982C23.468 8.94469 23.4298 8.84669 23.2887 8.80245C23.2405 8.84675 23.2023 8.88182 23.1644 8.91671ZM22.9017 8.00318C22.95 7.98969 22.9918 7.97795 23.029 7.96754C23.0095 7.93341 22.9882 7.89633 22.9662 7.85805C22.945 7.85442 22.914 7.84902 22.8829 7.84369C22.8827 7.83735 22.8824 7.83101 22.8822 7.82474C22.8484 7.84908 22.8147 7.87343 22.7812 7.89758C22.8094 7.97262 22.8547 7.94225 22.9071 7.91421C22.9046 7.9548 22.9034 7.97476 22.9017 8.00324V8.00318ZM21.5343 6.76295C21.5783 6.72675 21.5831 6.69023 21.5669 6.64763C21.5274 6.64167 21.4903 6.63602 21.4378 6.62812C21.4731 6.67749 21.5014 6.71696 21.5343 6.76301V6.76295ZM23.4492 8.61422C23.4812 8.58919 23.5141 8.56359 23.5556 8.53115C23.523 8.5117 23.498 8.49683 23.4796 8.48592C23.4488 8.52068 23.4226 8.55017 23.3929 8.58361C23.4059 8.59063 23.4264 8.6018 23.4492 8.61422ZM23.6079 8.21531C23.6899 8.16658 23.7332 8.12327 23.7379 8.08537C23.6893 8.11128 23.6419 8.13657 23.5815 8.16875C23.5919 8.18708 23.5999 8.20113 23.608 8.21531H23.6079ZM23.21 7.34093C23.2055 7.30919 23.1933 7.29162 23.1578 7.30762C23.122 7.32374 23.0595 7.30956 23.0752 7.39119C23.1263 7.37212 23.1682 7.35649 23.21 7.34093ZM22.8896 7.76375C22.872 7.63074 22.8547 7.61254 22.7951 7.64335C22.8247 7.68106 22.8502 7.7135 22.8896 7.76375ZM22.3116 7.86947C22.2666 7.83195 22.2534 7.78239 22.1946 7.79268C22.2149 7.83515 22.2284 7.88786 22.3116 7.86947ZM21.9906 6.67179C22.0295 6.73503 22.0638 6.69287 22.1146 6.6768C22.0634 6.63539 22.0288 6.64129 21.9906 6.67179ZM22.9347 8.51277C22.978 8.59283 23.0088 8.55129 23.0573 8.50555C23.0075 8.5085 22.976 8.51032 22.9347 8.51277ZM21.6854 6.42314C21.6658 6.47471 21.6527 6.50922 21.6395 6.54367C21.69 6.52415 21.7321 6.50132 21.6854 6.42314ZM22.6179 7.80849C22.6589 7.77825 22.6675 7.74372 22.6436 7.7049C22.6346 7.7411 22.628 7.76783 22.6179 7.80849ZM23.2467 7.32324C23.2886 7.29266 23.2957 7.26062 23.2678 7.22712C23.259 7.26683 23.2531 7.29413 23.2467 7.32324ZM23.2666 8.08681C23.2674 8.09491 23.2682 8.10294 23.269 8.11103C23.3104 8.10858 23.3517 8.10608 23.393 8.10363C23.3912 8.09359 23.3894 8.08355 23.3877 8.07351C23.3473 8.07797 23.3069 8.08236 23.2666 8.08681ZM22.6055 8.74435C22.6073 8.71411 22.6083 8.69786 22.6098 8.67151C22.5869 8.67496 22.5676 8.67791 22.5281 8.68387C22.5615 8.70991 22.5782 8.72302 22.6055 8.74435ZM23.6181 8.62307C23.6304 8.59459 23.6394 8.57369 23.6512 8.54627C23.6112 8.55874 23.6002 8.58434 23.6181 8.62307ZM22.0438 6.91316C22.0683 6.88622 22.0569 6.85991 22.0095 6.83423C22.0273 6.87532 22.0351 6.89308 22.0438 6.91316ZM22.2983 7.49892C22.2986 7.50563 22.2989 7.51234 22.2991 7.51912H22.3726C22.3724 7.51115 22.3723 7.50318 22.3722 7.49515C22.3476 7.49641 22.3229 7.49766 22.2983 7.49892ZM21.6678 7.04523C21.6942 7.0175 21.6877 7.00796 21.6584 6.98073C21.621 7.01825 21.6362 7.02258 21.6678 7.04523ZM23.2064 6.21395C23.1781 6.22362 23.1601 6.2297 23.1379 6.23729C23.1807 6.28366 23.1989 6.27814 23.2064 6.21395ZM22.7816 7.70208C22.7488 7.72172 22.7508 7.72837 22.7616 7.77235C22.7948 7.74016 22.804 7.7364 22.7816 7.70208ZM22.05 7.81018C22.0487 7.79676 22.0476 7.78339 22.0463 7.76996C22.0324 7.77586 22.0186 7.78176 21.9843 7.79644C22.0206 7.80403 22.0353 7.80711 22.05 7.81018ZM23.2451 8.30246C23.2422 8.36037 23.2821 8.346 23.3018 8.3593C23.3056 8.35246 23.3095 8.34556 23.3133 8.33872C23.2927 8.32774 23.272 8.31676 23.2451 8.30246Z" fill="white"/>
<path d="M13.8495 10.0274C13.7528 10.3988 13.31 10.6219 12.9877 10.3748C12.1781 9.75831 12.0225 8.58742 12.0789 7.63022C12.2706 5.73967 14.6439 5.12762 14.4824 7.56359C14.4244 8.30288 14.2223 9.31924 13.8495 10.0274ZM13.7922 7.09258C13.76 7.06941 13.7216 7.062 13.677 7.07037C13.6799 7.11774 13.6828 7.16386 13.6856 7.20997C13.6583 7.25188 13.6642 7.29386 13.7033 7.3359C13.7104 7.30917 13.7042 7.26682 13.6845 7.20884C13.7417 7.18839 13.7291 7.10858 13.7922 7.09258ZM13.1215 7.40334C13.1727 7.35566 13.1427 7.30314 13.0884 7.33132C13.0994 7.28671 13.0661 7.22679 13.1394 7.20489C13.1257 7.19441 13.1174 7.18801 13.1021 7.17628C13.0878 7.19542 13.0742 7.21361 13.073 7.21512C13.0065 7.22716 12.9551 7.23651 12.9036 7.24586C12.9033 7.25364 12.9028 7.26136 12.9024 7.26914C12.9722 7.26989 13.0099 7.35604 13.0902 7.32856C13.0995 7.35083 13.1088 7.37316 13.1214 7.40334H13.1215ZM13.731 7.5351C13.7296 7.54226 13.7283 7.54947 13.7269 7.55662C13.771 7.58806 13.8152 7.61955 13.8716 7.65971C13.8647 7.62909 13.8601 7.60895 13.854 7.58222C13.892 7.57507 13.9303 7.56792 13.97 7.56051C13.9684 7.53071 13.9673 7.50957 13.9662 7.48836C13.9226 7.42926 13.9985 7.39456 14.0005 7.34148C13.9789 7.34456 13.9635 7.34681 13.9489 7.34888C13.9017 7.2847 14.0171 7.27911 13.9896 7.21788C13.9553 7.22848 13.9204 7.23915 13.8857 7.24988C13.872 7.20991 13.8775 7.15488 13.8117 7.15589C13.8061 7.20023 13.8319 7.23028 13.8889 7.24605C13.8839 7.31889 13.8791 7.39149 13.8738 7.4728C13.9079 7.47751 13.938 7.48165 13.968 7.48579C13.9297 7.58203 13.8111 7.51597 13.7311 7.5351H13.731ZM13.1311 6.79236C13.1092 6.80673 13.0883 6.82047 13.0673 6.83427C13.0505 6.7943 13.0978 6.72912 13.0119 6.71519C12.9713 6.7822 12.8837 6.77441 12.8245 6.81143C12.8879 6.8647 12.955 7.03668 13.0444 6.91847C13.0895 6.86865 13.1651 6.88635 13.1311 6.79236ZM13.8795 8.74434C13.8984 8.74045 13.9267 8.73461 13.955 8.72884C13.9545 8.72401 13.954 8.71918 13.9535 8.71434H13.8655C13.8389 8.77458 13.8125 8.8345 13.7891 8.88751C13.7353 8.89027 13.682 8.89304 13.6254 8.89598C13.6285 8.92503 13.6302 8.94128 13.6319 8.9576C13.5473 8.94693 13.5487 8.99982 13.5353 9.06664C13.5478 9.06438 13.5528 9.0647 13.5534 9.06319C13.5929 8.97228 13.6498 8.9837 13.7094 9.03571C13.7626 9.00076 13.813 8.96776 13.871 8.92968C13.8734 8.87503 13.8764 8.81065 13.8794 8.7444L13.8795 8.74434ZM14.1515 7.97568C14.094 7.93333 14.1072 7.88891 14.0761 7.84881C13.9807 7.82215 13.9415 7.81318 13.8387 7.79887C13.9292 7.88558 14.0036 7.95686 14.0873 8.03698C14.1042 8.02085 14.1272 7.99896 14.1516 7.97568H14.1515ZM13.7638 8.52449C13.7803 8.53986 13.7947 8.55322 13.8202 8.57688C13.7864 8.59557 13.7555 8.61264 13.7183 8.63322C13.7417 8.65016 13.7632 8.66578 13.7754 8.67457C13.8512 8.63473 13.9191 8.59909 13.9855 8.56414C13.9112 8.47461 13.8796 8.46758 13.7638 8.52442L13.7638 8.52449ZM13.824 6.78176H13.8784C13.9025 6.73997 13.8322 6.61166 13.7661 6.5769C13.7742 6.61323 13.7807 6.64234 13.7888 6.67873C13.7609 6.66982 13.7365 6.66198 13.7048 6.65188C13.7005 6.6793 13.6969 6.70151 13.6922 6.73068C13.6554 6.72541 13.6217 6.72058 13.5767 6.71412C13.5817 6.74562 13.5857 6.7704 13.5908 6.80183C13.674 6.76463 13.7518 6.72981 13.8452 6.68808C13.8355 6.73056 13.8305 6.75258 13.8239 6.78169L13.824 6.78176ZM12.5498 7.21669C12.5653 7.27228 12.5809 7.32837 12.5984 7.39142C12.6647 7.34192 12.6305 7.24134 12.7424 7.24693C12.6872 7.16624 12.6733 7.15626 12.5498 7.21669ZM13.6751 7.49319C13.6607 7.47625 13.6481 7.46138 13.6277 7.43735C13.5772 7.54909 13.4893 7.51754 13.3982 7.51848C13.4288 7.5405 13.4595 7.56252 13.4922 7.58611C13.5987 7.47889 13.584 7.59897 13.6751 7.49319ZM13.5075 7.2143C13.4802 7.24825 13.4563 7.2778 13.432 7.30804C13.492 7.33648 13.5465 7.32993 13.5954 7.2884C13.5624 7.2606 13.5369 7.23909 13.5075 7.2143ZM13.4489 10.0624C13.4133 10.0535 13.3812 10.0454 13.349 10.0373C13.3428 10.046 13.3366 10.0547 13.3303 10.0634C13.3617 10.0759 13.3931 10.0885 13.4245 10.1009C13.3675 10.138 13.312 10.074 13.2918 10.1614H13.4334C13.4393 10.1242 13.4434 10.0974 13.4489 10.0624H13.4489ZM13.2106 6.70345C13.1638 6.66995 13.1466 6.63318 13.1813 6.57326C13.1144 6.60997 13.0768 6.62804 13.0083 6.6062C13.0085 6.61379 13.0086 6.62132 13.0087 6.62892C13.076 6.65376 13.1433 6.67867 13.2106 6.70352L13.2106 6.70345ZM13.6203 7.84769C13.618 7.8202 13.6153 7.78833 13.6124 7.75508C13.573 7.74981 13.5371 7.74498 13.506 7.74084C13.5019 7.76625 13.4982 7.78902 13.4938 7.8165C13.5283 7.82497 13.5711 7.83558 13.6203 7.84769ZM13.506 9.47133C13.4549 9.40652 13.5215 9.31968 13.4127 9.26146C13.4458 9.3552 13.4046 9.44843 13.506 9.47133ZM12.5002 8.22564C12.5047 8.28707 12.5078 8.32936 12.5117 8.38244C12.5535 8.35734 12.5838 8.33908 12.6185 8.31832C12.5808 8.28876 12.5494 8.26417 12.5003 8.22564H12.5002ZM14.1238 7.47412C14.0919 7.49244 14.0651 7.50787 14.0266 7.52996C14.0804 7.54539 14.1241 7.55788 14.1904 7.57689C14.1622 7.53341 14.1439 7.50505 14.1238 7.47412ZM13.1814 6.44665C13.2289 6.46265 13.2595 6.473 13.311 6.49038C13.2933 6.44546 13.281 6.41402 13.2604 6.36201C13.2294 6.39526 13.2096 6.41653 13.1814 6.44665ZM13.6637 6.59836C13.7667 6.55971 13.7181 6.53242 13.6849 6.46641C13.6778 6.46873 13.6708 6.47106 13.6637 6.47344V6.59836ZM12.9266 8.71547C12.9592 8.73116 12.9828 8.74252 13.0176 8.75927V8.65405C12.983 8.67739 12.9593 8.69339 12.9266 8.71547ZM14.1714 7.45347C14.2013 7.41276 14.1557 7.3576 14.1018 7.40818C14.1293 7.42612 14.15 7.43961 14.1714 7.45347ZM12.8209 7.34857C12.8022 7.36106 12.7884 7.37022 12.7593 7.38954C12.7961 7.40159 12.8181 7.40887 12.8579 7.42192C12.8402 7.38678 12.8317 7.36997 12.8209 7.34857ZM13.3477 6.44797C13.3761 6.41572 13.3952 6.39401 13.4143 6.37236C13.3581 6.36653 13.3438 6.39137 13.3477 6.44797ZM13.1109 6.54195C13.1322 6.53668 13.1446 6.53361 13.1624 6.52922C13.1486 6.50538 13.1377 6.48643 13.121 6.45757C13.117 6.49044 13.1144 6.51247 13.1109 6.54195ZM13.5582 6.46196C13.5651 6.46284 13.5719 6.46372 13.5788 6.46459C13.5797 6.44797 13.5807 6.43134 13.5817 6.41465C13.5761 6.41409 13.5705 6.41352 13.5649 6.41302C13.5627 6.42933 13.5604 6.44564 13.5582 6.46196H13.5582ZM13.2295 7.42737C13.2196 7.42047 13.2097 7.41357 13.1998 7.40661C13.1836 7.43177 13.1675 7.43961 13.2047 7.46C13.2145 7.4472 13.222 7.43729 13.2295 7.42737ZM13.9383 8.41262C13.9369 8.41644 13.9356 8.42033 13.9342 8.42416C13.953 8.43238 13.9718 8.4406 13.9906 8.44888C13.9928 8.44286 13.995 8.43684 13.9973 8.43081C13.9776 8.42473 13.958 8.41864 13.9383 8.41262H13.9383ZM13.1738 9.9786C13.1904 10.0048 13.1958 10.0164 13.225 9.98513C13.2039 9.96775 13.1858 9.94855 13.1738 9.9786Z" fill="white"/>
</g>
<defs>
<clipPath id="clip0_75_16">
<rect width="24" height="23.3448" fill="white" transform="matrix(-1 0 0 -1 24 23.3447)"/>
</clipPath>
</defs>
</svg>
